<?xml version="1.0" encoding="utf-8"?>
<!-- Generator: Adobe Illustrator 16.0.4, SVG Export Plug-In . SVG Version: 6.00 Build 0)  -->
<!DOCTYPE svg PUBLIC "-//W3C//DTD SVG 1.1//EN" "http://www.w3.org/Graphics/SVG/1.1/DTD/svg11.dtd">
<svg version="1.1" id="Ebene_1" xmlns="http://www.w3.org/2000/svg" xmlns:xlink="http://www.w3.org/1999/xlink" x="0px" y="0px"
	 width="85.04px" height="85.04px" viewBox="0 0 85.04 85.04" enable-background="new 0 0 85.04 85.04" xml:space="preserve">
<g>
	<path fill="#1F2D54" d="M19.705,32.801h19.438V13.365h26.379l-0.033,22.988c2.04,0.504,2.731,0.648,4.89,1.917V8.506L34.617,8.505
		L14.846,28.249v48.285l28.237-0.001v-4.872l-23.378,0.012V32.801z M34.19,15.219v12.723H21.326L34.19,15.219z"/>
	<g>
		<rect x="26.555" y="50.155" fill="#1F2D54" width="21.684" height="4.859"/>
	</g>
	<g>
		<rect x="26.555" y="59.874" fill="#1F2D54" width="16.527" height="4.859"/>
	</g>
	<g>
		<rect x="45.991" y="27.942" fill="#1F2D54" width="12.494" height="4.859"/>
	</g>
	<g>
		<rect x="45.991" y="18.225" fill="#1F2D54" width="12.494" height="4.858"/>
	</g>
	<g>
		<rect x="26.555" y="40.436" fill="#1F2D54" width="23.215" height="4.859"/>
	</g>
</g>
<path fill="#1F2D54" d="M79.223,56.936h-3.246v-6.393c0-7.164-5.799-12.978-12.977-12.978s-12.979,5.813-12.979,12.978v6.393h-3.246
	c-1.26,0-2.275,1.02-2.275,2.275v22.037c0,1.26,1.016,2.275,2.275,2.275h32.447c1.26,0,2.277-1.016,2.277-2.275V59.213
	C81.5,57.956,80.485,56.936,79.223,56.936z M65.811,74.059c0.191,0.727-0.389,1.451-1.115,1.451h-3.391
	c-0.785,0-1.309-0.727-1.1-1.451l1.053-4.117c-1.26-0.629-2.131-1.945-2.131-3.486c0-2.176,1.742-3.924,3.922-3.924
	c2.182,0,3.924,1.74,3.924,3.924c0,1.541-0.871,2.857-2.129,3.486L65.811,74.059z M69.481,55.704H56.52v-6.393
	c0-3.582,2.896-6.484,6.48-6.484s6.48,2.9,6.48,6.484V55.704L69.481,55.704z"/>
</svg>
