<?xml version="1.0" encoding="utf-8"?>
<!-- Generator: Adobe Illustrator 16.0.4, SVG Export Plug-In . SVG Version: 6.00 Build 0)  -->
<!DOCTYPE svg PUBLIC "-//W3C//DTD SVG 1.1//EN" "http://www.w3.org/Graphics/SVG/1.1/DTD/svg11.dtd">
<svg version="1.1" id="Layer_1" xmlns="http://www.w3.org/2000/svg" xmlns:xlink="http://www.w3.org/1999/xlink" x="0px" y="0px"
	 width="85.039px" height="85.04px" viewBox="0 0 85.039 85.04" enable-background="new 0 0 85.039 85.04" xml:space="preserve">
<path fill="#1F2D54" d="M77.952,46.95v-8.858l-9.572-1.596c-0.666-2.877-1.799-5.563-3.316-7.998l5.645-7.898l-6.263-6.263
	l-7.903,5.64c-2.436-1.514-5.121-2.65-7.996-3.322l-1.598-9.566h-8.857l-1.596,9.566c-2.873,0.671-5.563,1.809-7.999,3.322
	l-7.901-5.64l-6.264,6.263l5.645,7.898c-1.518,2.431-2.65,5.121-3.316,7.998l-9.572,1.596v8.858l9.572,1.597
	c0.667,2.876,1.799,5.562,3.316,7.997l-5.645,7.903l6.264,6.262l7.906-5.645c2.431,1.519,5.121,2.651,7.994,3.316l1.596,9.572h8.857
	l1.598-9.572c2.871-0.665,5.562-1.799,7.996-3.316l7.903,5.645l6.263-6.262l-5.645-7.903c1.518-2.437,2.65-5.125,3.316-7.997
	L77.952,46.95z M42.519,60.238c-9.784,0-17.716-7.934-17.716-17.717c0-9.785,7.933-17.717,17.716-17.717s17.717,7.932,17.717,17.717
	C60.235,52.304,52.302,60.238,42.519,60.238z"/>
</svg>
