<?xml version="1.0" encoding="utf-8"?>
<!-- Generator: Adobe Illustrator 16.0.4, SVG Export Plug-In . SVG Version: 6.00 Build 0)  -->
<!DOCTYPE svg PUBLIC "-//W3C//DTD SVG 1.1//EN" "http://www.w3.org/Graphics/SVG/1.1/DTD/svg11.dtd">
<svg version="1.1" id="Слой_1" xmlns="http://www.w3.org/2000/svg" xmlns:xlink="http://www.w3.org/1999/xlink" x="0px" y="0px"
	 width="70.867px" height="70.865px" viewBox="0 0 70.867 70.865" enable-background="new 0 0 70.867 70.865" xml:space="preserve">
<g>
	<path fill="#505D81" d="M52.101,28.025v-7.407c0-9.187-7.479-16.667-16.666-16.667c-9.186,0-16.667,7.48-16.667,16.667v12.963
		h-3.704v12.963c0,11.26,9.111,20.37,20.371,20.37s20.369-9.11,20.369-20.37V33.58H29.88V20.617c0-3.037,2.518-5.557,5.555-5.557
		s5.557,2.52,5.557,5.557v7.407L52.101,28.025L52.101,28.025z M52.101,37.283v9.259c0,9.186-7.479,16.667-16.666,16.667
		c-9.186,0-16.667-7.481-16.667-16.667v-9.259H52.101z M35.435,11.358c-5.111,0-9.26,4.146-9.26,9.26v12.963h-3.703V20.617
		c0-7.111,5.852-12.963,12.963-12.963c7.109,0,12.963,5.852,12.963,12.963v3.704h-3.703v-3.704
		C44.694,15.506,40.546,11.358,35.435,11.358z"/>
	<path fill="#505D81" d="M32.62,55.284c0.371,0.369,0.814,0.519,1.333,0.519c0.518,0,0.962-0.147,1.333-0.519l8.89-8.891
		c0.739-0.74,0.739-1.926,0-2.592c-0.739-0.741-1.927-0.741-2.594,0l-7.629,7.556l-4.594-4.593c-0.74-0.74-1.927-0.74-2.593,0
		c-0.741,0.74-0.741,1.927,0,2.593L32.62,55.284z"/>
</g>
</svg>
