<?xml version="1.0" encoding="UTF-8" standalone="no"?>
<!-- Generator: Adobe Illustrator 15.0.0, SVG Export Plug-In . SVG Version: 6.00 Build 0)  -->

<svg
   xmlns:dc="http://purl.org/dc/elements/1.1/"
   xmlns:cc="http://creativecommons.org/ns#"
   xmlns:rdf="http://www.w3.org/1999/02/22-rdf-syntax-ns#"
   xmlns:svg="http://www.w3.org/2000/svg"
   xmlns="http://www.w3.org/2000/svg"
   xmlns:sodipodi="http://sodipodi.sourceforge.net/DTD/sodipodi-0.dtd"
   xmlns:inkscape="http://www.inkscape.org/namespaces/inkscape"
   version="1.1"
   id="Ebene_1"
   x="0px"
   y="0px"
   width="749.99px"
   height="659.08px"
   viewBox="0 0 749.99 659.08"
   enable-background="new 0 0 749.99 659.08"
   xml:space="preserve"
   inkscape:version="0.48.1 r9760"
   sodipodi:docname="Zeichen_101.svg"><metadata
   id="metadata15"><rdf:RDF><cc:Work
       rdf:about=""><dc:format>image/svg+xml</dc:format><dc:type
         rdf:resource="http://purl.org/dc/dcmitype/StillImage" /><dc:title></dc:title></cc:Work></rdf:RDF></metadata><defs
   id="defs13" /><sodipodi:namedview
   pagecolor="#ffffff"
   bordercolor="#666666"
   borderopacity="1"
   objecttolerance="10"
   gridtolerance="10"
   guidetolerance="10"
   inkscape:pageopacity="0"
   inkscape:pageshadow="2"
   inkscape:window-width="640"
   inkscape:window-height="480"
   id="namedview11"
   showgrid="false"
   inkscape:zoom="0.39752381"
   inkscape:cx="374.995"
   inkscape:cy="329.54001"
   inkscape:window-x="0"
   inkscape:window-y="0"
   inkscape:window-maximized="0"
   inkscape:current-layer="Ebene_1" />
<path
   fill="#FFFFFF"
   d="M344.692,18.139L344.692,18.139L5.351,605.904c-3.08,5.325-4.708,11.387-4.708,17.514  c0,19.284,15.718,34.994,35.019,34.994H714.36c6.129,0,12.188-1.618,17.48-4.691c16.713-9.65,22.456-31.086,12.821-47.816  L405.306,18.139c-3.057-5.301-7.495-9.733-12.805-12.805C375.796-4.308,354.351,1.435,344.692,18.139"
   id="path3" />
<path
   d="M375.003,0c-12.305,0-24.292,6.377-30.87,17.813L4.768,605.586C1.637,611.012,0,617.156,0,623.417  c0,19.685,15.961,35.662,35.646,35.662H714.36c6.245,0,12.389-1.652,17.798-4.793c11.487-6.61,17.864-18.614,17.832-30.969  c0-6.027-1.537-12.138-4.76-17.731L405.856,17.813c-3.122-5.425-7.63-9.917-13.039-13.048C387.198,1.519,381.081,0,375.003,0   M35.646,657.761c-18.925,0-34.335-15.393-34.335-34.344c0-6.026,1.594-11.972,4.583-17.162L345.26,18.481  C351.362,7.88,362.765,1.31,375.003,1.31c6.003,0,11.938,1.578,17.173,4.583c5.19,3.03,9.55,7.371,12.545,12.588l339.356,587.774  c9.484,16.394,3.808,37.446-12.553,46.896c-5.211,3.023-11.17,4.609-17.164,4.609H35.646z"
   id="path5" />
<path
   fill="#E30613"
   d="M35.663,645.708c-12.33,0-22.297-10.002-22.297-22.29c0-3.924,1.027-7.747,2.996-11.135L355.703,24.492  c6.16-10.644,19.784-14.308,30.452-8.147c3.365,1.945,6.187,4.766,8.155,8.147l339.316,587.791  c6.179,10.652,2.521,24.275-8.132,30.436c-3.389,1.954-7.229,2.989-11.135,2.989 M112.847,578.856H637.16l-262.157-454.09  L112.847,578.856z"
   id="path7"
   style="fill:#c1121c;fill-opacity:1" />
<path
   d="M410.665,520.907c0,19.7-15.96,35.645-35.662,35.645c-19.693,0-35.662-15.944-35.662-35.645  c0-19.686,15.969-35.646,35.662-35.646C394.705,485.261,410.665,501.221,410.665,520.907 M392.751,451.185  c-0.853,9.8-9.518,17.046-19.334,16.179c-8.582-0.77-15.402-7.58-16.169-16.179L339.5,252.222  c-1.762-19.609,12.73-36.931,32.348-38.692c19.609-1.745,36.914,12.739,38.667,32.348c0.185,2.121,0.185,4.225,0,6.345  L392.751,451.185z"
   id="path9" />
</svg>