<?xml version="1.0" encoding="utf-8"?>
<!-- Generator: Adobe Illustrator 16.0.4, SVG Export Plug-In . SVG Version: 6.00 Build 0)  -->
<!DOCTYPE svg PUBLIC "-//W3C//DTD SVG 1.1//EN" "http://www.w3.org/Graphics/SVG/1.1/DTD/svg11.dtd">
<svg version="1.1" id="Ebene_1" xmlns="http://www.w3.org/2000/svg" xmlns:xlink="http://www.w3.org/1999/xlink" x="0px" y="0px"
	 width="418px" height="290.675px" viewBox="-142.387 -99.015 418 290.675" enable-background="new -142.387 -99.015 418 290.675"
	 xml:space="preserve">
<g>
	<g>
		<path d="M5.022,89.113c0,3.002-2,4.191-3.583,4.191c-2.08,0-3.104-1.453-3.104-3.663V77.027H-4.62v13.867
			c0,3.102,1.732,4.688,4.902,4.688c1.914,0,3.648-0.894,4.624-2.542h0.116v2.177h3.135c-0.116-1.255-0.181-2.508-0.181-3.794
			V77.027H5.022V89.113L5.022,89.113z"/>
		<path d="M26.155,95.219V82.607c0-3.596-0.975-5.942-4.868-5.942c-2.347,0-3.717,0.627-4.87,2.706h-0.148v-2.344h-3.141
			c0.117,1.255,0.181,2.504,0.181,3.765v14.425h2.96V84.451c0-2.505,0.475-5.38,3.711-5.38c2.526,0,3.218,1.586,3.218,3.533v12.612
			h2.957V95.219z"/>
		<path d="M40.684,85.383c0,3.662,0,7.792-3.32,7.792c-3.711,0-3.711-3.964-3.711-6.703c0-4.886,0.446-7.397,3.617-7.397
			C40.551,79.074,40.684,82.972,40.684,85.383L40.684,85.383z M40.684,78.839h-0.1c-1.009-1.413-2.279-2.174-4.011-2.174
			c-5.878,0-6.027,5.213-6.027,9.773c0,7.991,2.97,9.146,5.879,9.146c1.912,0,3.185-0.826,4.188-2.513h0.067v2.148h2.954V69.203
			h-2.954v9.636H40.684z"/>
		<polygon points="59.404,95.219 59.404,83.331 68.501,83.331 68.501,80.427 59.404,80.427 59.404,72.073 68.994,72.073 
			68.994,69.203 56.08,69.203 56.08,95.219 		"/>
		<path d="M78.068,93.175c-3.039,0-3.801-2.146-3.801-8.06c0-4.955,1.549-6.041,3.801-6.041c2.277,0,3.831,1.086,3.831,6.041
			C81.899,91.029,81.135,93.175,78.068,93.175L78.068,93.175z M78.068,95.584c3.862,0,6.931-1.151,6.931-9.177
			c0-5.35-0.595-9.739-6.931-9.739c-6.309,0-6.902,4.39-6.902,9.739C71.166,94.432,74.204,95.584,78.068,95.584L78.068,95.584z"/>
		<path d="M92.561,77.029h-2.938v18.19h2.938V84.492c0-2.479,0.861-4.955,4.12-4.955c0.533,0,1.064,0.1,1.593,0.201v-3.07
			c-2.875,0-4.39,0.296-5.612,3.102h-0.101V77.029L92.561,77.029z"/>
		<path d="M113.049,90.035c0-5.547-9.086-5.479-9.086-8.686c0-1.583,1.23-2.474,2.812-2.474c1.879,0,2.875,1.021,2.838,2.933h3.307
			c0.232-3.592-2.539-5.146-5.777-5.146c-5.12,0-6.277,3.039-6.277,4.951c0,5.449,9.084,5.547,9.084,8.785
			c0,1.881-1.388,2.773-3.146,2.773c-2.998,0-3.029-2.447-3.029-3.502h-3.335c-0.134,4.193,2.348,5.912,6.275,5.912
			C110.308,95.584,113.049,94.037,113.049,90.035L113.049,90.035z"/>
		<path d="M129.384,82.867c0.169-4.094-1.95-6.202-5.612-6.202c-6.305,0-6.902,4.39-6.902,9.739c0,8.025,3.041,9.178,6.902,9.178
			c2.05,0,5.85-1.29,5.743-6.409h-3.102c0.096,3.275-1.95,3.999-2.642,3.999c-3.036,0-3.794-2.146-3.794-8.06
			c0-4.955,1.545-6.041,3.794-6.041c1.123,0,2.607,0.794,2.545,3.792h3.067V82.867z"/>
		<path d="M147.113,95.219V82.308c0-4.09-1.717-5.644-4.818-5.644c-2.377,0-3.762,0.56-4.95,2.706h-0.132V69.203h-2.97v26.017h2.97
			V84.523c0-3.067,0.755-5.445,3.694-5.445c2.544,0,3.269,1.586,3.269,3.834v12.311h2.938V95.219z"/>
		<path d="M162.041,89.113c0,3.002-1.979,4.191-3.565,4.191c-2.084,0-3.104-1.453-3.104-3.663V77.027h-2.94v13.867
			c0,3.102,1.717,4.688,4.888,4.688c1.917,0,3.665-0.894,4.625-2.542h0.098v2.177h3.14c-0.104-1.255-0.171-2.508-0.171-3.794V77.027
			h-2.969V89.113L162.041,89.113z"/>
		<path d="M183.171,95.219V82.607c0-3.596-0.961-5.942-4.853-5.942c-2.341,0-3.726,0.627-4.855,2.706h-0.165v-2.344h-3.132
			c0.09,1.255,0.195,2.504,0.195,3.765v14.425h2.937V84.451c0-2.505,0.464-5.38,3.732-5.38c2.508,0,3.2,1.586,3.2,3.533v12.612h2.94
			V95.219z"/>
		<path d="M197.802,86.04c0,2.513,0.095,6.736-3.465,6.736c-2.217,0-3.54-1.383-3.54-7.227c0-2.414,0.103-6.44,3.47-6.44
			C197.963,79.109,197.802,83.331,197.802,86.04L197.802,86.04z M197.74,79.238h-0.101c-0.828-1.746-2.342-2.573-4.224-2.573
			c-1.484,0-5.715,0.525-5.715,8.885c0,5.415,0.956,9.67,5.909,9.67c1.581,0,3.239-0.825,3.992-2.271h0.138v3.794
			c0,1.881-1.127,3.139-3.174,3.139c-1.648,0-2.74-0.925-2.799-2.643h-3.306c-0.265,3.369,2.479,4.887,5.513,4.887
			c3.992,0,6.703-0.988,6.703-5.051V77.032h-2.935v2.206H197.74z"/>
		<path d="M-5.906,38.368v2.242H-3.1v15.966h2.957V40.61H3.54v-2.242h-3.684v-3.102c0-1.47,0.541-2.81,3.684-2.599v-2.125
			c-0.43-0.067-0.797-0.099-1.408-0.099c-2.638,0-5.233,0.709-5.233,4.392v3.533H-5.906L-5.906,38.368z"/>
		<path d="M11.321,31.55H7.936v3.761h3.385V31.55L11.321,31.55z M17.661,31.55h-3.387v3.761h3.387V31.55L17.661,31.55z
			 M16.111,50.467c0,3.002-1.982,4.193-3.568,4.193c-2.094,0-3.1-1.456-3.1-3.664V38.365H6.486v13.883
			c0,3.102,1.734,4.688,4.902,4.688c1.916,0,3.65-0.891,4.625-2.542h0.1v2.18h3.151c-0.115-1.258-0.178-2.507-0.178-3.765V38.365
			h-2.973v12.102H16.111z"/>
		<path d="M27.48,38.368h-2.97v18.208h2.97v-10.73c0-2.462,0.826-4.955,4.114-4.955c0.529,0,1.036,0.118,1.584,0.187v-3.07
			c-2.891,0-4.41,0.326-5.633,3.103H27.48V38.368L27.48,38.368z"/>
		<path d="M45.492,44.395h3.533c3.385,0,5.94,0.722,5.94,4.886c0,1.881-1.251,4.426-4.787,4.426h-4.686V44.395L45.492,44.395z
			 M45.492,33.426h4.686c2.776,0,3.995,1.77,3.995,3.93c0,2.529-1.254,4.114-3.843,4.145h-4.838V33.426L45.492,33.426z
			 M50.541,56.576c2.952,0,7.821-0.625,7.821-7.295c0-3.582-1.631-5.829-5.342-6.259v-0.178c3.369-0.759,4.471-2.925,4.471-6.164
			c0-0.507-0.133-2.058-1.041-3.467c-0.973-1.431-2.195-2.668-5.81-2.668h-8.466v26.033h8.367V56.576z"/>
		<path d="M66.06,38.368h-2.954v18.208h2.954V38.368L66.06,38.368z M62.923,33.708h3.322v-3.166h-3.322V33.708L62.923,33.708z"/>
		<polygon points="74.428,30.542 71.459,30.542 71.459,56.576 74.428,56.576 		"/>
		<path d="M89.183,46.736c0,3.662,0,7.793-3.334,7.793c-3.7,0-3.7-3.961-3.7-6.705c0-4.869,0.431-7.396,3.602-7.396
			C89.019,40.428,89.183,44.326,89.183,46.736L89.183,46.736z M89.183,40.21h-0.136c-0.984-1.443-2.239-2.206-3.992-2.206
			c-5.874,0-6.008,5.23-6.008,9.772c0,8.007,2.94,9.161,5.876,9.161c1.919,0,3.168-0.825,4.199-2.514h0.061v2.151h2.938V30.542
			h-2.938V40.21L89.183,40.21z"/>
		<path d="M107.313,50.467c0,3.002-1.983,4.193-3.564,4.193c-2.086,0-3.106-1.456-3.106-3.664V38.365h-2.943v13.883
			c0,3.102,1.716,4.688,4.886,4.688c1.916,0,3.64-0.891,4.625-2.542h0.104v2.18h3.133c-0.097-1.258-0.169-2.507-0.169-3.765V38.365
			h-2.964V50.467L107.313,50.467z"/>
		<path d="M128.444,56.576V43.962c0-3.612-0.959-5.957-4.852-5.957c-2.35,0-3.734,0.657-4.889,2.706h-0.141v-2.345h-3.132
			c0.099,1.272,0.168,2.521,0.168,3.798v14.41h2.964V45.79c0-2.473,0.466-5.364,3.734-5.364c2.513,0,3.204,1.586,3.204,3.533v12.614
			h2.942V56.576z"/>
		<path d="M143.076,47.378c0,2.529,0.097,6.755-3.471,6.755c-2.217,0-3.533-1.385-3.533-7.215c0-2.411,0.096-6.454,3.468-6.454
			C143.236,40.464,143.076,44.687,143.076,47.378L143.076,47.378z M143.007,40.61h-0.095c-0.828-1.763-2.348-2.605-4.26-2.605
			c-1.453,0-5.685,0.542-5.685,8.913c0,5.402,0.963,9.658,5.911,9.658c1.58,0,3.237-0.826,3.995-2.275h0.133v3.796
			c0,1.881-1.126,3.139-3.196,3.139c-1.627,0-2.75-0.928-2.775-2.639h-3.307c-0.264,3.362,2.479,4.883,5.518,4.883
			c3.992,0,6.698-0.986,6.698-5.05V38.37h-2.936v2.239H143.007z"/>
		<path d="M-1.181,5.751h3.535c3.383,0,5.943,0.722,5.943,4.868c0,1.914-1.254,4.442-4.785,4.442h-4.692V5.751L-1.181,5.751z
			 M-1.181-5.219h4.692c2.767,0,3.992,1.77,3.992,3.93c0,2.529-1.256,4.114-3.849,4.143h-4.836V-5.219L-1.181-5.219z M3.868,17.947
			c2.959,0,7.828-0.656,7.828-7.328c0-3.564-1.614-5.812-5.35-6.243V4.199c3.368-0.759,4.477-2.925,4.477-6.163
			c0-0.507-0.134-2.059-1.041-3.467C8.809-6.863,7.587-8.1,3.971-8.1h-8.472v26.05h8.369V17.947z"/>
		<path d="M25.636,11.806c0,3.034-1.985,4.224-3.57,4.224c-2.093,0-3.104-1.488-3.104-3.68V-0.28h-2.949v13.897
			c0,3.088,1.732,4.689,4.897,4.689c1.916,0,3.647-0.907,4.623-2.573h0.104v2.21h3.132c-0.099-1.272-0.178-2.523-0.178-3.795V-0.28
			h-2.952v12.086H25.636z"/>
		<path d="M46.766,17.947V5.317c0-3.595-0.976-5.942-4.872-5.942c-2.346,0-3.713,0.643-4.851,2.691h-0.151V-0.28h-3.135
			c0.101,1.273,0.184,2.521,0.184,3.798v14.424h2.952V7.146c0-2.474,0.463-5.364,3.715-5.364c2.528,0,3.204,1.585,3.204,3.533
			v12.629h2.955V17.947z"/>
		<path d="M61.308,8.09c0,3.68,0,7.795-3.316,7.795c-3.714,0-3.714-3.964-3.714-6.706c0-4.87,0.428-7.396,3.601-7.396
			C61.158,1.784,61.308,5.681,61.308,8.09L61.308,8.09z M61.308,1.566h-0.112C60.19,0.121,58.932-0.626,57.2-0.626
			c-5.878,0-6.027,5.214-6.027,9.774c0,8.006,2.954,9.161,5.88,9.161c1.912,0,3.165-0.842,4.172-2.529h0.081v2.166h2.957v-26.05
			h-2.957v9.669H61.308z"/>
		<path d="M71.924,7.562c0.035-5.05,1.586-5.958,3.438-5.958c2.176,0,3.663,0.638,3.663,5.958H71.924L71.924,7.562z M82.16,9.793
			V8.242c0-6.024-1.32-8.865-6.505-8.865c-6.308,0-6.935,4.388-6.935,9.722c0,8.059,3.07,9.21,6.935,9.21
			c3.831,0,6.305-1.849,6.343-5.891H78.76c-0.1,1.842-1.157,3.466-3.168,3.466c-2.312,0-3.668-1.007-3.668-6.095H82.16V9.793z"/>
		<path d="M98.472,12.745c0-5.546-9.107-5.48-9.107-8.685c0-1.598,1.22-2.457,2.803-2.457c1.878,0,2.903,1.004,2.872,2.917h3.271
			c0.261-3.595-2.514-5.148-5.782-5.148c-5.114,0-6.27,3.056-6.27,4.968c0,5.449,9.113,5.514,9.113,8.766
			c0,1.885-1.388,2.777-3.14,2.777c-3.008,0-3.039-2.447-3.039-3.5h-3.365c-0.104,4.19,2.341,5.925,6.274,5.925
			C95.732,18.31,98.472,16.759,98.472,12.745L98.472,12.745z"/>
		<path d="M114.972,17.947V5.681c0-0.694,0.127-2.491,0.994-3.219c0.787-0.643,1.117-0.678,2.243-0.678
			c2.375,0,2.872,1.701,2.872,3.533v12.63h2.967V4.095c0-4.292-3.073-4.721-4.982-4.721c-1.651,0-3.303,0.394-4.323,2.347
			c-0.7-1.669-2.585-2.347-4.263-2.347c-2.111,0-3.664,0.678-4.521,2.625h-0.065V-0.28h-3.172c0.13,1.273,0.201,2.521,0.201,3.798
			v14.424h2.971V5.679c0-0.693,0.131-1.771,0.661-2.679c0.43-0.677,1.686-1.219,2.573-1.219c2.38,0,2.869,1.7,2.869,3.533v12.629
			h2.975V17.947z"/>
		<path d="M132.241-0.276h-2.97v18.223h2.97V-0.276L132.241-0.276z M129.103-4.921h3.302v-3.183h-3.302V-4.921L129.103-4.921z"/>
		<path d="M150.463,17.947V5.317c0-3.595-0.985-5.942-4.889-5.942c-2.347,0-3.693,0.643-4.854,2.691h-0.163V-0.28h-3.141
			c0.133,1.273,0.195,2.521,0.195,3.798v14.424h2.945V7.146c0-2.474,0.497-5.364,3.73-5.364c2.508,0,3.203,1.585,3.203,3.533v12.629
			h2.973V17.947z"/>
		<path d="M158.65-0.276h-2.969v18.223h2.969V-0.276L158.65-0.276z M155.511-4.921h3.299v-3.183h-3.299V-4.921L155.511-4.921z"/>
		<path d="M175.457,12.745c0-5.546-9.119-5.48-9.119-8.685c0-1.598,1.224-2.457,2.838-2.457c1.854,0,2.88,1.004,2.841,2.917h3.273
			c0.264-3.595-2.513-5.148-5.778-5.148c-5.115,0-6.276,3.056-6.276,4.968c0,5.449,9.12,5.514,9.12,8.766
			c0,1.885-1.394,2.777-3.141,2.777c-3.013,0-3.037-2.447-3.037-3.5h-3.372c-0.093,4.19,2.345,5.925,6.281,5.925
			C172.709,18.31,175.457,16.759,175.457,12.745L175.457,12.745z"/>
		<path d="M177.43-0.276v2.241h2.967V14.91c0,2.092,1.286,3.251,4.093,3.251c0.962,0,1.949-0.215,2.909-0.301v-2.258
			c-0.628,0.067-1.122,0.133-1.32,0.133c-2.706,0-2.706-1.475-2.706-2.628V1.965h3.957v-2.241h-3.957v-4.82l-2.976,1.334v3.486
			H177.43L177.43-0.276z"/>
		<path d="M193.001,7.562c0.034-5.05,1.583-5.958,3.438-5.958c2.178,0,3.662,0.638,3.662,5.958H193.001L193.001,7.562z
			 M203.24,9.793V8.242c0-6.024-1.316-8.865-6.504-8.865c-6.309,0-6.933,4.388-6.933,9.722c0,8.059,3.067,9.21,6.933,9.21
			c3.824,0,6.304-1.849,6.338-5.891h-3.234c-0.104,1.842-1.154,3.466-3.169,3.466c-2.313,0-3.67-1.007-3.67-6.095h10.239V9.793z"/>
		<path d="M210.535-0.276h-2.938v18.223h2.938V7.201c0-2.462,0.859-4.955,4.128-4.955c0.528,0,1.054,0.116,1.583,0.187v-3.055
			c-2.873,0-4.389,0.311-5.612,3.087h-0.099V-0.276L210.535-0.276z"/>
		<path d="M222.373-0.276h-2.977v18.223h2.977V-0.276L222.373-0.276z M219.232-4.921h3.303v-3.183h-3.303V-4.921L219.232-4.921z"/>
		<path d="M237.218,11.806c0,3.034-1.97,4.224-3.558,4.224c-2.114,0-3.102-1.488-3.102-3.68V-0.28h-2.971v13.897
			c0,3.088,1.747,4.689,4.914,4.689c1.916,0,3.633-0.907,4.596-2.573h0.12v2.21h3.146c-0.131-1.272-0.2-2.523-0.2-3.795V-0.28
			h-2.945V11.806L237.218,11.806z"/>
		<path d="M257.53,17.947V5.681c0-0.694,0.133-2.491,0.992-3.219c0.789-0.643,1.12-0.678,2.241-0.678
			c2.379,0,2.871,1.701,2.871,3.533v12.63h2.979V4.095c0-4.292-3.073-4.721-4.992-4.721c-1.651,0-3.297,0.394-4.325,2.347
			c-0.692-1.669-2.576-2.347-4.259-2.347c-2.111,0-3.669,0.678-4.52,2.625h-0.103V-0.28h-3.135c0.133,1.273,0.202,2.521,0.202,3.798
			v14.424h2.936V5.679c0-0.693,0.166-1.771,0.695-2.679c0.43-0.677,1.653-1.219,2.578-1.219c2.37,0,2.873,1.7,2.873,3.533v12.629
			h2.966V17.947z"/>
		<polygon fill="#F8D200" points="-38.724,120.987 -27.322,120.987 -27.322,185.402 -38.724,185.402 		"/>
		<polygon fill="#E30613" points="-38.724,56.37 -27.322,56.37 -27.322,120.987 -38.724,120.987 		"/>
		<polygon points="-38.724,-7.815 -27.322,-7.815 -27.322,56.576 -38.724,56.576 		"/>
		<path d="M-103.883,56.59L-103.883,56.59L-103.883,56.59z M-103.881,56.613L-103.881,56.613L-103.881,56.613z M-103.886,56.62
			L-103.886,56.62L-103.886,56.62z M-103.886,56.576L-103.886,56.576L-103.886,56.576z M-74.327,3.082
			c0-3.677-2.658-6.577-3.598-7.396l-0.684,0.158c1.009,1.216,2.77,3.25,2.77,5.957c0,5.317-5.628,9.948-12.049,10.026
			c0.046,0.551,0.043,1.044,0.043,1.453c0,0.76-0.046,1.511-0.142,2.22C-80.693,15.38-74.327,9.447-74.327,3.082L-74.327,3.082z
			 M-84.364,47.131c-3.111,0-3.777-0.331-4.612-0.331c-0.519,0-1.023,0.062-1.023,0.81c0,0.523,0.583,1.281,1.113,1.678
			c0.734-0.732,1.738-0.908,3.352-0.908c0.759,0,1.788,0.169,2.256,0.224c-0.077,0.442-0.157,1.01-0.157,1.851
			c0,0.425,0.015,0.917,0.015,1.433c0,1.842-0.277,2.802-0.915,3.542c0.144,0.109,0.513,0.182,0.73,0.182
			c1.191,0,1.502-0.621,1.502-3.715c0-0.922,0.066-1.781,0.066-2.016c1.655,1.263,3.356,3.533,3.356,5.164
			c0.543-0.259,1.182-1.078,1.182-1.706c0-1.12-1.857-2.769-3.849-4.771c0.283-0.062,1.023-0.284,1.626-0.284
			c1.554,0,2.805,0.267,3.542,1.123c0.281-0.318,0.533-1.252,0.533-1.792c0-0.935-0.539-0.905-0.927-0.905
			c-1.664,0-3.698,0.253-5.171,0.507c-0.521-0.72-3.92-5.313-4.791-7.75c-0.25-0.096-0.447-0.163-0.877-0.163
			c-0.811,0-1.023,0.57-1.23,1.35C-86.767,42.926-84.971,45.379-84.364,47.131L-84.364,47.131z M-102.927,40.653
			c-0.205-0.78-0.415-1.35-1.228-1.35c-0.415,0-0.61,0.063-0.87,0.163c-0.879,2.438-4.275,7.033-4.798,7.75
			c-1.468-0.254-3.507-0.507-5.17-0.507c-0.387,0-0.926-0.03-0.926,0.905c0,0.54,0.249,1.474,0.536,1.792
			c0.731-0.857,1.982-1.123,3.538-1.123c0.602,0,1.338,0.222,1.621,0.284c-1.992,2.003-3.848,3.654-3.848,4.771
			c0,0.628,0.639,1.447,1.184,1.706c0-1.634,1.703-3.902,3.353-5.164c0,0.234,0.088,1.094,0.088,2.016
			c0,3.094,0.295,3.715,1.483,3.715c0.213,0,0.586-0.066,0.731-0.182c-0.634-0.74-0.918-1.697-0.918-3.542
			c0-0.516,0.021-1.008,0.021-1.433c0-0.841-0.09-1.41-0.147-1.851c0.451-0.06,1.48-0.224,2.24-0.224
			c1.612,0,2.616,0.179,3.353,0.908c0.531-0.396,1.112-1.151,1.112-1.678c0-0.748-0.504-0.81-1.021-0.81
			c-0.834,0-1.496,0.331-4.614,0.331C-106.59,45.379-104.801,42.926-102.927,40.653L-102.927,40.653z M-115.724,1.799
			c0-2.707,1.761-4.741,2.772-5.973l-0.679-0.142c-0.945,0.818-3.602,3.72-3.602,7.396c0,6.405,6.464,12.378,13.805,12.421
			c-0.071-0.689-0.115-1.429-0.115-2.223c0-0.501,0.017-0.983,0.058-1.448C-109.978,11.83-115.724,7.178-115.724,1.799
			L-115.724,1.799z M-95.959-3.143c0.326-0.768,0.787-1.688,0.787-2.695c0-2.782-2.312-4.109-5.405-4.109
			c-1.585,0-2.387,0.5-2.387,1.021c0,0.521,0.514,1.66,0.718,1.993c0.572-0.25,1.614-0.543,2.213-0.543
			C-97.91-7.476-96.327-5.096-95.959-3.143L-95.959-3.143z M-94.448-6.718c1.82,0.352,3.044-1.957,1.324-2.367
			c0.235,0.763-0.921,1.306-0.921,1.306s-0.439-1.017,0.138-1.599c-1.048-0.522-1.323,0.102-1.343,0.756
			C-94.839-8.059-94.561-7.422-94.448-6.718L-94.448-6.718z M-88.599,9.106c0.298,0.033,0.564,0.048,0.867,0.048
			c5.083,0,10.133-3.293,10.133-7.516c0-2.241-1.023-3.814-2.267-5.555c-0.737,0.108-1.396,0.192-1.928,0.192
			c-2.308,0-3.553-1.247-3.633-2.457c0-1.081,0.877-1.925,2.258-1.925c2.141,0,6.042,2.016,9.97,2.016
			c-0.388,0.284-1.026,0.603-1.803,0.881c2.308,2.081,3.847,4.857,4.439,7.826l6.009,9.652c1.025,1.606,3.167,4.766,6.379,7.244
			c-3.893,0-6.478,0.084-9.776-5.131l-3.087-4.936c-0.227,0.633-0.502,1.272-0.836,1.877l6.135,9.826
			c1.034,1.62,3.135,4.776,6.381,7.247c-3.898,0-6.476,0.103-9.777-5.117l-5.285-8.457c-0.396,0.417-0.809,0.828-1.264,1.222
			l7.475,11.936c1.024,1.629,3.133,4.754,6.368,7.244c-3.897,0-6.481,0.101-9.78-5.118l-7.264-11.643
			c-0.475,0.315-0.972,0.596-1.48,0.883l8.879,14.207c1.018,1.624,3.127,4.752,6.376,7.244c-3.893,0-6.494,0.081-9.787-5.135
			l-9.128-14.612c-0.544,0.207-1.097,0.405-1.655,0.586l10.331,16.521c1.001,1.598,3.158,4.785,6.375,7.241
			c-3.895,0-6.479,0.101-9.77-5.118l-11.018-17.614l-0.324,0.055c-0.306,0.955-0.513,1.852-0.513,2.729
			c0,5.532,3.639,10.417,7.995,14.201c-0.272,0.11-0.768,0.169-1.213,0.169c-0.902,0-1.485-0.065-1.895-0.126
			c1.009,2.303,3.174,5.262,4.281,6.797c1.42-0.25,3.504-0.47,4.863-0.47c1.415,0,1.578,0.845,1.578,1.593
			c0,1.293-0.605,2.312-1.31,2.898c-0.26-0.676-0.796-1.546-3.417-1.546l-0.277,0.01c0.774,0.853,3.187,2.797,3.187,4.362
			c0,1.045-1.138,2.602-2.646,2.602c0.102-0.339,0.087-0.651,0.087-0.896c0-1.261-1.125-2.748-2.078-3.766
			c0.023,0.284,0.015,0.25,0.015,0.614c0,3.008-0.262,4.365-2.175,4.365c-0.938,0-1.573-0.501-1.794-0.641
			c1.228-1.142,1.291-2.029,1.291-3.732l-0.011-1.432c-0.003-0.384,0.002-0.912,0.073-1.285c-0.689-0.085-0.955-0.082-1.484-0.082
			c0,0-2.709-0.196-3.353,1.188c-0.737-0.678-1.792-1.615-1.792-2.665c0-0.7,0.313-1.48,1.701-1.48c0.533,0,2.203,0.333,3.589,0.333
			c-0.374-0.843-2.044-3.264-3.473-5.034c-0.216,0.678-0.562,1.423-1.321,2.025c-0.093-1.14-0.766-4.713-2.538-6.807
			c-0.207,1.422-0.479,2.871-0.479,5.936c0,7.431,1.789,12.966,5.587,13.996c-0.486,0.859-1.527,1.634-2.619,1.634
			c-1.388,0-2.148-1.573-2.925-3.035c-0.402,1.074-1.514,3.758-2.62,3.758c-1.12,0-2.236-2.684-2.633-3.758
			c-0.774,1.462-1.535,3.035-2.928,3.035c-1.074,0-2.134-0.774-2.614-1.634c3.793-1.028,5.582-6.562,5.582-13.996
			c0-3.064-0.27-4.51-0.477-5.936c-1.766,2.094-2.443,5.686-2.538,6.807c-0.757-0.602-1.102-1.347-1.32-2.025
			c-1.43,1.77-3.096,4.19-3.475,5.034c1.41,0,3.057-0.333,3.59-0.333c1.387,0,1.708,0.78,1.708,1.48c0,1.05-1.062,1.987-1.799,2.665
			c-0.65-1.383-3.357-1.181-3.357-1.181c-0.53,0-0.797-0.003-1.485,0.079c0.07,0.372,0.079,0.9,0.073,1.288l-0.005,1.433
			c0,1.701,0.057,2.589,1.289,3.731c-0.214,0.138-0.858,0.641-1.795,0.641c-1.909,0-2.174-1.361-2.174-4.366
			c0-0.363-0.009-0.332,0.016-0.613c-0.952,1.012-2.064,2.504-2.064,3.766c0,0.24-0.03,0.556,0.07,0.895
			c-1.501,0-2.644-1.553-2.644-2.602c0-1.565,2.417-3.514,3.186-4.363l-0.277-0.008c-2.623,0-3.161,0.87-3.414,1.545
			c-0.708-0.589-1.309-1.606-1.309-2.898c0-0.748,0.162-1.577,1.576-1.577c1.364,0,3.444,0.201,4.867,0.453
			c1.097-1.538,3.266-4.493,4.278-6.797c-0.405,0.062-0.99,0.126-1.893,0.126c-0.448,0-0.927-0.059-1.213-0.169
			c4.354-3.769,7.989-8.652,7.989-14.2c0-0.875-0.202-1.776-0.513-2.73l-0.318-0.055l-11.017,17.614
			c-3.28,5.219-5.876,5.119-9.774,5.119c3.217-2.456,5.371-5.643,6.375-7.241l10.333-16.521c-0.56-0.181-1.11-0.376-1.658-0.586
			l-9.124,14.612c-3.298,5.216-5.897,5.136-9.772,5.136c3.232-2.492,5.339-5.621,6.361-7.244l8.883-14.207
			c-0.516-0.29-0.998-0.572-1.482-0.883l-7.27,11.637c-3.297,5.219-5.877,5.118-9.775,5.118c3.232-2.489,5.345-5.614,6.36-7.244
			l7.475-11.936c-0.448-0.395-0.867-0.806-1.261-1.222l-5.285,8.457c-3.3,5.22-5.879,5.117-9.775,5.117
			c3.242-2.47,5.345-5.626,6.382-7.247l6.129-9.826c-0.324-0.605-0.602-1.244-0.832-1.877l-3.092,4.936
			c-3.294,5.216-5.878,5.131-9.772,5.131c3.231-2.478,5.353-5.638,6.38-7.244l6.009-9.652c0.585-2.969,2.127-5.745,4.434-7.826
			c-0.771-0.281-1.415-0.6-1.806-0.881c3.933,0,7.833-2.013,9.971-2.013c1.384,0,2.272,0.841,2.272,1.922
			c-0.095,1.21-1.34,2.457-3.65,2.457c-0.527,0-1.191-0.079-1.928-0.192c-1.24,1.743-2.265,3.312-2.265,5.555
			c0,4.223,5.046,7.516,10.141,7.516c0.294,0,0.561-0.016,0.858-0.048c1.006-3.409,3.152-5.645,4.87-7.849
			c-2.063-0.748-4.358-2.705-4.358-3.58c0.272-0.154,4.206,1.098,4.614,1.196c0.078,0.023,0.173,0.029,0.259,0
			c0.49-0.147,0.888-0.84,0.888-0.918c-0.418-0.065-2.895-0.391-4.59-1.004c-1.273-0.463-1.936-1.326-1.936-1.639
			c0.424-0.079,1.989,0.754,4.272,0.754c0.858,0,1.03-0.047,1.867-0.144c-0.593-1.405-1.711-2.595-2.954-2.595
			c-0.514,0-1.617,0.305-2.529,0.774c-0.654-1.011-1.202-2.308-1.202-3.03c0-0.837,0.831-1.823,3.19-1.823
			c0.655,0,1.265,0.051,1.84,0.165c0.47,0.076,0.858,0.19,1.27,0.337c-0.028-0.053-0.046-0.184-0.046-0.291
			c0-0.332,0.288-0.678,1.401-0.678c1.941,0,3.926,0.646,6.358,0.646c0.641,0,1.066-0.017,1.436-0.173
			c-0.159,0.473-0.853,1.198-1.479,1.778c0.388,0.535,1.397,1.804,1.397,3.876c0,3.316-2.186,6.055-2.186,9.407
			C-90.592,6.306-89.052,8.061-88.599,9.106L-88.599,9.106z"/>
	</g>
	<g>
		<path d="M3.267-84.144c0-1.921-0.788-2.951-2.889-2.951c-0.649,0-2.991,0.1-2.991,3.516v5.5c0,3.553,1.032,4.462,2.991,4.462
			c1.478,0,2.486-0.402,2.91-0.726v-4.873H0.28v-1.798h5.071v7.919c-1.315,0.71-2.873,1.211-4.974,1.211
			c-3.452,0-5.114-1.778-5.114-6.286v-5.351c0-3.236,1.662-5.314,5.114-5.314c3.518,0,5.178,1.29,5.053,4.689H3.267z"/>
		<path d="M9.23-72.223v-16.269h8.388v1.801h-6.306v5.233h5.858v1.802h-5.858v5.637h6.447v1.801H9.23V-72.223z"/>
		<path d="M20.348-72.223v-16.269h8.064v1.801h-5.983v5.233h5.678v1.802h-5.678v7.438h-2.081V-72.223z"/>
		<path d="M30.449-78.168v-5.351c0-3.236,1.66-5.314,5.115-5.314c3.453,0,5.114,2.082,5.114,5.314v5.351
			c0,4.508-1.662,6.286-5.114,6.286C32.109-71.882,30.449-73.66,30.449-78.168z M34.657-90.413H32.55v-2.343h2.107V-90.413z
			 M38.555-78.082v-5.5c0-3.415-2.345-3.516-2.992-3.516c-0.647,0-2.994,0.101-2.994,3.516v5.5c0,3.553,1.032,4.462,2.994,4.462
			C37.526-73.619,38.555-74.526,38.555-78.082z M38.634-90.413h-2.121v-2.343h2.121V-90.413z"/>
		<path d="M46.318-79.7v7.477h-2.081v-16.269h5.619c2.889,0,3.898,2.022,3.898,4.044c0,1.921-1.052,3.395-2.971,3.732v0.043
			c1.879,0.289,2.548,0.914,2.667,4.188c0.02,0.705,0.244,3.25,0.548,4.261h-2.162c-0.588-1.132-0.445-3.251-0.629-5.416
			c-0.161-1.979-1.758-2.064-2.447-2.064h-2.443V-79.7z M46.318-81.517h3.113c1.493,0,2.202-1.273,2.202-2.691
			c0-1.172-0.586-2.486-2.183-2.486h-3.132V-81.517z"/>
		<path d="M56.863-88.492h5.013c2.062,0,3.555,0.745,4.365,2.47c0.648,1.377,0.727,4.628,0.727,5.15c0,3.475-0.323,5.478-0.992,6.55
			c-0.885,1.397-2.526,2.098-5.373,2.098h-3.74V-88.492z M58.944-74.022h1.959c2.891,0,3.943-1.088,3.943-4.868v-3.296
			c0-3.292-1.012-4.505-3.175-4.505h-2.728V-74.022z"/>
		<path d="M70.592-72.223v-16.269h8.401v1.801h-6.308v5.233h5.862v1.802h-5.862v5.637h6.431v1.801h-8.524V-72.223z"/>
		<path d="M83.886-79.7v7.477h-2.065v-16.269h5.602c2.906,0,3.899,2.022,3.899,4.044c0,1.921-1.035,3.395-2.954,3.732v0.043
			c1.841,0.289,2.529,0.914,2.631,4.188c0.052,0.705,0.261,3.25,0.583,4.261h-2.178c-0.57-1.132-0.447-3.251-0.611-5.416
			c-0.178-1.979-1.778-2.064-2.479-2.064h-2.427V-79.7z M83.886-81.517h3.111c1.493,0,2.217-1.273,2.217-2.691
			c0-1.172-0.6-2.486-2.2-2.486h-3.128V-81.517z"/>
		<path d="M103.513-88.492v1.801h-4.252v14.468h-2.1v-14.468h-4.281v-1.801H103.513z"/>
		<path d="M116.321-72.223h-2.469l-4.706-16.269h2.259l3.7,14.311h0.045l3.816-14.311h2.104L116.321-72.223z"/>
		<path d="M123.15-78.168v-5.351c0-3.236,1.66-5.314,5.113-5.314c3.451,0,5.115,2.082,5.115,5.314v5.351
			c0,4.508-1.664,6.286-5.115,6.286C124.806-71.882,123.15-73.66,123.15-78.168z M131.238-78.082v-5.5
			c0-3.415-2.347-3.516-2.979-3.516c-0.664,0-3.008,0.101-3.008,3.516v5.5c0,3.553,1.047,4.462,3.008,4.462
			C130.222-73.619,131.238-74.526,131.238-78.082z"/>
		<path d="M138.933-72.223h-1.939v-16.269h3.372l4.081,13.662h0.047l4.16-13.662h3.431v16.269h-2.094v-14.468h-0.042l-4.533,14.468
			h-1.959l-4.482-14.468h-0.044v14.468H138.933z"/>
	</g>
</g>
</svg>
