<?xml version="1.0" encoding="utf-8"?>
<!-- Generator: Adobe Illustrator 16.0.4, SVG Export Plug-In . SVG Version: 6.00 Build 0)  -->
<!DOCTYPE svg PUBLIC "-//W3C//DTD SVG 1.1//EN" "http://www.w3.org/Graphics/SVG/1.1/DTD/svg11.dtd">
<svg version="1.1" id="Ebene_1" xmlns="http://www.w3.org/2000/svg" xmlns:xlink="http://www.w3.org/1999/xlink" x="0px" y="0px"
	 width="1011.968px" height="367.745px" viewBox="0 0 1011.968 367.745" enable-background="new 0 0 1011.968 367.745"
	 xml:space="preserve">
<g>
	<defs>
		<rect id="SVGID_1_" x="15.045" y="11.649" width="981.878" height="344.446"/>
	</defs>
	<clipPath id="SVGID_2_">
		<use xlink:href="#SVGID_1_"  overflow="visible"/>
	</clipPath>
	<path clip-path="url(#SVGID_2_)" fill="#9D9D9C" d="M737.736,339.935c-3.771,1.428-5.525,1.814-7.283,1.814
		c-4.221,0-6.367-3.373-6.367-10.781c0-6.891,2.34-10.398,6.629-10.398c1.889,0,3.122,0.323,7.021,1.688V339.935z M744.103,346.498
		v-46.137h-6.367v18.064c-2.734-1.628-5.853-3.38-9.163-3.38c-6.76,0-11.247,6.367-11.247,16.183c0,9.94,3.904,15.983,10.527,15.983
		c3.058,0,6.564-1.43,10.202-3.51v2.796H744.103z M710.702,346.498v-20.083c0-4.87-0.258-6.367-1.493-8.183
		c-1.364-2.015-3.771-3.187-6.89-3.187c-2.926,0-6.367,1.043-10.851,3.314v-2.6h-6.043v30.737h6.365v-24.437
		c2.797-0.971,5.591-1.491,7.864-1.491c4.68,0,4.68,2.987,4.68,7.21v18.718H710.702z M670.61,340.386c0,0-4.287,1.819-6.756,1.819
		c-2.406,0-4.028-1.561-4.028-4.81c0-4.025,2.205-5.265,10.784-5.845V340.386z M676.85,346.498v-19.105
		c0-5.719-0.327-7.733-1.562-9.485c-1.365-1.95-3.702-2.861-7.342-2.861c-3.316,0-7.477,0.715-12.542,2.211l0.647,4.024
		c3.902-0.711,6.761-1.034,9.036-1.034c5.521,0,5.521,1.884,5.521,6.561v1.041c-5.588,0-10.201,0.259-13.123,1.945
		c-2.468,1.435-4.03,3.834-4.03,7.804c0,6.364,3.704,9.614,7.991,9.614c2.725,0,5.521-1.234,9.422-3.51v2.796H676.85z
		 M646.44,300.361h-6.367v46.137h6.367V300.361z M631.495,346.498v-20.083c0-4.87-0.261-6.367-1.496-8.183
		c-1.364-2.015-3.768-3.187-6.89-3.187c-2.918,0-6.298,1.104-10.521,3.187v-17.871h-6.366v46.137h6.366v-24.437
		c2.789-0.971,5.584-1.491,7.862-1.491c4.678,0,4.678,2.987,4.678,7.21v18.718H631.495z M600.757,344.024l-1.235-3.768
		c-3.183,0.979-6.109,1.561-8.25,1.561c-4.936,0-7.666-3.572-7.666-10.589c0-7.41,2.73-11.049,8.124-11.049
		c2.404,0,3.895,0.194,7.405,0.975l0.973-4.025c-4.287-1.495-7.667-2.083-10.2-2.083c-7.732,0-13.057,6.306-13.057,16.374
		c0,10.269,4.805,15.792,12.214,15.792C592.114,347.211,596.013,346.109,600.757,344.024 M572.558,337.008
		c0-10.981-15.012-6.757-15.012-13.255c0-2.6,1.953-3.966,5.264-3.966c2.277,0,5.072,0.521,7.21,0.974l0.914-4.025
		c-3.379-1.103-6.366-1.622-8.904-1.622c-6.756,0-10.85,3.44-10.85,9.354c0,5.527,4.094,7.41,9.747,8.967
		c4.222,1.17,5.133,2.147,5.133,4.55c0,2.86-2.207,4.419-6.498,4.419c-2.146,0-4.484-0.261-7.602-0.979l-1.041,4.293
		c3.898,0.972,6.627,1.427,9.75,1.427C568.205,347.144,572.558,343.44,572.558,337.008 M548.189,345.198l-0.974-3.899
		c-2.469,0.65-3.897,0.907-5.394,0.907c-1.361,0-2.272-0.389-2.726-1.168c-0.455-0.781-0.519-0.912-0.519-6.11v-14.811h8.447v-4.356
		h-8.447v-8.318h-6.368v8.515l-5.199,0.65v3.51h5.199v16.634c0,4.155,0.195,5.718,0.908,7.082c1.103,2.145,3.314,3.379,6.306,3.379
		C541.951,347.211,544.489,346.625,548.189,345.198 M522.139,346.498V315.76h-6.369v24.431c-2.796,0.978-5.588,1.497-7.864,1.497
		c-4.68,0-4.68-2.99-4.68-7.21V315.76h-6.367v20.275c0,4.416,0.259,6.235,1.562,8.118c1.363,1.955,3.639,3.058,6.952,3.058
		c2.727,0,6.235-1.04,10.718-3.318v2.604H522.139z M484.384,327.718l-12.996,0.52c0.519-5.722,2.988-8.71,7.148-8.71
		C482.435,319.528,484.254,322.13,484.384,327.718 M490.429,331.939v-1.429c0-10.463-4.161-15.465-12.414-15.465
		c-8.513,0-13.578,6.759-13.578,17.086c0,9.493,4.936,15.08,12.474,15.08c3.703,0,6.821-0.846,13.188-3.641l-1.167-3.768
		c-5.002,1.621-7.538,2.146-10.33,2.146c-4.81,0-7.409-2.797-7.409-8.967v-1.043H490.429z M451.508,324.792
		c0,6.306-1.625,11.112-4.42,13.713c-2.468,2.34-5.327,2.99-12.475,2.99h-2.405v-33.467h3.573c6.565,0,9.293,0.715,11.762,3.25
		C450.207,313.943,451.508,318.425,451.508,324.792 M458.651,324.792c0-7.794-2.336-13.969-6.498-17.671
		c-3.311-2.927-7.274-3.968-15.071-3.968h-11.631v43.345h9.875c8.383,0,11.373-0.521,14.944-2.796
		C455.665,340.256,458.651,333.568,458.651,324.792 M399.915,346.498v-20.083c0-4.87-0.26-6.367-1.497-8.183
		c-1.366-2.015-3.767-3.187-6.884-3.187c-2.926,0-6.37,1.043-10.857,3.314v-2.6h-6.041v30.737h6.37v-24.437
		c2.791-0.971,5.587-1.491,7.861-1.491c4.678,0,4.678,2.987,4.678,7.21v18.718H399.915z M365.672,315.76h-6.369v30.732h6.369V315.76
		z M366.255,305.946c0-2.145-1.688-3.827-3.769-3.827c-2.146,0-3.833,1.683-3.833,3.827c0,2.147,1.755,3.836,3.898,3.836
		C364.63,309.782,366.255,308.028,366.255,305.946"/>
	<path clip-path="url(#SVGID_2_)" d="M996.923,281.165v-20.078c0-4.876-0.26-6.369-1.493-8.188
		c-1.365-2.015-3.771-3.187-6.884-3.187c-2.928,0-6.372,1.042-10.855,3.317v-2.599h-6.041v30.733h6.367v-24.431
		c2.797-0.979,5.592-1.496,7.859-1.496c4.68,0,4.68,2.989,4.68,7.21v18.717H996.923z M958.78,262.384l-12.99,0.521
		c0.515-5.719,2.989-8.708,7.143-8.708C956.831,254.197,958.655,256.798,958.78,262.384 M964.826,266.608v-1.432
		c0-10.459-4.16-15.464-12.413-15.464c-8.509,0-13.579,6.759-13.579,17.091c0,9.489,4.943,15.076,12.477,15.076
		c3.704,0,6.823-0.846,13.19-3.642l-1.17-3.769c-5.004,1.628-7.537,2.146-10.328,2.146c-4.81,0-7.41-2.795-7.41-8.967v-1.041
		H964.826z M925.448,274.081c-3.829,1.431-5.391,1.819-7.144,1.819c-4.229,0-6.367-3.312-6.367-10.462
		c0-6.628,2.337-10.2,6.626-10.2c1.88,0,3.121,0.323,6.885,1.691V274.081z M931.815,278.172v-27.741h-6.039v2.791
		c-2.989-1.688-6.305-3.51-9.486-3.51c-6.629,0-11.111,6.437-11.111,15.984c0,9.684,4.026,15.532,10.523,15.532
		c3.056,0,6.367-1.365,9.746-3.312v1.364c0,4.549-0.257,6.303-1.234,7.861c-1.233,2.017-4.025,2.924-8.38,2.924
		c-2.208,0-4.289-0.131-7.669-0.523l-0.519,3.903c4.806,0.974,8.056,1.431,10.981,1.431c4.353,0,7.731-1.173,9.876-3.25
		C931.231,289.028,931.815,286.882,931.815,278.172 M898.552,281.165v-20.078c0-4.876-0.261-6.369-1.495-8.188
		c-1.365-2.015-3.769-3.187-6.891-3.187c-2.925,0-6.367,1.042-10.851,3.317v-2.599h-6.044v30.733h6.368v-24.431
		c2.794-0.979,5.589-1.496,7.861-1.496c4.681,0,4.681,2.989,4.681,7.21v18.717H898.552z M864.306,281.165v-30.733h-6.369v24.432
		c-2.795,0.972-5.588,1.492-7.861,1.492c-4.68,0-4.68-2.988-4.68-7.211v-18.713h-6.367v20.271c0,4.418,0.257,6.235,1.562,8.121
		c1.365,1.951,3.64,3.056,6.95,3.056c2.73,0,6.236-1.043,10.721-3.315v2.601H864.306z M830.45,235.027h-6.366v46.138h6.366V235.027z
		 M815.509,281.165v-19.948c0-5.786-0.197-11.504-7.341-11.504c-3.25,0-7.54,2.145-10.397,3.576
		c-1.173-2.404-3.252-3.576-6.307-3.576c-2.467,0-5.264,0.977-9.614,3.187v-2.468h-5.975v30.733h6.235v-24.431
		c3.704-1.304,4.937-1.689,6.499-1.689c4.286,0,3.96,3.635,3.96,7.86v18.26h6.24v-20.34c0-1.234,0-2.922-0.132-4.026
		c0,0,4.29-1.754,6.63-1.754c4.287,0,3.963,3.635,3.963,7.86v18.26H815.509z M767.296,281.165v-19.948
		c0-5.786-0.199-11.504-7.344-11.504c-3.246,0-7.536,2.145-10.397,3.576c-1.169-2.404-3.245-3.576-6.301-3.576
		c-2.471,0-5.264,0.977-9.62,3.187v-2.468h-5.977v30.733h6.237v-24.431c3.703-1.304,4.939-1.689,6.498-1.689
		c4.292,0,3.963,3.635,3.963,7.86v18.26h6.238v-20.34c0-1.234,0-2.922-0.124-4.026c0,0,4.283-1.754,6.622-1.754
		c4.289,0,3.963,3.635,3.963,7.86v18.26H767.296z M712.846,275.055c0,0-4.291,1.821-6.76,1.821c-2.406,0-4.029-1.561-4.029-4.809
		c0-4.026,2.207-5.265,10.789-5.848V275.055z M719.083,281.165v-19.107c0-5.716-0.326-7.729-1.561-9.484
		c-1.366-1.95-3.702-2.86-7.343-2.86c-3.312,0-7.472,0.719-12.544,2.215l0.654,4.026c3.898-0.716,6.756-1.039,9.032-1.039
		c5.524,0,5.524,1.884,5.524,6.56v1.041c-5.591,0-10.207,0.262-13.126,1.951c-2.469,1.43-4.03,3.833-4.03,7.796
		c0,6.368,3.703,9.617,7.99,9.617c2.731,0,5.526-1.233,9.425-3.51v2.795H719.083z M691.405,271.675
		c0-10.983-15.012-6.757-15.012-13.251c0-2.603,1.944-3.968,5.261-3.968c2.274,0,5.071,0.52,7.212,0.974l0.906-4.026
		c-3.376-1.103-6.367-1.622-8.896-1.622c-6.756,0-10.851,3.44-10.851,9.354c0,5.525,4.095,7.408,9.747,8.967
		c4.221,1.172,5.133,2.146,5.133,4.547c0,2.861-2.211,4.42-6.498,4.42c-2.146,0-4.487-0.262-7.605-0.973l-1.038,4.285
		c3.898,0.979,6.629,1.433,9.748,1.433C687.047,281.815,691.405,278.11,691.405,271.675 M666.256,271.675
		c0-10.983-15.014-6.757-15.014-13.251c0-2.603,1.949-3.968,5.263-3.968c2.281,0,5.067,0.52,7.215,0.974l0.91-4.026
		c-3.376-1.103-6.367-1.622-8.901-1.622c-6.76,0-10.854,3.44-10.854,9.354c0,5.525,4.094,7.408,9.751,8.967
		c4.222,1.172,5.132,2.146,5.132,4.547c0,2.861-2.206,4.42-6.497,4.42c-2.145,0-4.488-0.262-7.603-0.973l-1.042,4.285
		c3.898,0.979,6.626,1.433,9.747,1.433C661.901,281.815,666.256,278.11,666.256,271.675 M641.891,279.864l-0.977-3.897
		c-2.47,0.649-3.898,0.91-5.396,0.91c-1.36,0-2.274-0.392-2.725-1.172c-0.458-0.778-0.523-0.907-0.523-6.106v-14.814h8.451v-4.353
		h-8.451v-8.32h-6.367v8.512l-5.199,0.651v3.51h5.199v16.633c0,4.157,0.196,5.718,0.911,7.084c1.103,2.146,3.315,3.379,6.298,3.379
		C635.651,281.879,638.189,281.294,641.891,279.864 M602.642,240.876c0-1.819-1.429-3.25-3.248-3.25
		c-1.819,0-3.315,1.431-3.315,3.25c0,1.817,1.496,3.313,3.315,3.313C601.212,244.19,602.642,242.694,602.642,240.876
		 M614.796,240.876c0-1.819-1.43-3.25-3.253-3.25c-1.817,0-3.312,1.431-3.312,3.25c0,1.817,1.495,3.313,3.312,3.313
		C613.366,244.19,614.796,242.694,614.796,240.876 M609.989,275.055c0,0-4.29,1.821-6.759,1.821c-2.408,0-4.03-1.561-4.03-4.809
		c0-4.026,2.207-5.265,10.789-5.848V275.055z M616.227,281.165v-19.107c0-5.716-0.327-7.729-1.562-9.484
		c-1.365-1.95-3.701-2.86-7.344-2.86c-3.313,0-7.47,0.719-12.542,2.215l0.652,4.026c3.9-0.716,6.756-1.039,9.033-1.039
		c5.524,0,5.524,1.884,5.524,6.56v1.041c-5.594,0-10.208,0.262-13.125,1.951c-2.478,1.43-4.03,3.833-4.03,7.796
		c0,6.368,3.703,9.617,7.988,9.617c2.73,0,5.525-1.233,9.425-3.51v2.795H616.227z M589.322,279.864l-0.976-3.897
		c-2.468,0.649-3.899,0.91-5.391,0.91c-1.365,0-2.276-0.392-2.73-1.172c-0.454-0.778-0.519-0.907-0.519-6.106v-14.814h8.45v-4.353
		h-8.45v-8.32h-6.368v8.512l-5.198,0.651v3.51h5.198v16.633c0,4.157,0.197,5.718,0.908,7.084c1.104,2.146,3.313,3.379,6.302,3.379
		C583.082,281.879,585.62,281.294,589.322,279.864 M563.267,250.431h-6.366v30.733h6.366V250.431z M563.85,240.619
		c0-2.146-1.685-3.834-3.768-3.834c-2.143,0-3.833,1.688-3.833,3.834c0,2.141,1.755,3.83,3.898,3.83
		C562.226,244.449,563.85,242.694,563.85,240.619 M550.665,271.675c0-10.983-15.014-6.757-15.014-13.251
		c0-2.603,1.949-3.968,5.263-3.968c2.277,0,5.067,0.52,7.214,0.974l0.911-4.026c-3.38-1.103-6.369-1.622-8.902-1.622
		c-6.76,0-10.854,3.44-10.854,9.354c0,5.525,4.094,7.408,9.748,8.967c4.221,1.172,5.136,2.146,5.136,4.547
		c0,2.861-2.21,4.42-6.498,4.42c-2.15,0-4.487-0.262-7.602-0.973l-1.045,4.285c3.902,0.979,6.629,1.433,9.75,1.433
		C546.309,281.815,550.665,278.11,550.665,271.675 M526.879,255.691v-5.652c0,0-0.714-0.065-1.365-0.065
		c-2.921,0-5.458,0.973-8.705,3.379v-2.921h-6.045v30.733h6.369v-23.913c2.794-1.234,5.002-1.624,7.728-1.624
		C525.45,255.627,525.907,255.561,526.879,255.691 M497.898,262.384l-12.996,0.521c0.521-5.719,2.99-8.708,7.149-8.708
		C495.951,254.197,497.769,256.798,497.898,262.384 M503.942,266.608v-1.432c0-10.459-4.158-15.464-12.411-15.464
		c-8.513,0-13.579,6.759-13.579,17.091c0,9.489,4.938,15.076,12.476,15.076c3.706,0,6.824-0.846,13.192-3.642l-1.172-3.769
		c-5.004,1.628-7.537,2.146-10.33,2.146c-4.809,0-7.41-2.795-7.41-8.967v-1.041H503.942z M475.157,250.431h-5.781l-8.189,25.342
		l-7.926-25.342h-6.956l11.05,30.733h6.821L475.157,250.431z M441.563,250.431h-6.367v30.733h6.367V250.431z M442.149,240.619
		c0-2.146-1.691-3.834-3.768-3.834c-2.146,0-3.833,1.688-3.833,3.834c0,2.141,1.755,3.83,3.898,3.83
		C440.525,244.449,442.149,242.694,442.149,240.619 M426.62,281.165v-20.078c0-4.876-0.261-6.369-1.494-8.188
		c-1.365-2.015-3.77-3.187-6.888-3.187c-2.922,0-6.37,1.042-10.851,3.317v-2.599h-6.047v30.733h6.37v-24.431
		c2.795-0.979,5.591-1.496,7.865-1.496c4.678,0,4.678,2.989,4.678,7.21v18.717H426.62z M392.052,263.49v-25.67h-5.784v26.581
		c0,4.223-0.261,6.367-1.104,7.993c-1.365,2.793-4.422,4.222-8.838,4.222c-7.539,0-9.943-3.834-9.943-10.919V237.82h-6.757v25.477
		c0,7.993,0.327,10.133,2.21,12.866c2.469,3.572,7.666,5.778,13.709,5.778c5.525,0,9.946-1.426,12.737-4.091
		C391.4,274.989,392.052,272.456,392.052,263.49"/>
	<path clip-path="url(#SVGID_2_)" d="M905.312,197.053l-12.997,0.519c0.521-5.718,2.99-8.705,7.145-8.705
		C903.359,188.867,905.18,191.467,905.312,197.053 M911.353,201.279v-1.431c0-10.462-4.157-15.465-12.409-15.465
		c-8.516,0-13.583,6.76-13.583,17.086c0,9.49,4.942,15.078,12.473,15.078c3.711,0,6.825-0.846,13.192-3.641l-1.169-3.766
		c-5.003,1.623-7.536,2.143-10.332,2.143c-4.806,0-7.404-2.792-7.404-8.966v-1.039H911.353z M878.085,215.832v-20.078
		c0-4.87-0.261-6.367-1.495-8.187c-1.365-2.014-3.769-3.184-6.886-3.184c-2.929,0-6.306,1.104-10.529,3.184v-17.871h-6.372v46.136
		h6.372V191.4c2.796-0.975,5.588-1.491,7.86-1.491c4.683,0,4.683,2.988,4.683,7.21v18.713H878.085z M846.7,213.362l-1.234-3.768
		c-3.185,0.974-6.106,1.559-8.252,1.559c-4.941,0-7.671-3.572-7.671-10.593c0-7.402,2.729-11.042,8.125-11.042
		c2.403,0,3.898,0.191,7.409,0.973l0.972-4.03c-4.286-1.493-7.67-2.077-10.2-2.077c-7.73,0-13.062,6.303-13.062,16.376
		c0,10.267,4.812,15.788,12.217,15.788C838.059,216.547,841.959,215.444,846.7,213.362 M815.123,185.098h-6.366v30.733h6.366
		V185.098z M815.705,175.286c0-2.144-1.685-3.836-3.768-3.836c-2.147,0-3.834,1.692-3.834,3.836s1.758,3.834,3.898,3.834
		C814.079,179.12,815.705,177.367,815.705,175.286 M799.136,169.696h-6.368v46.136h6.368V169.696z M786.663,214.532l-0.973-3.898
		c-2.475,0.65-3.901,0.908-5.395,0.908c-1.365,0-2.276-0.389-2.73-1.165c-0.458-0.782-0.521-0.912-0.521-6.11v-14.814h8.447v-4.354
		h-8.447v-8.316h-6.366v8.316h-13.581v-5.916c0-4.353,0.844-5.649,4.156-5.649c2.73,0,4.942,0.324,4.942,0.324l0.647-3.965
		c-0.714-0.196-4.286-1.104-7.471-1.104c-3.253,0-5.592,1.104-7.082,3.313c-1.175,1.689-1.496,3.312-1.496,7.86v5.071l-5.391,0.715
		v3.703h5.391v26.38h6.303v-26.38h13.581v16.634c0,4.16,0.193,5.716,0.907,7.081c1.109,2.146,3.316,3.381,6.303,3.381
		C780.427,216.547,782.957,215.963,786.663,214.532 M733.444,209.726c0,0-4.291,1.815-6.759,1.815c-2.404,0-4.03-1.558-4.03-4.808
		c0-4.029,2.208-5.265,10.789-5.844V209.726z M739.681,215.832v-19.101c0-5.718-0.318-7.733-1.562-9.489
		c-1.364-1.949-3.702-2.858-7.34-2.858c-3.311,0-7.472,0.715-12.539,2.208l0.646,4.029c3.898-0.712,6.759-1.039,9.032-1.039
		c5.524,0,5.524,1.886,5.524,6.563v1.04c-5.586,0-10.204,0.257-13.126,1.948c-2.468,1.427-4.03,3.833-4.03,7.798
		c0,6.367,3.704,9.616,7.993,9.616c2.731,0,5.525-1.234,9.425-3.51v2.794H739.681z M709.013,215.832v-20.078
		c0-4.87-0.261-6.367-1.495-8.187c-1.365-2.014-3.768-3.184-6.886-3.184c-2.924,0-6.307,1.104-10.525,3.184v-17.871h-6.37v46.136
		h6.37V191.4c2.788-0.975,5.583-1.491,7.86-1.491c4.675,0,4.675,2.988,4.675,7.21v18.713H709.013z M677.626,213.362l-1.23-3.768
		c-3.187,0.974-6.109,1.559-8.251,1.559c-4.944,0-7.671-3.572-7.671-10.593c0-7.402,2.727-11.042,8.121-11.042
		c2.406,0,3.898,0.191,7.408,0.973l0.978-4.03c-4.292-1.493-7.669-2.077-10.201-2.077c-7.74,0-13.061,6.303-13.061,16.376
		c0,10.267,4.807,15.788,12.211,15.788C668.987,216.547,672.886,215.444,677.626,213.362 M648.782,206.347
		c0-10.98-15.016-6.76-15.016-13.259c0-2.598,1.949-3.961,5.265-3.961c2.272,0,5.067,0.521,7.212,0.975l0.912-4.03
		c-3.38-1.104-6.366-1.627-8.9-1.627c-6.76,0-10.855,3.449-10.855,9.359c0,5.521,4.095,7.409,9.751,8.97
		c4.218,1.167,5.133,2.142,5.133,4.545c0,2.861-2.215,4.422-6.497,4.422c-2.15,0-4.488-0.261-7.604-0.977l-1.041,4.288
		c3.898,0.973,6.624,1.431,9.747,1.431C644.424,216.483,648.782,212.775,648.782,206.347 M620.643,215.832v-20.078
		c0-4.87-0.261-6.367-1.496-8.187c-1.361-2.014-3.768-3.184-6.885-3.184c-2.926,0-6.368,1.039-10.855,3.312v-2.597h-6.04v30.733
		h6.367V191.4c2.795-0.975,5.589-1.491,7.863-1.491c4.676,0,4.676,2.988,4.676,7.21v18.713H620.643z M581.854,197.053l-12.996,0.519
		c0.515-5.718,2.987-8.705,7.144-8.705C579.901,188.867,581.724,191.467,581.854,197.053 M587.896,201.279v-1.431
		c0-10.462-4.159-15.465-12.414-15.465c-8.51,0-13.578,6.76-13.578,17.086c0,9.49,4.937,15.078,12.474,15.078
		c3.707,0,6.824-0.846,13.193-3.641l-1.171-3.766c-5.001,1.623-7.539,2.143-10.331,2.143c-4.81,0-7.409-2.792-7.409-8.966v-1.039
		H587.896z M556.966,206.347c0-10.98-15.01-6.76-15.01-13.259c0-2.598,1.948-3.961,5.264-3.961c2.276,0,5.064,0.521,7.213,0.975
		l0.907-4.03c-3.376-1.104-6.368-1.627-8.901-1.627c-6.759,0-10.854,3.449-10.854,9.359c0,5.521,4.095,7.409,9.75,8.97
		c4.223,1.167,5.134,2.142,5.134,4.545c0,2.861-2.207,4.422-6.498,4.422c-2.146,0-4.484-0.261-7.602-0.977l-1.043,4.288
		c3.9,0.973,6.63,1.431,9.748,1.431C552.609,216.483,556.966,212.775,556.966,206.347 M531.167,206.347
		c0-10.98-15.007-6.76-15.007-13.259c0-2.598,1.949-3.961,5.259-3.961c2.276,0,5.073,0.521,7.217,0.975l0.907-4.03
		c-3.379-1.104-6.367-1.627-8.9-1.627c-6.76,0-10.854,3.449-10.854,9.359c0,5.521,4.095,7.409,9.747,8.97
		c4.229,1.167,5.134,2.142,5.134,4.545c0,2.861-2.208,4.422-6.499,4.422c-2.138,0-4.483-0.261-7.601-0.977l-1.039,4.288
		c3.895,0.973,6.628,1.431,9.747,1.431C526.814,216.483,531.167,212.775,531.167,206.347 M502.645,185.098h-6.367v30.733h6.367
		V185.098z M503.229,175.286c0-2.144-1.688-3.836-3.77-3.836c-2.145,0-3.833,1.692-3.833,3.836s1.755,3.834,3.901,3.834
		C501.603,179.12,503.229,177.367,503.229,175.286 M490.883,185.098h-5.197l-5.654,24.886l-6.108-24.886h-7.214l-6.108,24.886
		l-5.651-24.886h-6.367l7.796,30.733h7.211l6.173-25.276l6.175,25.276h7.212L490.883,185.098z"/>
	<path clip-path="url(#SVGID_2_)" fill="#9D9D9C" d="M431.688,190.362v-5.655c0,0-0.714-0.064-1.365-0.064
		c-2.924,0-5.456,0.977-8.706,3.379v-2.923h-6.044v30.733h6.368V191.92c2.795-1.234,5.004-1.627,7.732-1.627
		C430.257,190.293,430.714,190.232,431.688,190.362 M391.272,175.544c0-1.818-1.431-3.249-3.25-3.249
		c-1.819,0-3.316,1.431-3.316,3.249c0,1.822,1.497,3.317,3.316,3.317C389.841,178.862,391.272,177.367,391.272,175.544
		 M403.42,175.544c0-1.818-1.426-3.249-3.249-3.249c-1.816,0-3.312,1.431-3.312,3.249c0,1.822,1.496,3.317,3.312,3.317
		C401.994,178.862,403.42,177.367,403.42,175.544 M406.606,215.832v-30.733h-6.367v24.432c-2.796,0.977-5.587,1.492-7.861,1.492
		c-4.681,0-4.681-2.988-4.681-7.209v-18.715h-6.368v20.275c0,4.414,0.26,6.237,1.561,8.12c1.365,1.95,3.64,3.054,6.951,3.054
		c2.729,0,6.238-1.041,10.722-3.315v2.6H406.606z M377.626,169.957c-0.975-0.261-4.613-1.172-7.861-1.172
		c-3.25,0-5.589,1.11-7.083,3.317c-1.17,1.689-1.494,3.312-1.494,7.863v5.064l-5.395,0.719v3.703h5.395v26.38h6.3v-26.38h8.577
		v-4.354h-8.577v-5.913c0-4.353,0.843-5.655,4.16-5.655c2.665,0,4.743,0.262,5.327,0.392L377.626,169.957z"/>
	<path clip-path="url(#SVGID_2_)" fill="#9D9D9C" d="M907.65,131.721l-12.996,0.519c0.515-5.714,2.991-8.704,7.144-8.704
		C905.695,123.536,907.518,126.133,907.65,131.721 M913.691,135.943v-1.427c0-10.458-4.155-15.465-12.409-15.465
		c-8.512,0-13.583,6.76-13.583,17.091c0,9.486,4.938,15.072,12.474,15.072c3.708,0,6.827-0.846,13.194-3.641l-1.173-3.765
		c-5.002,1.626-7.535,2.143-10.33,2.143c-4.807,0-7.406-2.793-7.406-8.967v-1.042H913.691z M879.517,104.364h-6.371V150.5h6.371
		V104.364z M863.009,104.364h-6.37V150.5h6.37V104.364z M842.608,131.721l-12.997,0.519c0.52-5.714,2.987-8.704,7.149-8.704
		C840.659,123.536,842.476,126.133,842.608,131.721 M848.648,135.943v-1.427c0-10.458-4.155-15.465-12.408-15.465
		c-8.512,0-13.578,6.76-13.578,17.091c0,9.486,4.936,15.072,12.473,15.072c3.702,0,6.825-0.846,13.191-3.641l-1.169-3.765
		c-5.008,1.626-7.536,2.143-10.331,2.143c-4.814,0-7.409-2.793-7.409-8.967v-1.042H848.648z M818.761,149.201l-0.977-3.896
		c-2.469,0.646-3.895,0.907-5.392,0.907c-1.368,0-2.272-0.392-2.729-1.169c-0.457-0.78-0.519-0.911-0.519-6.105v-14.819h8.447
		v-4.353h-8.447v-8.316h-6.369v8.51l-5.2,0.649v3.51h5.2v16.634c0,4.159,0.194,5.718,0.907,7.083
		c1.104,2.145,3.316,3.379,6.306,3.379C812.523,151.214,815.055,150.63,818.761,149.201 M794.265,141.014
		c0-10.981-15.013-6.76-15.013-13.258c0-2.595,1.95-3.96,5.266-3.96c2.273,0,5.062,0.518,7.213,0.972l0.908-4.028
		c-3.377-1.104-6.367-1.623-8.903-1.623c-6.757,0-10.848,3.445-10.848,9.354c0,5.525,4.091,7.41,9.744,8.971
		c4.223,1.169,5.133,2.142,5.133,4.545c0,2.861-2.212,4.422-6.497,4.422c-2.145,0-4.482-0.262-7.602-0.974l-1.042,4.284
		c3.901,0.977,6.628,1.435,9.746,1.435C789.914,151.154,794.265,147.447,794.265,141.014 M767.947,141.014
		c0-10.981-15.009-6.76-15.009-13.258c0-2.595,1.947-3.96,5.26-3.96c2.275,0,5.072,0.518,7.213,0.972l0.908-4.028
		c-3.371-1.104-6.366-1.623-8.896-1.623c-6.757,0-10.852,3.445-10.852,9.354c0,5.525,4.095,7.41,9.748,8.971
		c4.221,1.169,5.129,2.142,5.129,4.545c0,2.861-2.208,4.422-6.497,4.422c-2.145,0-4.484-0.262-7.601-0.974l-1.04,4.284
		c3.897,0.977,6.628,1.435,9.751,1.435C763.592,151.154,767.947,147.447,767.947,141.014 M732.537,143.42
		c-3.833,1.428-5.394,1.815-7.151,1.815c-4.221,0-6.367-3.311-6.367-10.458c0-6.63,2.346-10.205,6.628-10.205
		c1.886,0,3.119,0.327,6.891,1.692V143.42z M738.905,147.512v-27.746h-6.05v2.796c-2.986-1.691-6.296-3.511-9.485-3.511
		c-6.624,0-11.111,6.433-11.111,15.984c0,9.682,4.029,15.529,10.527,15.529c3.058,0,6.367-1.364,9.751-3.314v1.365
		c0,4.553-0.261,6.306-1.233,7.863c-1.234,2.015-4.03,2.926-8.388,2.926c-2.205,0-4.289-0.131-7.667-0.523l-0.515,3.903
		c4.807,0.973,8.052,1.426,10.979,1.426c4.356,0,7.731-1.168,9.879-3.248C738.32,158.363,738.905,156.217,738.905,147.512
		 M704.465,150.5v-20.075c0-4.875-0.258-6.366-1.492-8.189c-1.365-2.015-3.771-3.184-6.891-3.184c-2.927,0-6.367,1.038-10.851,3.314
		v-2.6h-6.045V150.5h6.368v-24.428c2.794-0.98,5.587-1.499,7.863-1.499c4.68,0,4.68,2.991,4.68,7.217v18.71H704.465z M669.052,150.5
		v-30.733h-6.366v24.432c-2.797,0.977-5.592,1.492-7.864,1.492c-4.675,0-4.675-2.988-4.675-7.21v-18.714h-6.367v20.274
		c0,4.415,0.254,6.236,1.552,8.121c1.365,1.949,3.642,3.053,6.957,3.053c2.73,0,6.237-1.038,10.724-3.311v2.596H669.052z
		 M638.123,125.03v-5.655c0,0-0.715-0.062-1.364-0.062c-2.926,0-5.46,0.972-8.709,3.38v-2.927h-6.041V150.5h6.367v-23.912
		c2.793-1.233,5.003-1.626,7.733-1.626C636.694,124.961,637.151,124.9,638.123,125.03 M607.971,131.721l-12.997,0.519
		c0.524-5.714,2.992-8.704,7.151-8.704C606.025,123.536,607.841,126.133,607.971,131.721 M614.015,135.943v-1.427
		c0-10.458-4.158-15.465-12.411-15.465c-8.513,0-13.578,6.76-13.578,17.091c0,9.486,4.937,15.072,12.474,15.072
		c3.704,0,6.82-0.846,13.193-3.641l-1.169-3.765c-5.003,1.626-7.541,2.143-10.333,2.143c-4.81,0-7.408-2.793-7.408-8.967v-1.042
		H614.015z M579.836,119.766h-6.367V150.5h6.367V119.766z M580.424,109.955c0-2.143-1.691-3.834-3.771-3.834
		c-2.146,0-3.833,1.691-3.833,3.834c0,2.142,1.754,3.833,3.902,3.833C578.798,113.788,580.424,112.034,580.424,109.955
		 M563.725,150.5v-20.075c0-4.875-0.26-6.366-1.496-8.189c-1.365-2.015-3.768-3.184-6.889-3.184c-2.927,0-6.368,1.038-10.848,3.314
		v-2.6h-6.048V150.5h6.368v-24.428c2.794-0.98,5.59-1.499,7.863-1.499c4.683,0,4.683,2.991,4.683,7.217v18.71H563.725z
		 M528.31,119.766h-6.368V150.5h6.368V119.766z M528.899,109.955c0-2.143-1.692-3.834-3.769-3.834c-2.15,0-3.841,1.691-3.841,3.834
		c0,2.142,1.757,3.833,3.899,3.833C527.272,113.788,528.899,112.034,528.899,109.955 M505.438,143.94
		c-3.766,1.427-5.521,1.818-7.276,1.818c-4.226,0-6.367-3.38-6.367-10.788c0-6.887,2.338-10.397,6.629-10.397
		c1.883,0,3.118,0.327,7.014,1.692V143.94z M511.806,150.5v-46.136h-6.369v18.067c-2.729-1.623-5.847-3.38-9.16-3.38
		c-6.757,0-11.24,6.367-11.24,16.18c0,9.943,3.898,15.983,10.524,15.983c3.054,0,6.564-1.426,10.203-3.511v2.796H511.806z
		 M481.72,125.03v-5.655c0,0-0.712-0.062-1.363-0.062c-2.925,0-5.457,0.972-8.707,3.38v-2.927h-6.044V150.5h6.367v-23.912
		c2.795-1.233,5.004-1.626,7.733-1.626C480.294,124.961,480.748,124.9,481.72,125.03 M450.662,135.166
		c0,7.863-2.207,11.111-7.409,11.111c-5.133,0-7.538-3.248-7.538-11.241c0-7.667,2.405-11.178,7.476-11.178
		C448.517,123.858,450.662,127.306,450.662,135.166 M457.42,135.1c0-10.332-5.069-16.049-14.229-16.049
		c-8.903,0-14.229,6.11-14.229,16.049c0,10.136,5.196,15.983,14.229,15.983C452.287,151.083,457.42,145.367,457.42,135.1
		 M415.965,135.166c0,7.863-2.211,11.111-7.41,11.111c-5.133,0-7.538-3.248-7.538-11.241c0-7.667,2.405-11.178,7.476-11.178
		C413.819,123.858,415.965,127.306,415.965,135.166 M422.723,135.1c0-10.332-5.071-16.049-14.229-16.049
		c-8.902,0-14.233,6.11-14.233,16.049c0,10.136,5.2,15.983,14.233,15.983C417.589,151.083,422.723,145.367,422.723,135.1
		 M392.312,150.5l-18.973-23.193l18.193-20.144h-7.537l-17.222,19.687v-19.687h-6.757V150.5h6.757v-21.702l17.479,21.702H392.312z"
		/>
	<path clip-path="url(#SVGID_2_)" d="M110.631,165.724c4.756,0,8.607-3.854,8.607-8.606c0-4.753-3.852-8.607-8.607-8.607
		c-4.754,0-8.605,3.854-8.605,8.607C102.026,161.87,105.877,165.724,110.631,165.724"/>
	<path clip-path="url(#SVGID_2_)" d="M107.878,137.267c4.753,0,8.605-3.854,8.605-8.605c0-4.753-3.852-8.608-8.605-8.608
		s-8.605,3.855-8.605,8.608C99.273,133.413,103.125,137.267,107.878,137.267"/>
	<path clip-path="url(#SVGID_2_)" d="M116.485,108.81c4.754,0,8.605-3.854,8.605-8.607c0-4.755-3.852-8.609-8.605-8.609
		c-4.755,0-8.605,3.854-8.605,8.609C107.88,104.956,111.73,108.81,116.485,108.81"/>
	<path clip-path="url(#SVGID_2_)" d="M134.194,85.897c4.756,0,8.606-3.855,8.606-8.607s-3.85-8.607-8.606-8.607
		c-4.753,0-8.604,3.855-8.604,8.607S129.441,85.897,134.194,85.897"/>
	<path clip-path="url(#SVGID_2_)" d="M160.205,66.388c4.754,0,8.606-3.855,8.606-8.603c0-4.756-3.852-8.612-8.606-8.612
		c-4.752,0-8.605,3.856-8.605,8.612C151.6,62.533,155.452,66.388,160.205,66.388"/>
	<path clip-path="url(#SVGID_2_)" d="M155.654,106.055c4.755,0,8.605-3.855,8.605-8.607s-3.85-8.607-8.605-8.607
		c-4.754,0-8.606,3.855-8.606,8.607S150.9,106.055,155.654,106.055"/>
	<path clip-path="url(#SVGID_2_)" d="M141.348,129.462c4.754,0,8.605-3.855,8.605-8.603c0-4.756-3.852-8.611-8.605-8.611
		c-4.753,0-8.605,3.855-8.605,8.611C132.743,125.607,136.595,129.462,141.348,129.462"/>
	<path clip-path="url(#SVGID_2_)" d="M138.748,159.375c4.753,0,8.605-3.855,8.605-8.607c0-4.751-3.852-8.606-8.605-8.606
		c-4.754,0-8.606,3.855-8.606,8.606C130.142,155.52,133.994,159.375,138.748,159.375"/>
	<path clip-path="url(#SVGID_2_)" d="M179.406,88.497c4.755,0,8.605-3.852,8.605-8.604c0-4.756-3.85-8.61-8.605-8.61
		c-4.754,0-8.605,3.854-8.605,8.61C170.801,84.645,174.652,88.497,179.406,88.497"/>
	<path clip-path="url(#SVGID_2_)" d="M191.418,156.774c4.754,0,8.604-3.853,8.604-8.604c0-4.756-3.851-8.611-8.604-8.611
		c-4.755,0-8.605,3.855-8.605,8.611C182.813,152.921,186.663,156.774,191.418,156.774"/>
	<path clip-path="url(#SVGID_2_)" d="M215.477,138.568c4.753,0,8.606-3.856,8.606-8.607c0-4.752-3.853-8.607-8.606-8.607
		c-4.754,0-8.605,3.855-8.605,8.607C206.871,134.711,210.723,138.568,215.477,138.568"/>
	<path clip-path="url(#SVGID_2_)" d="M226.53,167.176c4.755,0,8.606-3.852,8.606-8.603c0-4.756-3.851-8.611-8.606-8.611
		c-4.753,0-8.604,3.855-8.604,8.611C217.926,163.325,221.777,167.176,226.53,167.176"/>
	<path clip-path="url(#SVGID_2_)" d="M250.934,200.342c4.754,0,8.606-3.855,8.606-8.607c0-4.756-3.853-8.606-8.606-8.606
		c-4.755,0-8.605,3.851-8.605,8.606C242.329,196.487,246.179,200.342,250.934,200.342"/>
	<path clip-path="url(#SVGID_2_)" d="M209.625,77.442c4.754,0,8.604-3.854,8.604-8.604c0-4.755-3.851-8.61-8.604-8.61
		c-4.754,0-8.605,3.855-8.605,8.61C201.02,73.587,204.871,77.442,209.625,77.442"/>
	<path clip-path="url(#SVGID_2_)" d="M193.37,54.685c4.754,0,8.605-3.856,8.605-8.607s-3.852-8.607-8.605-8.607
		c-4.756,0-8.608,3.856-8.608,8.607S188.614,54.685,193.37,54.685"/>
	<path clip-path="url(#SVGID_2_)" d="M155.501,184.736c4.753,0,8.605-3.854,8.605-8.606c0-4.753-3.852-8.607-8.605-8.607
		c-4.756,0-8.606,3.854-8.606,8.607C146.895,180.881,150.745,184.736,155.501,184.736"/>
	<path clip-path="url(#SVGID_2_)" d="M138.287,213.004c4.755,0,8.605-3.855,8.605-8.607c0-4.756-3.85-8.607-8.605-8.607
		c-4.753,0-8.605,3.852-8.605,8.607C129.681,209.149,133.533,213.004,138.287,213.004"/>
	<path clip-path="url(#SVGID_2_)" d="M124.134,187.183c4.756,0,8.606-3.856,8.606-8.607s-3.85-8.607-8.606-8.607
		c-4.753,0-8.605,3.856-8.605,8.607S119.381,187.183,124.134,187.183"/>
	<path clip-path="url(#SVGID_2_)" d="M249.788,46.078c4.753,0,8.605-3.855,8.605-8.607s-3.852-8.607-8.605-8.607
		c-4.755,0-8.605,3.855-8.605,8.607S245.033,46.078,249.788,46.078"/>
	<path clip-path="url(#SVGID_2_)" d="M154.047,249.949c4.754,0,8.606-3.853,8.606-8.604c0-4.755-3.852-8.611-8.606-8.611
		c-4.755,0-8.605,3.856-8.605,8.611C145.442,246.096,149.292,249.949,154.047,249.949"/>
	<path clip-path="url(#SVGID_2_)" d="M242.789,76.792c4.753,0,8.605-3.855,8.605-8.604c0-4.756-3.852-8.611-8.605-8.611
		c-4.755,0-8.607,3.855-8.607,8.611C234.181,72.937,238.034,76.792,242.789,76.792"/>
	<path clip-path="url(#SVGID_2_)" d="M243.438,135.008c4.753,0,8.605-3.854,8.605-8.605c0-4.756-3.852-8.607-8.605-8.607
		c-4.756,0-8.605,3.852-8.605,8.607C234.833,131.155,238.683,135.008,243.438,135.008"/>
	<path clip-path="url(#SVGID_2_)" d="M108.835,73.235c4.755,0,8.607-3.856,8.607-8.607s-3.852-8.607-8.607-8.607
		c-4.754,0-8.605,3.856-8.605,8.607S104.081,73.235,108.835,73.235"/>
	<path clip-path="url(#SVGID_2_)" d="M141.348,33.625c4.754,0,8.605-3.855,8.605-8.606c0-4.752-3.852-8.608-8.605-8.608
		c-4.753,0-8.605,3.856-8.605,8.608C132.743,29.77,136.595,33.625,141.348,33.625"/>
	<path clip-path="url(#SVGID_2_)" d="M88.678,100.853c4.754,0,8.606-3.854,8.606-8.607c0-4.752-3.853-8.606-8.606-8.606
		c-4.755,0-8.605,3.854-8.605,8.606C80.073,96.999,83.923,100.853,88.678,100.853"/>
	<path clip-path="url(#SVGID_2_)" d="M77.623,130.113c4.756,0,8.607-3.852,8.607-8.604c0-4.756-3.851-8.611-8.607-8.611
		c-4.754,0-8.605,3.855-8.605,8.611C69.018,126.261,72.869,130.113,77.623,130.113"/>
	<path clip-path="url(#SVGID_2_)" d="M76.322,160.026c4.754,0,8.605-3.856,8.605-8.608c0-4.751-3.851-8.607-8.605-8.607
		c-4.755,0-8.604,3.856-8.604,8.607C67.718,156.169,71.567,160.026,76.322,160.026"/>
	<path clip-path="url(#SVGID_2_)" d="M86.077,187.03c4.755,0,8.606-3.855,8.606-8.606c0-4.756-3.851-8.607-8.606-8.607
		c-4.755,0-8.606,3.852-8.606,8.607C77.47,183.174,81.321,187.03,86.077,187.03"/>
	<path clip-path="url(#SVGID_2_)" d="M105.584,207.494c4.754,0,8.604-3.855,8.604-8.604c0-4.756-3.851-8.611-8.604-8.611
		c-4.754,0-8.605,3.855-8.605,8.611C96.979,203.638,100.83,207.494,105.584,207.494"/>
	<path clip-path="url(#SVGID_2_)" d="M125.093,239.354c4.753,0,8.604-3.854,8.604-8.604c0-4.755-3.851-8.608-8.604-8.608
		c-4.757,0-8.608,3.854-8.608,8.608C116.485,235.5,120.336,239.354,125.093,239.354"/>
	<path clip-path="url(#SVGID_2_)" d="M127.385,267.969c4.755,0,8.607-3.856,8.607-8.608c0-4.755-3.853-8.606-8.607-8.606
		c-4.754,0-8.606,3.852-8.606,8.606C118.779,264.113,122.631,267.969,127.385,267.969"/>
	<path clip-path="url(#SVGID_2_)" d="M117.633,301.129c4.753,0,8.605-3.854,8.605-8.604c0-4.753-3.852-8.608-8.605-8.608
		c-4.756,0-8.606,3.855-8.606,8.608C109.027,297.275,112.877,301.129,117.633,301.129"/>
	<path clip-path="url(#SVGID_2_)" d="M119.891,330.086c4.753,0,8.605-3.856,8.605-8.608c0-4.751-3.852-8.608-8.605-8.608
		c-4.755,0-8.607,3.857-8.607,8.608C111.283,326.23,115.135,330.086,119.891,330.086"/>
	<path clip-path="url(#SVGID_2_)" d="M150.145,325.19c4.753,0,8.605-3.854,8.605-8.606c0-4.756-3.852-8.607-8.605-8.607
		c-4.754,0-8.605,3.852-8.605,8.607C141.54,321.335,145.39,325.19,150.145,325.19"/>
	<path clip-path="url(#SVGID_2_)" d="M164.108,350.548c4.753,0,8.605-3.853,8.605-8.604c0-4.756-3.852-8.611-8.605-8.611
		c-4.755,0-8.607,3.855-8.607,8.611C155.501,346.696,159.353,350.548,164.108,350.548"/>
	<path clip-path="url(#SVGID_2_)" d="M130.638,356.095c4.754,0,8.605-3.855,8.605-8.606c0-4.753-3.851-8.608-8.605-8.608
		c-4.755,0-8.607,3.855-8.607,8.608C122.031,352.24,125.882,356.095,130.638,356.095"/>
	<path clip-path="url(#SVGID_2_)" d="M87.377,326.49c4.755,0,8.604-3.854,8.604-8.606c0-4.753-3.849-8.606-8.604-8.606
		c-4.754,0-8.605,3.854-8.605,8.606C78.772,322.635,82.623,326.49,87.377,326.49"/>
	<path clip-path="url(#SVGID_2_)" d="M88.027,297.877c4.755,0,8.607-3.854,8.607-8.604c0-4.754-3.852-8.611-8.607-8.611
		c-4.754,0-8.605,3.857-8.605,8.611C79.421,294.023,83.272,297.877,88.027,297.877"/>
	<path clip-path="url(#SVGID_2_)" d="M95.18,236.107c4.756,0,8.605-3.855,8.605-8.607c0-4.755-3.85-8.61-8.605-8.61
		c-4.753,0-8.605,3.855-8.605,8.61C86.574,232.251,90.426,236.107,95.18,236.107"/>
	<path clip-path="url(#SVGID_2_)" d="M72.113,219.542c4.757,0,8.606-3.854,8.606-8.607c0-4.752-3.85-8.606-8.606-8.606
		c-4.753,0-8.605,3.854-8.605,8.606C63.508,215.688,67.36,219.542,72.113,219.542"/>
	<path clip-path="url(#SVGID_2_)" d="M55.857,195.79c4.755,0,8.606-3.854,8.606-8.606s-3.851-8.607-8.606-8.607
		c-4.753,0-8.604,3.855-8.604,8.607S51.104,195.79,55.857,195.79"/>
	<path clip-path="url(#SVGID_2_)" d="M48.361,165.876c4.756,0,8.606-3.854,8.606-8.604c0-4.756-3.85-8.61-8.606-8.61
		c-4.753,0-8.604,3.854-8.604,8.61C39.756,162.022,43.607,165.876,48.361,165.876"/>
	<path clip-path="url(#SVGID_2_)" d="M50.313,132.716c4.753,0,8.604-3.856,8.604-8.608c0-4.751-3.851-8.607-8.604-8.607
		c-4.754,0-8.605,3.856-8.605,8.607C41.708,128.86,45.559,132.716,50.313,132.716"/>
	<path clip-path="url(#SVGID_2_)" d="M98.124,269.268c4.756,0,8.605-3.855,8.605-8.606c0-4.753-3.85-8.607-8.605-8.607
		c-4.753,0-8.606,3.854-8.606,8.607C89.518,265.413,93.371,269.268,98.124,269.268"/>
	<path clip-path="url(#SVGID_2_)" d="M72.113,258.863c4.757,0,8.606-3.854,8.606-8.605c0-4.753-3.85-8.608-8.606-8.608
		c-4.753,0-8.605,3.855-8.605,8.608C63.508,255.008,67.36,258.863,72.113,258.863"/>
	<path clip-path="url(#SVGID_2_)" d="M59.417,284.874c4.754,0,8.604-3.854,8.604-8.606c0-4.753-3.851-8.607-8.604-8.607
		c-4.756,0-8.607,3.854-8.607,8.607C50.81,281.019,54.661,284.874,59.417,284.874"/>
	<path clip-path="url(#SVGID_2_)" d="M34.707,262.767c4.753,0,8.605-3.856,8.605-8.607c0-4.756-3.852-8.61-8.605-8.61
		c-4.754,0-8.606,3.854-8.606,8.61C26.101,258.911,29.953,262.767,34.707,262.767"/>
	<path clip-path="url(#SVGID_2_)" d="M49.356,238.706c4.754,0,8.605-3.854,8.605-8.604c0-4.756-3.852-8.611-8.605-8.611
		c-4.756,0-8.606,3.855-8.606,8.611C40.75,234.851,44.601,238.706,49.356,238.706"/>
	<path clip-path="url(#SVGID_2_)" d="M33.098,210.746c4.756,0,8.605-3.854,8.605-8.606c0-4.753-3.85-8.607-8.605-8.607
		c-4.753,0-8.605,3.854-8.605,8.607C24.493,206.891,28.345,210.746,33.098,210.746"/>
	<path clip-path="url(#SVGID_2_)" d="M23.653,178.235c4.754,0,8.605-3.856,8.605-8.607c0-4.756-3.852-8.612-8.605-8.612
		c-4.756,0-8.605,3.856-8.605,8.612C15.047,174.378,18.897,178.235,23.653,178.235"/>
	<path clip-path="url(#SVGID_2_)" d="M60.88,98.577c4.753,0,8.605-3.855,8.605-8.606c0-4.752-3.852-8.607-8.605-8.607
		c-4.756,0-8.606,3.855-8.606,8.607C52.274,94.721,56.124,98.577,60.88,98.577"/>
	<path clip-path="url(#SVGID_2_)" d="M144.6,293.325c4.754,0,8.605-3.852,8.605-8.604c0-4.756-3.852-8.61-8.605-8.61
		c-4.753,0-8.605,3.854-8.605,8.61C135.994,289.473,139.846,293.325,144.6,293.325"/>
	<path clip-path="url(#SVGID_2_)" d="M166.709,275.121c4.753,0,8.605-3.856,8.605-8.604c0-4.757-3.852-8.61-8.605-8.61
		c-4.756,0-8.607,3.854-8.607,8.61C158.102,271.264,161.953,275.121,166.709,275.121"/>
	<path clip-path="url(#SVGID_2_)" d="M175.162,310.577c4.753,0,8.605-3.855,8.605-8.603c0-4.756-3.852-8.613-8.605-8.613
		c-4.755,0-8.605,3.857-8.605,8.613C166.557,306.721,170.407,310.577,175.162,310.577"/>
	<path clip-path="url(#SVGID_2_)" d="M193.37,288.777c4.754,0,8.605-3.854,8.605-8.607c0-4.757-3.852-8.607-8.605-8.607
		c-4.756,0-8.608,3.851-8.608,8.607C184.762,284.922,188.614,288.777,193.37,288.777"/>
	<path clip-path="url(#SVGID_2_)" d="M197.27,258.556c4.756,0,8.605-3.856,8.605-8.603c0-4.756-3.85-8.612-8.605-8.612
		c-4.753,0-8.606,3.856-8.606,8.612C188.664,254.7,192.516,258.556,197.27,258.556"/>
	<path clip-path="url(#SVGID_2_)" d="M233.684,223.098c4.753,0,8.605-3.854,8.605-8.602c0-4.757-3.852-8.61-8.605-8.61
		s-8.605,3.854-8.605,8.61C225.079,219.244,228.931,223.098,233.684,223.098"/>
	<path clip-path="url(#SVGID_2_)" d="M206.22,213.004c4.755,0,8.605-3.855,8.605-8.607c0-4.756-3.85-8.607-8.605-8.607
		c-4.754,0-8.604,3.852-8.604,8.607C197.616,209.149,201.466,213.004,206.22,213.004"/>
	<path clip-path="url(#SVGID_2_)" d="M225.88,260.165c4.753,0,8.606-3.856,8.606-8.604c0-4.755-3.853-8.61-8.606-8.61
		s-8.605,3.855-8.605,8.61C217.275,256.308,221.127,260.165,225.88,260.165"/>
	<path clip-path="url(#SVGID_2_)" d="M252.542,245.858c4.755,0,8.605-3.853,8.605-8.604c0-4.755-3.85-8.61-8.605-8.61
		c-4.754,0-8.606,3.855-8.606,8.61C243.935,242.005,247.788,245.858,252.542,245.858"/>
	<path clip-path="url(#SVGID_2_)" d="M255.142,167.522c4.756,0,8.605-3.855,8.605-8.607s-3.849-8.608-8.605-8.608
		c-4.754,0-8.604,3.856-8.604,8.608S250.388,167.522,255.142,167.522"/>
	<path clip-path="url(#SVGID_2_)" d="M272.699,218.548c4.753,0,8.605-3.856,8.605-8.604c0-4.757-3.852-8.611-8.605-8.611
		c-4.753,0-8.605,3.854-8.605,8.611C264.094,214.692,267.946,218.548,272.699,218.548"/>
	<path clip-path="url(#SVGID_2_)" d="M280.196,181.484c4.755,0,8.605-3.855,8.605-8.604c0-4.755-3.85-8.61-8.605-8.61
		c-4.756,0-8.604,3.855-8.604,8.61C271.591,177.628,275.44,181.484,280.196,181.484"/>
	<path clip-path="url(#SVGID_2_)" d="M272.049,141.167c4.754,0,8.606-3.852,8.606-8.604c0-4.756-3.852-8.611-8.606-8.611
		c-4.755,0-8.605,3.855-8.605,8.611C263.444,137.315,267.294,141.167,272.049,141.167"/>
	<path clip-path="url(#SVGID_2_)" d="M298.06,157.767c4.754,0,8.606-3.855,8.606-8.604c0-4.756-3.852-8.611-8.606-8.611
		c-4.755,0-8.605,3.855-8.605,8.611C289.455,153.912,293.305,157.767,298.06,157.767"/>
	<path clip-path="url(#SVGID_2_)" d="M285.056,243.907c4.753,0,8.604-3.854,8.604-8.603c0-4.755-3.851-8.61-8.604-8.61
		c-4.757,0-8.606,3.855-8.606,8.61C276.45,240.052,280.298,243.907,285.056,243.907"/>
	<path clip-path="url(#SVGID_2_)" d="M288.306,274.811c4.754,0,8.605-3.851,8.605-8.604c0-4.756-3.852-8.61-8.605-8.61
		c-4.755,0-8.605,3.854-8.605,8.61C279.701,270.96,283.55,274.811,288.306,274.811"/>
	<path clip-path="url(#SVGID_2_)" d="M281.804,305.681c4.753,0,8.605-3.854,8.605-8.606s-3.852-8.607-8.605-8.607
		c-4.755,0-8.607,3.855-8.607,8.607S277.048,305.681,281.804,305.681"/>
	<path clip-path="url(#SVGID_2_)" d="M266.196,336.586c4.755,0,8.606-3.854,8.606-8.604c0-4.756-3.851-8.61-8.606-8.61
		c-4.753,0-8.605,3.854-8.605,8.61C257.591,332.732,261.443,336.586,266.196,336.586"/>
	<path clip-path="url(#SVGID_2_)" d="M311.714,233.504c4.755,0,8.606-3.856,8.606-8.604c0-4.756-3.851-8.611-8.606-8.611
		c-4.753,0-8.604,3.855-8.604,8.611C303.11,229.648,306.961,233.504,311.714,233.504"/>
	<path clip-path="url(#SVGID_2_)" d="M299.704,204.242c4.755,0,8.604-3.852,8.604-8.604c0-4.754-3.849-8.611-8.604-8.611
		s-8.606,3.857-8.606,8.611C291.097,200.39,294.948,204.242,299.704,204.242"/>
	<path clip-path="url(#SVGID_2_)" d="M319.211,183.778c4.754,0,8.605-3.855,8.605-8.604c0-4.755-3.851-8.611-8.605-8.611
		c-4.755,0-8.605,3.856-8.605,8.611C310.606,179.922,314.456,183.778,319.211,183.778"/>
	<path clip-path="url(#SVGID_2_)" d="M393.811,28.863c4.754,0,8.606-3.854,8.606-8.604c0-4.756-3.852-8.61-8.606-8.61
		c-4.755,0-8.605,3.854-8.605,8.61C385.206,25.008,389.056,28.863,393.811,28.863"/>
	<path clip-path="url(#SVGID_2_)" d="M506.56,50.136c4.755,0,8.604-3.855,8.604-8.607s-3.85-8.607-8.604-8.607
		c-4.754,0-8.604,3.855-8.604,8.607S501.806,50.136,506.56,50.136"/>
	<path clip-path="url(#SVGID_2_)" d="M301.997,343.547c4.753,0,8.605-3.851,8.605-8.603c0-4.755-3.852-8.61-8.605-8.61
		c-4.754,0-8.606,3.855-8.606,8.61C293.391,339.697,297.243,343.547,301.997,343.547"/>
	<path clip-path="url(#SVGID_2_)" d="M315.273,307.976c4.755,0,8.604-3.854,8.604-8.605c0-4.753-3.85-8.606-8.604-8.606
		c-4.755,0-8.606,3.854-8.606,8.606C306.667,304.123,310.518,307.976,315.273,307.976"/>
	<path clip-path="url(#SVGID_2_)" d="M419.007,73.459c4.754,0,8.606-3.855,8.606-8.607c0-4.751-3.852-8.607-8.606-8.607
		c-4.755,0-8.605,3.856-8.605,8.607C410.401,69.604,414.251,73.459,419.007,73.459"/>
	<path clip-path="url(#SVGID_2_)" d="M316.917,267.336c4.753,0,8.606-3.855,8.606-8.604c0-4.755-3.853-8.61-8.606-8.61
		s-8.605,3.855-8.605,8.61C308.312,263.481,312.164,267.336,316.917,267.336"/>
	<path clip-path="url(#SVGID_2_)" d="M276.601,85.247c4.755,0,8.605-3.854,8.605-8.606s-3.85-8.608-8.605-8.608
		c-4.754,0-8.606,3.856-8.606,8.608S271.847,85.247,276.601,85.247"/>
	<path clip-path="url(#SVGID_2_)" d="M311.714,47.247c4.755,0,8.606-3.855,8.606-8.607c0-4.755-3.851-8.611-8.606-8.611
		c-4.753,0-8.604,3.856-8.604,8.611C303.11,43.391,306.961,47.247,311.714,47.247"/>
	<path clip-path="url(#SVGID_2_)" d="M316.917,88.497c4.753,0,8.606-3.852,8.606-8.604c0-4.756-3.853-8.61-8.606-8.61
		s-8.605,3.854-8.605,8.61C308.312,84.645,312.164,88.497,316.917,88.497"/>
	<path clip-path="url(#SVGID_2_)" fill="#9D9D9C" d="M171.26,137.267c4.755,0,8.604-3.854,8.604-8.605
		c0-4.757-3.849-8.608-8.604-8.608s-8.605,3.852-8.605,8.608C162.655,133.413,166.505,137.267,171.26,137.267"/>
	<path clip-path="url(#SVGID_2_)" fill="#9D9D9C" d="M191.418,117.109c4.754,0,8.604-3.854,8.604-8.607
		c0-4.752-3.851-8.606-8.604-8.606c-4.755,0-8.605,3.854-8.605,8.606C182.813,113.254,186.663,117.109,191.418,117.109"/>
	<path clip-path="url(#SVGID_2_)" fill="#9D9D9C" d="M217.428,106.055c4.755,0,8.605-3.855,8.605-8.607s-3.85-8.607-8.605-8.607
		c-4.756,0-8.605,3.855-8.605,8.607S212.672,106.055,217.428,106.055"/>
	<path clip-path="url(#SVGID_2_)" fill="#9D9D9C" d="M247.682,104.752c4.755,0,8.605-3.852,8.605-8.604
		c0-4.755-3.85-8.61-8.605-8.61c-4.753,0-8.605,3.855-8.605,8.61C239.077,100.901,242.929,104.752,247.682,104.752"/>
	<path clip-path="url(#SVGID_2_)" fill="#9D9D9C" d="M278.552,113.857c4.755,0,8.605-3.855,8.605-8.604
		c0-4.756-3.85-8.61-8.605-8.61c-4.754,0-8.605,3.854-8.605,8.61C269.946,110.001,273.798,113.857,278.552,113.857"/>
	<path clip-path="url(#SVGID_2_)" fill="#9D9D9C" d="M307.162,128.781c4.757,0,8.606-3.856,8.606-8.607
		c0-4.752-3.85-8.608-8.606-8.608c-4.752,0-8.605,3.856-8.605,8.608C298.557,124.924,302.41,128.781,307.162,128.781"/>
	<path clip-path="url(#SVGID_2_)" d="M351.482,64.457c4.753,0,8.605-3.851,8.605-8.604c0-4.755-3.852-8.61-8.605-8.61
		c-4.755,0-8.605,3.855-8.605,8.61C342.877,60.606,346.727,64.457,351.482,64.457"/>
	<path clip-path="url(#SVGID_2_)" d="M224.582,288.777c4.753,0,8.605-3.854,8.605-8.607c0-4.757-3.852-8.607-8.605-8.607
		c-4.756,0-8.606,3.851-8.606,8.607C215.976,284.922,219.826,288.777,224.582,288.777"/>
	<path clip-path="url(#SVGID_2_)" d="M214.177,314.133c4.754,0,8.606-3.853,8.606-8.604c0-4.756-3.852-8.611-8.606-8.611
		c-4.755,0-8.605,3.855-8.605,8.611C205.572,310.281,209.422,314.133,214.177,314.133"/>
	<path clip-path="url(#SVGID_2_)" d="M192.411,334.945c4.755,0,8.605-3.854,8.605-8.607c0-4.756-3.85-8.609-8.605-8.609
		c-4.754,0-8.605,3.854-8.605,8.609C183.805,331.09,187.657,334.945,192.411,334.945"/>
	<path clip-path="url(#SVGID_2_)" d="M214.827,352.841c4.753,0,8.606-3.852,8.606-8.604c0-4.756-3.853-8.609-8.606-8.609
		c-4.755,0-8.605,3.854-8.605,8.609C206.222,348.99,210.072,352.841,214.827,352.841"/>
	<path clip-path="url(#SVGID_2_)" d="M238.887,329.088c4.755,0,8.605-3.854,8.605-8.604c0-4.755-3.85-8.608-8.605-8.608
		c-4.755,0-8.606,3.854-8.606,8.608C230.281,325.235,234.132,329.088,238.887,329.088"/>
	<path clip-path="url(#SVGID_2_)" d="M253.191,302.432c4.755,0,8.607-3.857,8.607-8.605c0-4.757-3.852-8.611-8.607-8.611
		c-4.753,0-8.606,3.854-8.606,8.611C244.585,298.575,248.438,302.432,253.191,302.432"/>
	<path clip-path="url(#SVGID_2_)" d="M258.393,273.821c4.756,0,8.608-3.856,8.608-8.608c0-4.75-3.852-8.606-8.608-8.606
		c-4.753,0-8.605,3.856-8.605,8.606C249.788,269.964,253.64,273.821,258.393,273.821"/>
</g>
</svg>
