<?xml version="1.0" encoding="utf-8"?>
<!-- Generator: Adobe Illustrator 16.0.4, SVG Export Plug-In . SVG Version: 6.00 Build 0)  -->
<!DOCTYPE svg PUBLIC "-//W3C//DTD SVG 1.1//EN" "http://www.w3.org/Graphics/SVG/1.1/DTD/svg11.dtd">
<svg version="1.1" id="Ebene_1" xmlns="http://www.w3.org/2000/svg" xmlns:xlink="http://www.w3.org/1999/xlink" x="0px" y="0px"
	 width="85.04px" height="85.04px" viewBox="0 0 85.04 85.04" enable-background="new 0 0 85.04 85.04" xml:space="preserve">
<g>
	<path fill="#1F2D54" d="M21.462,41.224c0,0-7.376,5.554-11.808,13.663C5.788,61.965,5.66,73.04,5.66,73.04
		s13.456,2.487,30.967,2.494c4.307,0,8.638-0.21,12.518-0.514c0.172-0.014,0,0,0,0s-0.109-21.203-0.125-20.891l5.062-5.109
		l4.55-4.554c0,0,0.178,0.158,0,0c-2.499-2.227-4.396-3.242-4.396-3.242s-6.411,7.075-17.099,6.88
		C27.263,47.924,21.462,41.224,21.462,41.224z"/>
	<ellipse fill="#1F2D54" cx="37.594" cy="25.644" rx="18.78" ry="18.137"/>
</g>
<g>
	<path fill="#1F2D54" d="M60.499,44.236L50.17,54.545V79.76h29V44.237L60.499,44.236L60.499,44.236z M60.322,47.743v6.643h-6.717
		L60.322,47.743z M76.633,77.222H52.709v-20.3h10.149V46.773h13.774V77.222L76.633,77.222z"/>
	<g>
		<rect x="56.543" y="65.987" fill="#1F2D54" width="16.674" height="2.537"/>
	</g>
	<g>
		<rect x="56.543" y="71.062" fill="#1F2D54" width="16.674" height="2.538"/>
	</g>
	<g>
		<rect x="66.693" y="54.385" fill="#1F2D54" width="6.524" height="2.537"/>
	</g>
	<g>
		<rect x="66.693" y="49.311" fill="#1F2D54" width="6.524" height="2.537"/>
	</g>
	<g>
		<rect x="56.543" y="60.911" fill="#1F2D54" width="16.674" height="2.539"/>
	</g>
</g>
</svg>
