<?xml version="1.0" encoding="utf-8"?>
<!-- Generator: Adobe Illustrator 16.0.4, SVG Export Plug-In . SVG Version: 6.00 Build 0)  -->
<!DOCTYPE svg PUBLIC "-//W3C//DTD SVG 1.1//EN" "http://www.w3.org/Graphics/SVG/1.1/DTD/svg11.dtd">
<svg version="1.1"
	 id="Layer_1" xmlns:sodipodi="http://sodipodi.sourceforge.net/DTD/sodipodi-0.dtd" xmlns:inkscape="http://www.inkscape.org/namespaces/inkscape" xmlns:dc="http://purl.org/dc/elements/1.1/" xmlns:rdf="http://www.w3.org/1999/02/22-rdf-syntax-ns#" xmlns:svg="http://www.w3.org/2000/svg" xmlns:cc="http://creativecommons.org/ns#" inkscape:version="0.48.2 r9819" sodipodi:docname="close Kopie.svg"
	 xmlns="http://www.w3.org/2000/svg" xmlns:xlink="http://www.w3.org/1999/xlink" x="0px" y="0px" width="79.333px"
	 height="89.761px" viewBox="0 0 79.333 89.761" enable-background="new 0 0 79.333 89.761" xml:space="preserve">
<g id="Layer_1_1_" xmlns:sodipodi="http://sodipodi.sourceforge.net/DTD/sodipodi-0.dtd" xmlns:inkscape="http://www.inkscape.org/namespaces/inkscape" xmlns:dc="http://purl.org/dc/elements/1.1/" xmlns:rdf="http://www.w3.org/1999/02/22-rdf-syntax-ns#" xmlns:svg="http://www.w3.org/2000/svg" xmlns:cc="http://creativecommons.org/ns#" inkscape:version="0.48.2 r9819" sodipodi:docname="close Kopie.svg" display="none">
	<g display="inline">
		<path fill="#505D81" d="M13.5,92.3c-0.172,0-0.344-0.043-0.498-0.133c-0.309-0.178-0.5-0.506-0.502-0.862L12.167,9.838
			c-0.001-0.348,0.178-0.672,0.475-0.855c0.161-0.099,0.343-0.149,0.525-0.149c0.155,0,0.31,0.036,0.452,0.108l75.333,38.167
			c0.327,0.166,0.536,0.498,0.549,0.865c0.01,0.367-0.185,0.709-0.5,0.893L14,92.167C13.845,92.255,13.673,92.3,13.5,92.3z"/>
		<g>
			<path fill="#505D81" d="M13.167,9.833L88.5,48L13.5,91.3L13.167,9.833 M13.167,7.833c-0.365,0-0.729,0.1-1.05,0.298
				c-0.593,0.366-0.953,1.014-0.95,1.71L11.5,91.309c0.003,0.715,0.385,1.371,1.003,1.729c0.309,0.176,0.653,0.266,0.997,0.266
				c0.345,0,0.69-0.09,1-0.268l75-43.304c0.637-0.364,1.02-1.052,0.998-1.787c-0.021-0.733-0.439-1.397-1.095-1.729L14.07,8.049
				C13.786,7.905,13.476,7.833,13.167,7.833L13.167,7.833z"/>
		</g>
	</g>
	
		<polyline display="inline" fill="none" stroke="#212E52" stroke-width="17" stroke-linecap="round" stroke-linejoin="round" stroke-miterlimit="10" points="
		16.833,10.439 81.833,49.5 16.833,88.261 	"/>
</g>
<polyline fill="none" stroke="#505D81" stroke-width="17" stroke-linecap="round" stroke-linejoin="round" stroke-miterlimit="10" points="
	14.666,8.5 64.667,45.021 14.666,81.261 "/>
</svg>
