<?xml version="1.0" encoding="utf-8"?>
<!-- Generator: Adobe Illustrator 16.0.4, SVG Export Plug-In . SVG Version: 6.00 Build 0)  -->
<!DOCTYPE svg PUBLIC "-//W3C//DTD SVG 1.1//EN" "http://www.w3.org/Graphics/SVG/1.1/DTD/svg11.dtd">
<svg version="1.1" id="Layer_1" xmlns="http://www.w3.org/2000/svg" xmlns:xlink="http://www.w3.org/1999/xlink" x="0px" y="0px"
	 width="85.039px" height="85.039px" viewBox="7.48 7.48 85.039 85.039" enable-background="new 7.48 7.48 85.039 85.039"
	 xml:space="preserve">
<g>
	<path fill="#FFFFFF" d="M69.318,32.003c-14-9.765-28.94-6.686-28.94-6.686C24.848,28.239,18.043,43.684,17.672,50
		c-0.279,4.734,5.63,22.854,25.059,25.062c10.353,1.177,22.088-2.114,25.647-3.647c0.941-0.405,11.338,2.414,12.705,0.235
		c1.008-1.604-7.093-6.613-6.117-8.588c2.332-4.719,4.3-11.105,4.297-13.062C79.255,44.609,74.573,35.668,69.318,32.003z"/>
	<g id="XMLID_21_">
		<g id="XMLID_22_">
			<g id="XMLID_23_">
				<g id="XMLID_24_">
					<g id="XMLID_25_">
						<g>
							<g id="XMLID_26_">
								<g>
									<path fill="#1F2D54" d="M28.937,67.199c1.586-6.088,4.89-11.185,9.163-14.325c2.57,2.614,6.148,4.237,10.089,4.237
										c3.935,0,7.52-1.622,10.09-4.237c4.393,3.229,7.762,8.511,9.295,14.821l0.736,2.549l1.725-0.023h7.711l-2.689-4.65
										l-1.971-3.414c0.859-1.134,1.6-2.326,2.215-3.578c1.305-2.652,2.021-5.549,2.021-8.578
										c0-12.867-12.955-23.333-28.888-23.333c-15.927,0-28.89,10.466-28.89,23.333C19.544,56.8,23.167,62.934,28.937,67.199z
										 M77.448,62.303l6.711,11.623H63.597c-4.533,1.986-9.689,3.111-15.163,3.111c-17.971,0-32.593-12.133-32.593-27.037
										c0-14.912,14.622-27.037,32.593-27.037c17.97,0,32.593,12.125,32.593,27.037C81.026,54.43,79.737,58.614,77.448,62.303z"/>
									<path fill="#1F2D54" d="M59.714,42.955c0,2.393-0.732,4.615-1.984,6.459c-0.496,0.734-1.082,1.415-1.742,2.016
										c-2.043,1.896-4.799,3.051-7.799,3.051s-5.749-1.154-7.8-3.051c-0.66-0.601-1.245-1.281-1.749-2.016
										c-1.251-1.844-1.978-4.066-1.978-6.459c0-6.355,5.178-11.519,11.526-11.519C54.538,31.437,59.714,36.6,59.714,42.955z"/>
								</g>
							</g>
						</g>
					</g>
				</g>
			</g>
		</g>
	</g>
</g>
</svg>
