<?xml version="1.0" encoding="utf-8"?>
<!-- Generator: Adobe Illustrator 16.0.4, SVG Export Plug-In . SVG Version: 6.00 Build 0)  -->
<!DOCTYPE svg PUBLIC "-//W3C//DTD SVG 1.1//EN" "http://www.w3.org/Graphics/SVG/1.1/DTD/svg11.dtd">
<svg version="1.1" id="Слой_1" xmlns="http://www.w3.org/2000/svg" xmlns:xlink="http://www.w3.org/1999/xlink" x="0px" y="0px"
	 width="70.867px" height="70.867px" viewBox="0 0 70.867 70.867" enable-background="new 0 0 70.867 70.867" xml:space="preserve">
<path fill="#CC0000" d="M48.318,19.576l6.478-11.254l-5.654-3.238l-6.869,11.973c-2.183-0.656-4.435-1.024-6.839-1.024
	c-15.796,0-28.023,16.818-28.531,17.508l-1.353,1.893l1.353,1.896c0.396,0.507,6.537,8.944,15.647,13.974l-6.466,11.233l5.629,3.247
	l6.875-11.938c2.188,0.652,4.442,1.082,6.847,1.082c15.795,0,28.022-16.87,28.53-17.526l1.385-1.893l-1.385-1.895
	C63.602,33.032,57.412,24.551,48.318,19.576z M10.544,35.433c3.852-4.592,13.703-14.813,24.89-14.813c1.333,0,2.741,0.147,4,0.444
	l-2,3.481c-4.521-0.815-9.261,1.185-11.631,5.333c-2.444,4.147-1.778,9.259,1.186,12.74l-2.593,4.52
	C18.101,43.73,13.063,38.396,10.544,35.433z M35.435,50.248c-1.334,0-2.741-0.148-4-0.443L40.546,34.1l0,0l3.703-6.445l0,0
	l2.297-3.926c6.221,3.407,11.258,8.741,13.775,11.704C56.472,40.026,46.619,50.248,35.435,50.248z"/>
</svg>
