<?xml version="1.0" encoding="utf-8"?>
<!-- Generator: Adobe Illustrator 16.0.4, SVG Export Plug-In . SVG Version: 6.00 Build 0)  -->
<!DOCTYPE svg PUBLIC "-//W3C//DTD SVG 1.1//EN" "http://www.w3.org/Graphics/SVG/1.1/DTD/svg11.dtd">
<svg version="1.1" id="Слой_1" xmlns="http://www.w3.org/2000/svg" xmlns:xlink="http://www.w3.org/1999/xlink" x="0px" y="0px"
	 width="70.867px" height="70.867px" viewBox="0 0 70.867 70.867" enable-background="new 0 0 70.867 70.867" xml:space="preserve">
<g>
	<path fill="#505D81" d="M35.434,16.278c-15.581,0-27.65,16.6-28.157,17.306l-1.343,1.851l1.343,1.85
		c0.507,0.699,12.576,17.3,28.157,17.3c15.576,0,27.649-16.601,28.161-17.3l1.34-1.85l-1.34-1.851
		C63.083,32.878,51.01,16.278,35.434,16.278z M35.435,50.248c-9.576,0-21.219-10.854-24.538-14.814
		c3.319-3.957,14.893-14.813,24.537-14.813c9.575,0,21.067,10.856,24.382,14.813C56.501,39.396,45.073,50.248,35.435,50.248z"/>
	<path fill="#505D81" d="M35.434,25.858c-5.299,0-9.576,4.276-9.576,9.576c0,5.298,4.276,9.576,9.576,9.576
		c5.298,0,9.575-4.277,9.575-9.576C45.009,30.134,40.732,25.858,35.434,25.858z M35.434,38.624c-1.788,0-3.193-1.401-3.193-3.19
		s1.405-3.194,3.193-3.194c1.787,0,3.188,1.405,3.188,3.194S37.221,38.624,35.434,38.624z"/>
</g>
</svg>
