<?xml version="1.0" encoding="utf-8"?>
<!-- Generator: Adobe Illustrator 16.0.4, SVG Export Plug-In . SVG Version: 6.00 Build 0)  -->
<!DOCTYPE svg PUBLIC "-//W3C//DTD SVG 1.1//EN" "http://www.w3.org/Graphics/SVG/1.1/DTD/svg11.dtd">
<svg version="1.1" id="Layer_1" xmlns="http://www.w3.org/2000/svg" xmlns:xlink="http://www.w3.org/1999/xlink" x="0px" y="0px"
	 width="85.039px" height="85.039px" viewBox="0 0 85.039 85.039" enable-background="new 0 0 85.039 85.039" xml:space="preserve">
<g>
	<g>
		<path fill="#1F2D54" d="M58.421,41.971l-10.56-0.003V23.861c0-1.474-1.196-2.666-2.667-2.666s-2.664,1.192-2.664,2.666v20.772
			c0,1.474,1.193,2.666,2.664,2.666l0,0h0.004h13.223c1.469,0,2.664-1.192,2.664-2.666C61.083,43.167,59.89,41.971,58.421,41.971z"
			/>
	</g>
	<path fill="#1F2D54" d="M70.591,18.453c-13.264-13.264-34.848-13.264-48.117,0c-5.854,5.856-9.327,13.521-9.886,21.731L9.122,36.45
		c-1.003-1.078-2.692-1.142-3.771-0.141c-1.081,1.003-1.144,2.693-0.142,3.773l7.722,8.313c0.526,0.565,1.239,0.853,1.957,0.853
		c0.648,0,1.3-0.235,1.814-0.713l8.316-7.723c1.081-1.002,1.142-2.691,0.14-3.771s-2.69-1.145-3.771-0.14l-3.41,3.165
		c0.569-6.738,3.449-13.021,8.269-17.843c11.187-11.184,29.387-11.184,40.571,0c11.185,11.185,11.185,29.387,0,40.571
		c-5.417,5.416-12.622,8.402-20.286,8.402c-7.658,0-14.864-2.982-20.285-8.402c-1.043-1.041-2.732-1.041-3.774,0
		c-1.041,1.043-1.041,2.734,0.001,3.772c6.43,6.427,14.975,9.966,24.059,9.966c9.09,0,17.635-3.539,24.059-9.966
		C83.858,53.306,83.858,31.717,70.591,18.453z"/>
</g>
</svg>
