<?xml version="1.0" encoding="utf-8"?>
<!-- Generator: Adobe Illustrator 16.0.4, SVG Export Plug-In . SVG Version: 6.00 Build 0)  -->
<!DOCTYPE svg PUBLIC "-//W3C//DTD SVG 1.1//EN" "http://www.w3.org/Graphics/SVG/1.1/DTD/svg11.dtd">
<svg version="1.1" id="Ebene_1" xmlns="http://www.w3.org/2000/svg" xmlns:xlink="http://www.w3.org/1999/xlink" x="0px" y="0px"
	 width="20px" height="20px" viewBox="0 0 20 20" enable-background="new 0 0 20 20" xml:space="preserve">
<circle fill="#FFFFFF" stroke="#3377C0" stroke-width="1.5" stroke-miterlimit="10" cx="10" cy="10" r="9.25"/>
<rect x="3.701" y="3.823" fill="none" width="13.447" height="12.049"/>
<g enable-background="new    ">
	<path fill="#3377C0" d="M9.047,12.285v-0.486c0-0.558,0.101-1.021,0.304-1.393c0.203-0.37,0.558-0.753,1.065-1.148
		c0.603-0.477,0.993-0.847,1.167-1.11c0.176-0.264,0.263-0.578,0.263-0.943c0-0.426-0.142-0.753-0.427-0.981
		c-0.283-0.228-0.691-0.342-1.224-0.342c-0.482,0-0.928,0.068-1.339,0.205C8.446,6.223,8.046,6.388,7.655,6.58L7.016,5.242
		c1.03-0.573,2.132-0.86,3.309-0.86c0.994,0,1.782,0.244,2.366,0.73c0.582,0.487,0.875,1.159,0.875,2.016
		c0,0.381-0.057,0.719-0.168,1.016s-0.28,0.579-0.506,0.849c-0.226,0.269-0.615,0.618-1.168,1.05
		c-0.471,0.37-0.787,0.677-0.947,0.92c-0.159,0.243-0.239,0.57-0.239,0.981v0.342H9.047z M8.735,14.712
		c0-0.766,0.373-1.148,1.118-1.148c0.365,0,0.644,0.101,0.837,0.301c0.192,0.2,0.289,0.482,0.289,0.848
		c0,0.36-0.098,0.646-0.293,0.856c-0.195,0.21-0.473,0.315-0.833,0.315c-0.36,0-0.636-0.103-0.829-0.309
		C8.832,15.37,8.735,15.082,8.735,14.712z"/>
</g>
</svg>
