<?xml version="1.0" encoding="utf-8"?>
<!-- Generator: Adobe Illustrator 16.0.4, SVG Export Plug-In . SVG Version: 6.00 Build 0)  -->
<!DOCTYPE svg PUBLIC "-//W3C//DTD SVG 1.1//EN" "http://www.w3.org/Graphics/SVG/1.1/DTD/svg11.dtd">
<svg version="1.1" id="Ebene_1" xmlns="http://www.w3.org/2000/svg" xmlns:xlink="http://www.w3.org/1999/xlink" x="0px" y="0px"
	 width="17px" height="17px" viewBox="1.5 1.5 17 17" enable-background="new 1.5 1.5 17 17" xml:space="preserve">
<circle fill="#FFFFFF" stroke="#3377C0" stroke-width="1.5" stroke-miterlimit="10" cx="10" cy="10" r="7.75"/>
<rect x="4.722" y="4.825" fill="none" width="11.266" height="10.095"/>
<g enable-background="new    ">
	<path fill="#3377C0" d="M9.202,11.915v-0.409c0-0.467,0.084-0.855,0.255-1.165c0.169-0.311,0.467-0.632,0.892-0.963
		c0.507-0.399,0.832-0.709,0.977-0.929c0.149-0.222,0.222-0.484,0.222-0.791c0-0.356-0.118-0.63-0.358-0.821
		c-0.237-0.191-0.577-0.287-1.026-0.287c-0.403,0-0.777,0.057-1.121,0.171c-0.344,0.114-0.68,0.253-1.006,0.414L7.5,6.014
		c0.863-0.481,1.786-0.721,2.773-0.721c0.833,0,1.492,0.205,1.983,0.611c0.487,0.408,0.733,0.972,0.733,1.689
		c0,0.319-0.049,0.602-0.142,0.851c-0.094,0.25-0.236,0.485-0.424,0.711c-0.191,0.226-0.516,0.518-0.979,0.879
		c-0.395,0.31-0.66,0.568-0.795,0.772c-0.132,0.202-0.2,0.477-0.2,0.819v0.288H9.202L9.202,11.915z M8.94,13.947
		c0-0.641,0.313-0.96,0.937-0.96c0.306,0,0.54,0.083,0.702,0.251c0.16,0.168,0.242,0.403,0.242,0.71
		c0,0.302-0.083,0.541-0.246,0.718c-0.162,0.176-0.396,0.263-0.698,0.263s-0.532-0.085-0.694-0.259
		C9.021,14.5,8.94,14.259,8.94,13.947z"/>
</g>
</svg>
