<?xml version="1.0" encoding="utf-8"?>
<!-- Generator: Adobe Illustrator 16.0.4, SVG Export Plug-In . SVG Version: 6.00 Build 0)  -->
<!DOCTYPE svg PUBLIC "-//W3C//DTD SVG 1.1//EN" "http://www.w3.org/Graphics/SVG/1.1/DTD/svg11.dtd">
<svg version="1.1" id="Ebene_1" xmlns="http://www.w3.org/2000/svg" xmlns:xlink="http://www.w3.org/1999/xlink" x="0px" y="0px"
	 width="85.039px" height="85.039px" viewBox="0 0 85.039 85.039" enable-background="new 0 0 85.039 85.039" xml:space="preserve">
<circle opacity="0.3" fill="#BFC6D8" cx="42" cy="42" r="38.268"/>
<g>
	<path fill="none" d="M56.668,12.18c-0.209-0.12-0.338-0.198-0.465-0.265c-4.395-2.25-9.086-2.96-13.953-2.624
		c-3.305,0.228-6.439,1.122-9.236,2.993c-4.105,2.752-6,7.242-4.982,11.818c0.455,2.038,1.39,3.829,2.845,5.254
		c-1.093,0.979-2.202,1.84-3.155,2.846c-3.879,4.099-4.277,10.162-0.984,14.383c1.479,1.891,3.397,3.277,5.554,4.254
		c2.626,1.191,5.315,2.229,8.009,3.259c2.584,0.987,5.217,1.866,7.52,3.448c1.389,0.954,2.492,2.129,2.93,3.807
		c0.988,3.786-0.867,7.114-4.793,8.469c-3.598,1.24-7.237,1.031-10.791-0.1c-2.071-0.66-4.032-1.67-6.084-2.542
		c-0.635,1.519-1.334,3.188-2.081,4.968c0.896,0.5,1.717,1.039,2.599,1.439c4.186,1.917,8.618,2.434,13.164,2.179
		c3.912-0.216,7.572-1.241,10.723-3.675c4.922-3.787,6.102-10.924,2.658-15.921c-0.393-0.575-0.873-1.087-1.15-1.431
		c0.885-0.996,1.725-1.928,2.549-2.864c4.152-4.709,4.477-13.521-2.266-18.037c-2.393-1.606-5.002-2.731-7.693-3.696
		c-2.434-0.873-4.883-1.715-7.291-2.664c-1.012-0.4-1.987-0.963-2.875-1.598c-3.816-2.727-3.48-7.786,0.641-10.037
		c2.943-1.609,6.105-1.62,9.309-1.171c2.621,0.366,5.074,1.242,7.42,2.62C55.414,15.575,56.029,13.909,56.668,12.18z"/>
	<path fill="#1F2D54" d="M55.885,13.86c-0.604,1.635-1.184,3.208-1.78,4.83c-2.216-1.3-4.531-2.128-7.01-2.475
		c-3.024-0.424-6.011-0.413-8.792,1.106c-3.893,2.125-4.211,6.904-0.605,9.48c0.838,0.601,1.76,1.13,2.715,1.508
		c2.275,0.897,4.589,1.693,6.888,2.518c2.542,0.91,5.01,1.972,7.269,3.491c6.366,4.267,6.062,12.589,2.138,17.037
		c-0.778,0.886-1.571,1.764-2.407,2.704c0.262,0.326,0.718,0.809,1.087,1.352c3.251,4.721,2.139,11.463-2.511,15.039
		c-2.975,2.298-6.432,3.268-10.129,3.472c-4.293,0.24-8.481-0.247-12.436-2.06c-0.832-0.376-1.607-0.887-2.454-1.359
		c0.705-1.681,1.367-3.258,1.966-4.691c1.938,0.824,3.79,1.778,5.747,2.401c3.358,1.067,6.796,1.265,10.193,0.095
		c3.706-1.279,5.461-4.424,4.527-7.999c-0.413-1.586-1.456-2.695-2.768-3.597c-2.175-1.494-4.662-2.324-7.103-3.257
		c-2.544-0.973-5.084-1.952-7.564-3.078c-2.036-0.924-3.848-2.233-5.245-4.02c-3.112-3.986-2.735-9.713,0.928-13.583
		c0.9-0.95,1.948-1.766,2.979-2.688c-1.374-1.348-2.257-3.039-2.686-4.964c-0.961-4.322,0.827-8.564,4.705-11.161
		c2.641-1.77,5.602-2.612,8.725-2.828c4.598-0.318,9.03,0.353,13.181,2.479C55.565,13.673,55.688,13.746,55.885,13.86z
		 M53.316,44.809c0.01-2.341-0.952-4.257-2.868-5.521c-1.501-0.996-3.172-1.775-4.84-2.495c-3.245-1.399-6.531-2.69-9.809-4.012
		c-0.198-0.079-0.521-0.097-0.675,0.01c-3.83,2.703-5.454,8.082-0.555,11.32c1.92,1.274,4.119,2.145,6.244,3.08
		c2.949,1.3,5.947,2.496,8.935,3.707c0.229,0.089,0.653,0.017,0.847-0.151C52.42,49.205,53.231,47.167,53.316,44.809z"/>
	<path fill="none" d="M53.951,44.946c-0.092,2.494-0.951,4.652-2.885,6.283c-0.205,0.178-0.654,0.254-0.896,0.159
		c-3.162-1.28-6.336-2.547-9.458-3.923c-2.249-0.988-4.577-1.913-6.61-3.261c-5.187-3.429-3.467-9.124,0.588-11.984
		c0.164-0.114,0.506-0.094,0.715-0.012c3.471,1.397,6.949,2.765,10.385,4.248c1.766,0.763,3.533,1.587,5.123,2.641
		C52.941,40.437,53.959,42.467,53.951,44.946z"/>
</g>
<g>
	<path fill="none" d="M415.887,267.303c-0.205-0.125-0.344-0.199-0.459-0.265c-4.406-2.251-9.088-2.961-13.951-2.628
		c-3.307,0.229-6.451,1.125-9.25,2.996c-4.109,2.754-5.992,7.24-4.98,11.82c0.459,2.035,1.4,3.826,2.846,5.256
		c-1.094,0.977-2.203,1.836-3.145,2.847c-3.879,4.097-4.293,10.155-0.988,14.385c1.471,1.884,3.398,3.276,5.557,4.246
		c2.615,1.192,5.303,2.228,8.01,3.259c2.57,0.987,5.209,1.86,7.504,3.442c1.4,0.964,2.502,2.136,2.939,3.812
		c0.986,3.787-0.873,7.114-4.797,8.471c-3.604,1.238-7.229,1.031-10.787-0.094c-2.064-0.666-4.039-1.676-6.082-2.547
		c-0.643,1.514-1.33,3.19-2.088,4.973c0.895,0.49,1.721,1.041,2.594,1.432c4.199,1.928,8.629,2.434,13.174,2.182
		c3.9-0.207,7.572-1.24,10.717-3.674c4.93-3.787,6.105-10.926,2.662-15.93c-0.391-0.573-0.871-1.078-1.146-1.424
		c0.873-0.986,1.721-1.928,2.547-2.867c4.154-4.706,4.477-13.514-2.271-18.034c-2.387-1.606-5.002-2.731-7.688-3.694
		c-2.434-0.873-4.887-1.711-7.297-2.664c-1.012-0.401-1.975-0.963-2.869-1.595c-3.811-2.729-3.488-7.79,0.643-10.042
		c2.939-1.607,6.105-1.619,9.299-1.171c2.637,0.367,5.086,1.241,7.432,2.619C414.627,270.699,415.244,269.035,415.887,267.303z"/>
	<path fill="#B5BAC0" d="M415.887,267.303c-0.643,1.732-1.26,3.396-1.881,5.108c-2.348-1.377-4.797-2.251-7.432-2.619
		c-3.193-0.448-6.359-0.437-9.299,1.171c-4.133,2.25-4.453,7.311-0.643,10.042c0.895,0.632,1.857,1.194,2.867,1.595
		c2.41,0.953,4.865,1.791,7.299,2.664c2.686,0.963,5.301,2.088,7.688,3.694c6.748,4.521,6.426,13.328,2.271,18.034
		c-0.826,0.939-1.676,1.881-2.547,2.867c0.273,0.346,0.756,0.851,1.146,1.424c3.443,5.004,2.27,12.143-2.662,15.93
		c-3.145,2.434-6.816,3.467-10.717,3.674c-4.545,0.252-8.975-0.254-13.176-2.182c-0.871-0.391-1.697-0.941-2.594-1.432
		c0.758-1.781,1.445-3.459,2.09-4.974c2.043,0.872,4.016,1.882,6.082,2.548c3.557,1.125,7.184,1.332,10.787,0.094
		c3.924-1.355,5.781-4.685,4.795-8.471c-0.436-1.676-1.537-2.848-2.938-3.812c-2.295-1.583-4.934-2.455-7.504-3.442
		c-2.709-1.031-5.395-2.064-8.012-3.259c-2.156-0.97-4.084-2.362-5.555-4.246c-3.305-4.229-2.893-10.288,0.988-14.385
		c0.939-1.011,2.051-1.871,3.145-2.847c-1.445-1.432-2.389-3.223-2.848-5.256c-1.01-4.58,0.873-9.066,4.98-11.82
		c2.801-1.871,5.945-2.766,9.25-2.996c4.865-0.333,9.547,0.376,13.953,2.628C415.545,267.104,415.682,267.178,415.887,267.303z
		 M413.162,300.061c0.018-2.473-1.008-4.504-3.033-5.836c-1.584-1.055-3.352-1.881-5.119-2.648
		c-3.441-1.48-6.906-2.848-10.396-4.247c-0.207-0.081-0.551-0.104-0.713,0.012c-4.043,2.866-5.76,8.56-0.572,11.985
		c2.02,1.354,4.361,2.271,6.609,3.259c3.121,1.378,6.289,2.64,9.455,3.925c0.229,0.092,0.688,0.023,0.895-0.16
		C412.217,304.721,413.08,302.562,413.162,300.061z"/>
	<path fill="none" d="M413.168,300.061c-0.088,2.502-0.951,4.66-2.881,6.289c-0.205,0.185-0.664,0.252-0.895,0.16
		c-3.166-1.285-6.334-2.547-9.455-3.925c-2.248-0.987-4.59-1.905-6.609-3.259c-5.188-3.426-3.471-9.119,0.572-11.985
		c0.162-0.116,0.506-0.093,0.713-0.012c3.488,1.399,6.955,2.767,10.396,4.247c1.768,0.768,3.535,1.594,5.119,2.648
		C412.154,295.557,413.18,297.588,413.168,300.061z"/>
</g>
</svg>
