<?xml version="1.0" encoding="utf-8"?>
<!-- Generator: Adobe Illustrator 16.0.4, SVG Export Plug-In . SVG Version: 6.00 Build 0)  -->
<!DOCTYPE svg PUBLIC "-//W3C//DTD SVG 1.1//EN" "http://www.w3.org/Graphics/SVG/1.1/DTD/svg11.dtd">
<svg version="1.1" id="Слой_1" xmlns="http://www.w3.org/2000/svg" xmlns:xlink="http://www.w3.org/1999/xlink" x="0px" y="0px"
	 width="70.867px" height="70.865px" viewBox="0 0 70.867 70.865" enable-background="new 0 0 70.867 70.865" xml:space="preserve">
<g>
	<path fill="#505D81" d="M52.101,24.32c0-9.185-7.479-16.667-16.666-16.667c-9.186,0-16.667,7.481-16.667,16.667v5.557h-3.704
		v12.964c0,11.259,9.111,20.371,20.371,20.371s20.369-9.11,20.369-20.371V29.876h-3.703V24.32z M22.472,24.32
		c0-7.111,5.853-12.963,12.963-12.963c7.109,0,12.963,5.852,12.963,12.963v5.557h-3.703V24.32c0-5.111-4.147-9.259-9.26-9.259
		s-9.26,4.146-9.26,9.259v5.557H22.47V24.32H22.472z M40.991,24.32v5.557h-11.11V24.32c0-3.037,2.518-5.555,5.555-5.555
		C38.474,18.765,40.991,21.282,40.991,24.32z M52.101,42.84c0,9.185-7.479,16.666-16.666,16.666
		c-9.186,0-16.667-7.479-16.667-16.666v-9.261h33.333V42.84z"/>
	<path fill="#505D81" d="M28.546,52.443c0.37,0.37,0.813,0.52,1.332,0.52c0.518,0,0.963-0.147,1.334-0.52l4.223-4.222l4.223,4.222
		c0.369,0.37,0.814,0.52,1.332,0.52c0.521,0,0.964-0.147,1.335-0.52c0.739-0.74,0.739-1.926,0-2.592l-4.298-4.296l4.224-4.223
		c0.739-0.74,0.739-1.926,0-2.593c-0.74-0.741-1.926-0.741-2.593,0l-4.223,4.222l-4.223-4.222c-0.742-0.741-1.927-0.741-2.594,0
		c-0.741,0.74-0.741,1.926,0,2.593l4.223,4.223l-4.223,4.222C27.88,50.518,27.88,51.702,28.546,52.443z"/>
</g>
</svg>
