<?xml version="1.0" encoding="utf-8"?>
<!-- Generator: Adobe Illustrator 16.0.4, SVG Export Plug-In . SVG Version: 6.00 Build 0)  -->
<!DOCTYPE svg PUBLIC "-//W3C//DTD SVG 1.1//EN" "http://www.w3.org/Graphics/SVG/1.1/DTD/svg11.dtd">
<svg version="1.1" id="Ebene_1" xmlns="http://www.w3.org/2000/svg" xmlns:xlink="http://www.w3.org/1999/xlink" x="0px" y="0px"
	 width="85.04px" height="85.04px" viewBox="-20.021 -15.645 85.04 85.04" enable-background="new -20.021 -15.645 85.04 85.04"
	 xml:space="preserve">
<path fill="#1F2D54" d="M47.493,21.313h-5.004v-9.85c0-11.032-8.956-19.991-19.989-19.991c-11.045,0-19.99,8.958-19.99,19.991v9.85
	h-5.004C-4.438,21.313-6,22.887-6,24.819v33.952c0,1.942,1.563,3.506,3.506,3.506h49.987c1.943,0,3.507-1.563,3.507-3.506V24.82
	C51,22.888,49.437,21.313,47.493,21.313z M26.834,49.59c0.289,1.117-0.604,2.233-1.721,2.233h-5.227
	c-1.194,0-2.01-1.117-1.708-2.233l1.642-6.344c-1.943-0.96-3.283-2.971-3.283-5.361c0-3.372,2.68-6.053,6.041-6.053
	c3.364,0,6.044,2.679,6.044,6.053c0,2.391-1.34,4.401-3.282,5.361L26.834,49.59z M32.506,21.313H12.505v-9.85
	c0-5.517,4.477-9.997,9.995-9.997s10.006,4.479,10.006,9.997V21.313L32.506,21.313z"/>
</svg>
