<?xml version="1.0" encoding="utf-8"?>
<!-- Generator: Adobe Illustrator 16.0.4, SVG Export Plug-In . SVG Version: 6.00 Build 0)  -->
<!DOCTYPE svg PUBLIC "-//W3C//DTD SVG 1.1//EN" "http://www.w3.org/Graphics/SVG/1.1/DTD/svg11.dtd">
<svg version="1.1" id="Your_Icon" xmlns="http://www.w3.org/2000/svg" xmlns:xlink="http://www.w3.org/1999/xlink" x="0px" y="0px"
	 width="85.039px" height="85.04px" viewBox="0 0 85.039 85.04" enable-background="new 0 0 85.039 85.04" xml:space="preserve">
<g>
	<path fill="#1F2D54" d="M66.956,7.37c-5.756-3.617-13.35-1.881-16.965,3.867L27.499,47.041c-1.447,2.285-1.929,4.877-1.389,7.215
		c0.511,2.334,1.997,4.359,4.06,5.652c2.053,1.303,4.524,1.75,6.858,1.204c2.334-0.543,4.457-2.092,5.884-4.379l14.235-22.657
		c0.791-1.263,0.406-2.926-0.849-3.718c-1.264-0.79-2.935-0.405-3.726,0.839L38.351,53.86c-0.791,1.25-1.68,1.791-2.557,2.008
		c-0.878,0.207-1.812,0.068-2.759-0.518c-0.936-0.603-1.466-1.384-1.667-2.261c-0.185-0.883-0.078-1.926,0.695-3.174l22.492-35.799
		c2.036-3.246,6.289-4.21,9.528-2.185c3.23,2.041,4.205,6.31,2.181,9.54L36.999,68.065c-1.891,3-4.515,4.897-7.205,5.682
		c-2.702,0.785-5.402,0.486-7.707-0.965c-2.315-1.451-3.752-3.752-4.224-6.516c-0.463-2.771,0.106-5.961,1.996-8.968L40.8,23.955
		c0.801-1.268,0.416-2.932-0.85-3.723c-1.255-0.79-2.914-0.405-3.714,0.845l-20.94,33.344c-2.546,4.056-3.435,8.589-2.749,12.728
		c0.673,4.123,2.98,7.887,6.674,10.199c3.675,2.315,8.073,2.756,12.085,1.582c4.022-1.177,7.715-3.949,10.254-8.007l29.271-46.595
		C74.441,18.578,72.706,10.982,66.956,7.37z"/>
</g>
</svg>
