<?xml version="1.0" encoding="utf-8"?>
<!-- Generator: Adobe Illustrator 16.0.4, SVG Export Plug-In . SVG Version: 6.00 Build 0)  -->
<!DOCTYPE svg PUBLIC "-//W3C//DTD SVG 1.1//EN" "http://www.w3.org/Graphics/SVG/1.1/DTD/svg11.dtd">
<svg version="1.1" id="Ebene_1" xmlns="http://www.w3.org/2000/svg" xmlns:xlink="http://www.w3.org/1999/xlink" x="0px" y="0px"
	 width="87px" height="87px" viewBox="32.728 64.21 87 87" enable-background="new 32.728 64.21 87 87" xml:space="preserve">
<g>
	<path fill="none" stroke="#1F2D54" stroke-width="4.2449" stroke-miterlimit="10" d="M59.355,100.014
		c5.038,0,9.128,4.089,9.128,9.128c0,5.045-4.09,9.126-9.128,9.126c-5.04,0-9.127-4.081-9.127-9.126
		C50.228,104.103,54.315,100.014,59.355,100.014z"/>
	<path fill="none" stroke="#1F2D54" stroke-width="4.2449" stroke-miterlimit="10" d="M81.665,70.219
		c5.039,0,9.122,4.083,9.122,9.128c0,5.038-4.083,9.124-9.122,9.124c-5.044,0-9.127-4.086-9.127-9.124
		C72.538,74.302,76.621,70.219,81.665,70.219z"/>
	<path fill="none" stroke="#1F2D54" stroke-width="4.2449" stroke-miterlimit="10" d="M93.107,89.868
		c5.038,0,9.121,4.089,9.121,9.127c0,5.039-4.083,9.127-9.121,9.127c-5.051,0-9.137-4.089-9.137-9.127
		C83.97,93.958,88.056,89.868,93.107,89.868z"/>
	<path fill="none" stroke="#1F2D54" stroke-width="4.2449" stroke-miterlimit="10" d="M84.893,126.949
		c5.038,0,9.121,4.085,9.121,9.132c0,5.038-4.083,9.121-9.121,9.121c-5.041,0-9.127-4.083-9.127-9.121
		C75.766,131.034,79.852,126.949,84.893,126.949z"/>
	
		<line fill="none" stroke="#1F2D54" stroke-width="4.2449" stroke-miterlimit="10" x1="64.965" y1="116.333" x2="78.388" y2="129.679"/>
	
		<line fill="none" stroke="#1F2D54" stroke-width="4.2449" stroke-miterlimit="10" x1="64.965" y1="101.467" x2="77.055" y2="87.222"/>
	
		<line fill="none" stroke="#1F2D54" stroke-width="4.2449" stroke-miterlimit="10" x1="68.482" y1="107.272" x2="84.893" y2="102.979"/>
</g>
</svg>
