<?xml version="1.0" encoding="utf-8"?>
<!-- Generator: Adobe Illustrator 16.0.4, SVG Export Plug-In . SVG Version: 6.00 Build 0)  -->
<!DOCTYPE svg PUBLIC "-//W3C//DTD SVG 1.1//EN" "http://www.w3.org/Graphics/SVG/1.1/DTD/svg11.dtd">
<svg version="1.1" id="Layer_1" xmlns="http://www.w3.org/2000/svg" xmlns:xlink="http://www.w3.org/1999/xlink" x="0px" y="0px"
	 width="85.04px" height="85.04px" viewBox="7.48 7.48 85.04 85.04" enable-background="new 7.48 7.48 85.04 85.04"
	 xml:space="preserve">
<g>
	<g>
		<path fill="#1F2D54" d="M61.991,59.419c-12.241,0-22.194-9.957-22.194-22.193c0-12.24,9.953-22.194,22.194-22.194
			c12.237,0,22.194,9.955,22.194,22.194C84.186,49.462,74.229,59.419,61.991,59.419z M61.991,20.452
			c-9.248,0-16.777,7.525-16.777,16.773c0,9.248,7.529,16.772,16.778,16.772c9.248,0,16.769-7.524,16.769-16.772
			C78.761,27.977,71.24,20.452,61.991,20.452z"/>
	</g>
	<g>
		<path fill="#1F2D54" d="M43.135,56.373c2.255,2.174,2.6,5.478,0.771,7.377c0,0-5.807,8.465-8.175,10.92
			c-2.367,2.454-10.615,8.561-10.615,8.561c-2.522,1.707-5.14,1.669-7.395-0.511l0,0c-2.255-2.176-2.221-5.095-0.771-7.374
			c0,0,5.319-9.176,7.764-11.692c2.351-2.42,11.021-7.784,11.021-7.784C37.567,53.971,40.879,54.197,43.135,56.373L43.135,56.373z"
			/>
	</g>
	<g>
		<path fill="#1F2D54" d="M50.27,56.797c-1.363,1.314-3.253,1.565-4.234,0.557l-3.534-3.652c-0.977-1.008-0.667-2.893,0.691-4.208
			l0,0c1.363-1.314,3.253-1.565,4.23-0.555l3.538,3.651C51.938,53.598,51.628,55.482,50.27,56.797L50.27,56.797z"/>
	</g>
	<g>
		<path fill="#1F2D54" d="M51.125,35.643c0,0,1.207-9.263,11.374-10.503"/>
	</g>
</g>
</svg>
