<?xml version="1.0" encoding="utf-8"?>
<!-- Generator: Adobe Illustrator 16.0.4, SVG Export Plug-In . SVG Version: 6.00 Build 0)  -->
<!DOCTYPE svg PUBLIC "-//W3C//DTD SVG 1.1//EN" "http://www.w3.org/Graphics/SVG/1.1/DTD/svg11.dtd">
<svg version="1.1" id="Ebene_1" xmlns="http://www.w3.org/2000/svg" xmlns:xlink="http://www.w3.org/1999/xlink" x="0px" y="0px"
	 width="85.04px" height="85.04px" viewBox="454.98 454.98 85.04 85.04" enable-background="new 454.98 454.98 85.04 85.04"
	 xml:space="preserve">
<path fill="#1F2E54" d="M538.969,498.204c0.147-3.33-2.436-7.246-2.56-7.418c-0.675-1.021-1.601-1.931-2.634-2.629l-0.822-0.586
	c-0.758-0.501-1.616-0.865-2.51-1.007c-0.593-0.095-1.277-0.127-1.907,0.002c-1.483,0.222-2.76,1.087-3.556,2.256l-3.588,5.304
	c-0.904,1.38-1.238,3.006-0.89,4.661c0.351,1.657,1.351,3.036,2.72,4.014c1.23,0.883,2.672,1.416,4.16,1.651
	c0.148,0.023,0.297,0.048,0.444,0.069c0.13,2.082-0.309,5.824-3.492,10.502c-3.366,4.88-6.593,6.501-8.584,7.027
	c-0.768-1.414-1.864-2.657-3.236-3.64c-0.76-0.498-1.692-0.877-2.659-1.028c-0.667-0.105-1.434-0.076-2.14,0.042
	c-1.645,0.272-3.011,1.201-3.979,2.494l-3.574,5.229c-1.773,2.539-0.963,6.102,1.727,7.898l0.818,0.587
	c1.033,0.696,2.175,1.185,3.429,1.457c0.075,0.013,0.375,0.061,0.894,0.142c1.115,0.177,3.211,0.434,5.104,0.047
	c0.63-0.131,1.259-0.258,1.752-0.486c0.493-0.226,10.712-5.545,17.172-15.043C537.593,510.263,538.899,498.651,538.969,498.204z"/>
<g>
	<path fill="#1F2D54" d="M523.56,470.85c-13.345-13.348-35.046-13.348-48.396,0c-5.879,5.88-9.358,13.59-9.946,21.84l-3.476-3.767
		c-1.004-1.073-2.683-1.139-3.758-0.137c-1.119,1.004-1.184,2.705-0.18,3.802l7.796,8.351c0.531,0.567,1.216,0.865,1.947,0.865
		c0.663,0,1.326-0.237,1.809-0.73l8.396-7.751c1.075-1.026,1.14-2.706,0.136-3.801c-1.003-1.075-2.728-1.141-3.801-0.136
		l-3.414,3.174c0.547-6.776,3.427-13.088,8.291-17.931c11.229-11.249,29.523-11.249,40.795,0c1.592,1.595,2.958,3.331,4.099,5.169
		c0.475,0.765,0.852,1.641,1.145,2.606c0.052,0.165,1.116,0.812,2.427,0.698c0.761-0.067,1.062-0.176,1.657-0.635
		c0.586-0.452,0.913-1.635,1.034-2.157c0.026-0.118,0.019-0.204,0.003-0.236c-0.625-1.289-1.333-2.545-2.128-3.763
		C526.732,474.378,525.255,472.546,523.56,470.85z"/>
</g>
<g>
	<g>
		<path fill="#1F2D54" d="M511.083,494.492l-10.479-0.001v-17.957c0-1.467-1.15-2.64-2.614-2.64c-1.467,0-2.661,1.173-2.661,2.64
			v20.597c0,1.465,1.195,2.639,2.661,2.639l0,0h0.001h13.093c1.465,0,2.661-1.174,2.661-2.639S512.547,494.492,511.083,494.492z"/>
	</g>
</g>
<g>
	<path fill="#1F2D54" d="M495.341,523.521c-6.128-0.868-11.79-3.68-16.272-8.16c-1.062-1.039-2.74-1.039-3.803,0
		c-1.016,1.062-1.016,2.763,0,3.801c5.344,5.324,12.139,8.684,19.464,9.696c0.508,0.07,0.893-0.455,1.133-1.2
		c0.252-0.777,0.347-1.798,0.263-2.629C496.043,524.22,495.789,523.584,495.341,523.521z"/>
</g>
</svg>
