<?xml version="1.0" encoding="utf-8"?>
<!-- Generator: Adobe Illustrator 16.0.4, SVG Export Plug-In . SVG Version: 6.00 Build 0)  -->
<!DOCTYPE svg PUBLIC "-//W3C//DTD SVG 1.1//EN" "http://www.w3.org/Graphics/SVG/1.1/DTD/svg11.dtd">
<svg version="1.1" id="Ebene_1" xmlns="http://www.w3.org/2000/svg" xmlns:xlink="http://www.w3.org/1999/xlink" x="0px" y="0px"
	 width="85px" height="86px" viewBox="917.5 757 85 86" enable-background="new 917.5 757 85 86" xml:space="preserve">
<g>
	<g>
		<path fill="#1F2D54" d="M974.261,769.643c-0.134-0.4-0.312-0.779-0.552-1.129c-0.506-0.76-1.298-1.298-2.187-1.538
			c-0.329-0.089-0.667-0.129-1.004-0.129h-2.312v-0.33c-0.034-4.422-3.679-8.018-8.115-8.018h-0.105
			c-2.259,0-4.286,0.898-5.774,2.346c-1.466,1.458-2.396,3.454-2.427,5.671v0.33H949.5c-0.352,0-0.689,0.04-1.018,0.129
			c-0.888,0.24-1.68,0.777-2.186,1.538c-0.24,0.351-0.432,0.729-0.552,1.129c-0.058,0.217-0.12,0.479-0.128,0.729v4.502
			c0.008,0.271,0.07,0.498,0.128,0.729c0.472,1.626,1.93,2.756,3.604,2.826h21.276c1.707-0.07,3.165-1.199,3.637-2.826
			c0.07-0.231,0.106-0.458,0.143-0.698v-4.564C974.367,770.122,974.331,769.882,974.261,769.643z M964.368,766.847h-8.731v-0.351
			c0.071-2.286,1.978-4.143,4.277-4.143h0.177c2.284,0,4.205,1.857,4.277,4.143V766.847z"/>
	</g>
	<path fill="#1F2D54" d="M990.48,822.207l-0.004-0.742c-0.002-1.774-0.009-3.612-0.007-5.402c0-4.203,0-8.383-0.002-12.589v-2.17
		c0-6.521-0.002-13.257,0.007-19.868c0.004-4.938-2.048-8.56-6.145-10.778c-1.396-0.762-2.987-1.098-5.121-1.103l-1.122-0.001v5.191
		l0.248,0.002c0.714,0.004,1.306,0.017,1.85,0.053c2.748,0.185,5.096,2.508,5.244,5.191c0.117,2.625,0.113,5.375,0.111,7.804
		c-0.002,0.532-0.002,1.065-0.002,1.598c0.004,9.061,0.004,18.122,0.004,27.154c0,6.317,0,5.932,0.002,12.249
		c0,1.443,0,2.922-0.674,4.207c-1.197,2.233-2.901,3.302-5.233,3.302c-3.12,0-6.268,0-9.413,0l-9.414-0.001h-0.808h-0.808
		l-9.414,0.001c-3.146,0-6.279,0-9.427,0c-2.319,0-4.022-1.067-5.208-3.302c-0.687-1.285-0.687-2.764-0.687-4.207
		c0-6.317,0-5.932,0-12.249c0-9.032,0-18.092,0.005-27.154c0-0.532,0-1.066-0.002-1.598c-0.003-2.429-0.007-5.179,0.125-7.804
		c0.135-2.684,2.483-5.008,5.23-5.191c0.532-0.038,1.137-0.048,1.836-0.053l0.26-0.002v-5.191l-1.12,0.001
		c-2.146,0.005-3.727,0.341-5.123,1.103c-4.083,2.218-6.146,5.84-6.143,10.778c0.007,6.61,0.005,13.347,0.004,19.868v2.17
		c-0.001,4.206-0.002,8.386-0.001,12.589c0.001,1.79-0.003,3.628-0.007,5.402l-0.002,0.742c-0.013,5.045-0.038,3.581,0.077,8.768
		c0.056,2.767,1.211,5.407,3.22,7.39c2.046,2.02,4.698,3.136,7.494,3.136h0.042c5.957-0.017,11.774-0.018,17.693-0.018h1.951h1.952
		c5.918,0,11.735,0.001,17.679,0.018h0.058c2.78,0,5.446-1.116,7.479-3.136c2.022-1.983,3.166-4.624,3.232-7.39
		C990.504,825.788,990.49,827.252,990.48,822.207z"/>
	<path fill="#1F2D54" d="M975.715,821.83c0.886,0.92,1.722,1.755,2.578,2.627c0.982,1,0.666,2.514-0.628,2.956
		c-0.736,0.287-1.357,0.009-1.879-0.494c-0.877-0.816-1.758-1.633-2.674-2.511c-0.896,0.904-1.758,1.769-2.591,2.605
		c-0.539,0.539-1.133,0.796-1.872,0.554c-1.282-0.413-1.67-1.879-0.728-2.915c0.612-0.683,1.312-1.366,1.983-2.02
		c0.216-0.183,0.633-0.572,0.613-0.592c-1.039-1.024-1.829-1.771-2.644-2.59c-0.765-0.799-0.81-1.882-0.085-2.599
		c0.723-0.713,1.715-0.718,2.531,0.08c0.87,0.826,1.666,1.732,2.55,2.683c1.074-1.074,1.944-2.001,2.848-2.839
		c1.086-1.04,2.603-0.584,2.994,0.866c0.178,0.681-0.143,1.232-0.616,1.713c-0.756,0.771-1.544,1.56-2.302,2.354
		C975.743,821.732,975.734,821.796,975.715,821.83z"/>
	<path fill="#1F2D54" d="M975.715,790.361c0.886,0.893,1.722,1.742,2.578,2.599c0.982,1.028,0.666,2.514-0.628,2.985
		c-0.736,0.258-1.357,0.007-1.879-0.494c-0.877-0.832-1.758-1.647-2.674-2.511c-0.896,0.902-1.758,1.754-2.591,2.604
		c-0.539,0.526-1.133,0.798-1.872,0.555c-1.282-0.426-1.67-1.892-0.728-2.914c0.612-0.712,1.312-1.369,1.983-2.021
		c0.216-0.196,0.633-0.571,0.613-0.605c-1.039-1.013-1.829-1.757-2.644-2.59c-0.765-0.784-0.81-1.882-0.085-2.597
		c0.723-0.701,1.715-0.719,2.531,0.079c0.87,0.84,1.666,1.744,2.55,2.683c1.074-1.074,1.944-1.987,2.848-2.839
		c1.086-1.025,2.603-0.585,2.994,0.853c0.178,0.694-0.143,1.247-0.616,1.727c-0.756,0.782-1.544,1.56-2.302,2.354
		C975.743,790.265,975.734,790.313,975.715,790.361z"/>
	<path fill="#1F2D54" d="M979.387,800.594c-0.023,0-0.078,0.002-0.096,0.004c-0.162,0.026-0.307,0.078-0.396,0.136l-0.408,0.226
		c-0.245,0.115-0.546,0.276-0.823,0.487c-1.944,1.292-3.796,2.753-5.581,4.153l-0.099,0.085c-0.45,0.335-0.874,0.703-1.29,1.039
		l-0.25,0.189l-0.47-0.363c-0.506-0.451-1.11-0.939-1.696-1.384c-0.346-0.296-0.752-0.477-1.121-0.63
		c-0.354-0.157-0.751-0.078-0.977,0.182c-0.162,0.215-0.198,0.481-0.126,0.793c0.032,0.229,0.101,0.483,0.196,0.732
		c0.564,1.374,1.359,2.756,2.485,4.362c0.364,0.554,0.97,0.844,1.586,0.844c0.538,0,1.04-0.198,1.44-0.594
		c0.371-0.337,0.718-0.715,1.067-1.07c1.192-1.218,2.563-2.653,3.866-4.121c0.392-0.422,0.752-0.874,1.142-1.299
		c0.296-0.323,0.563-0.646,0.862-0.968l0.042-0.075c0.968-1.062,1.42-1.774,1.371-2.209
		C980.103,800.905,980.001,800.594,979.387,800.594z"/>
	<rect x="940.71" y="788.477" fill="#1F2D54" width="21.796" height="3.974"/>
	<rect x="940.71" y="804.045" fill="#1F2D54" width="21.796" height="3.974"/>
	<rect x="940.71" y="819.944" fill="#1F2D54" width="21.796" height="3.975"/>
</g>
</svg>
