<?xml version="1.0" encoding="utf-8"?>
<!-- Generator: Adobe Illustrator 16.0.4, SVG Export Plug-In . SVG Version: 6.00 Build 0)  -->
<!DOCTYPE svg PUBLIC "-//W3C//DTD SVG 1.1//EN" "http://www.w3.org/Graphics/SVG/1.1/DTD/svg11.dtd">
<svg version="1.1" id="Layer_1" xmlns="http://www.w3.org/2000/svg" xmlns:xlink="http://www.w3.org/1999/xlink" x="0px" y="0px"
	 width="151.98px" height="151.98px" viewBox="-51.98 -51.98 151.98 151.98" enable-background="new -51.98 -51.98 151.98 151.98"
	 xml:space="preserve">
<path fill="#505D81" d="M-51.98-51.98V100H100V-51.98H-51.98z M89.61,8.298H49.162v-21.571h3.641h36.812L89.61,8.298L89.61,8.298z
	 M46.045,36.638H1.974V11.405h44.071V36.638z M1.974,8.298v-21.571h3.631h36.809h3.632V8.298H1.974z M-4.783-13.273h3.642V8.298
	h-40.45v-21.571H-4.783z M-1.141,11.405v25.233h-40.45V11.405H-1.141z M-41.591,39.743h40.45v25.191h-40.45V39.743z M1.974,39.743
	h44.071v25.191H1.974V39.743z M49.162,39.743H89.61v25.191H49.162V39.743z M49.162,36.638V11.405H89.61v25.233H49.162z
	 M-41.591,89.61v-21.55h40.45v21.55H-41.591z M1.974,89.61v-21.55h44.071v21.55H1.974z M49.162,68.061H89.61v21.55H49.162V68.061z"
	/>
</svg>
