<?xml version="1.0" encoding="utf-8"?>
<!-- Generator: Adobe Illustrator 16.0.4, SVG Export Plug-In . SVG Version: 6.00 Build 0)  -->
<!DOCTYPE svg PUBLIC "-//W3C//DTD SVG 1.1//EN" "http://www.w3.org/Graphics/SVG/1.1/DTD/svg11.dtd">
<svg version="1.1" id="Ebene_1" xmlns="http://www.w3.org/2000/svg" xmlns:xlink="http://www.w3.org/1999/xlink" x="0px" y="0px"
	 width="74.5px" height="85.04px" viewBox="0 0 74.5 85.04" enable-background="new 0 0 74.5 85.04" xml:space="preserve">
<path fill="#1F2D54" d="M64.672,35.999H26.269L26.247,25.5c0.428-6.351,4.471-10.313,10.304-10.733
	c5.415-0.716,10.47,1.719,10.788,7.775l0.415,2.958c0.756,0.881,1.271,0.941,2.375,0.941h7.019c1.103,0,1.317-0.827,1.317-1.926
	l-0.088-1.239c-0.584-8.854-8.771-18.675-20.52-19.272C26.429,3.792,15.894,11.729,15.515,25.5l-0.242,10.498H9.774
	C7.657,35.998,4,37.686,4,39.895V77.11C4,79.214,7.573,81,9.774,81h54.724C66.619,81,70,79.309,70,77.11V39.895
	C70.076,37.688,66.791,35.999,64.672,35.999z M42.007,66.963c0.329,1.258-0.597,2.452-1.87,2.452H34.39
	c-1.273,0-2.199-1.194-1.863-2.452l1.775-6.941c-2.114-1.102-3.636-3.297-3.636-5.922c0-3.645,2.961-6.594,6.595-6.594
	c3.647,0,6.597,2.949,6.597,6.594c0,2.545-1.521,4.82-3.628,5.922L42.007,66.963z"/>
</svg>
