<?xml version="1.0" encoding="utf-8"?>
<!-- Generator: Adobe Illustrator 16.0.4, SVG Export Plug-In . SVG Version: 6.00 Build 0)  -->
<!DOCTYPE svg PUBLIC "-//W3C//DTD SVG 1.1//EN" "http://www.w3.org/Graphics/SVG/1.1/DTD/svg11.dtd">
<svg version="1.1" id="Ebene_1" xmlns="http://www.w3.org/2000/svg" xmlns:xlink="http://www.w3.org/1999/xlink" x="0px" y="0px"
	 width="85.04px" height="85.04px" viewBox="0 0 85.04 85.04" enable-background="new 0 0 85.04 85.04" xml:space="preserve">
<path fill="#1F2D54" d="M46.345,39.253H30.552V25.008c0-6.706,5.347-12.157,11.964-12.157c6.612,0,11.958,5.449,11.958,12.157v6.575
	h7.576v-7.741c0-10.946-8.772-19.821-19.536-19.821C31.728,4.02,23,12.895,23,23.841v15.412h-3.988
	c-1.956,0-3.767,1.614-3.767,3.607v34.552c0,2.013,1.811,3.607,3.767,3.607h47.021c1.959,0,3.764-1.597,3.764-3.607V42.86
	c0-1.837-1.563-3.347-3.303-3.573H46.343L46.345,39.253L46.345,39.253z M47.246,54.154c0,1.9-1.122,3.551-2.735,4.309l1.975,12.032
	h-7.926l1.999-12.017c-1.625-0.758-2.778-2.416-2.778-4.324c0-2.681,2.129-4.812,4.735-4.812
	C45.134,49.344,47.246,51.475,47.246,54.154z"/>
</svg>
