<?xml version="1.0" encoding="utf-8"?>
<!-- Generator: Adobe Illustrator 16.0.4, SVG Export Plug-In . SVG Version: 6.00 Build 0)  -->
<!DOCTYPE svg PUBLIC "-//W3C//DTD SVG 1.1//EN" "http://www.w3.org/Graphics/SVG/1.1/DTD/svg11.dtd">
<svg version="1.1" id="Layer_1" xmlns="http://www.w3.org/2000/svg" xmlns:xlink="http://www.w3.org/1999/xlink" x="0px" y="0px"
	 width="85.039px" height="85.039px" viewBox="0 0 85.039 85.039" enable-background="new 0 0 85.039 85.039" xml:space="preserve">
<g>
	<path fill="#FFFFFF" d="M69.895,27.806c0.027-0.65-3.256-13.609-7.869-14.579c-6.062-1.272-17.804-2.063-19.396,4.903
		c-0.676,2.948-9.905-3.408-12.211-2.271c-12.9-1.342-23.427,12.643-24.865,15.562c-2.025,4.11-3.627,8.26-3.818,12.887
		c-0.228,5.501,5.581,18.551,9.59,21.814c5.548,4.516,15.997,11.226,26.705,7.741c6.571-1.919,16.467-6.074,19.352-13.419
		c2.885-7.343,3.684-15.996,2.712-20.255c-1.402-6.127,11.996,16.772,20.898,12c4.418-2.368-2.25-9.117-2.969-9.671
		C63.445,31.287,69.895,27.806,69.895,27.806z"/>
	<g>
		<g>
			<path fill="#1F2D54" d="M82.142,43.995L70.368,32.213c0.762-1.914,1.198-3.997,1.198-6.181c0-9.215-7.495-16.705-16.704-16.705
				c-5.455,0-10.283,2.632-13.331,6.685c-3.049-1.021-6.283-1.604-9.662-1.604c-16.901,0-30.654,13.748-30.654,30.652
				c0,16.901,13.753,30.652,30.653,30.652c16.902,0,30.652-13.75,30.652-30.652c0-0.853-0.058-1.685-0.126-2.521l10.594,10.602
				c1.224,1.223,2.852,1.897,4.582,1.897c1.729,0,3.351-0.672,4.573-1.897c1.226-1.222,1.896-2.844,1.896-4.574
				C84.039,46.835,83.369,45.213,82.142,43.995z M54.86,13.243c7.049,0,12.79,5.732,12.79,12.788c0,7.052-5.741,12.789-12.79,12.789
				c-7.05,0-12.79-5.739-12.79-12.789C42.07,18.976,47.811,13.243,54.86,13.243z M38.257,20.508c0.371-0.136,0.983-0.36,1.151-1.021
				c0.073-0.292,0.068-0.74-0.364-1.216c-0.012-0.018-0.026-0.029-0.036-0.042c0-0.011,0-0.021,0.005-0.032
				c0.323,0.088,0.634,0.214,0.952,0.312c-0.532,1.056-0.957,2.166-1.253,3.334c-0.226-0.194-0.44-0.559-0.513-1.314
				C38.22,20.518,38.241,20.514,38.257,20.508z M26.942,19.263c0.484-0.153,0.775-0.485,0.946-0.702
				c0.015-0.017,0.031-0.033,0.052-0.052c0.077,0.009,0.162,0.009,0.238,0c0.094,0.057,0.192,0.098,0.304,0.12l0.364,0.078
				c0.048,0.008,0.104,0.017,0.154,0.02c-0.284,0.335-0.713,0.819-1.124,0.771c-0.305-0.12-0.646-0.075-0.902,0.104
				c-0.025,0.011-0.046,0.018-0.067,0.021C26.931,19.505,26.942,19.382,26.942,19.263z M26.893,23.806
				c-0.079,0.05-0.177,0.099-0.289,0.15c-0.298,0.13-0.524,0.498-0.588,0.809c-0.011,0.045-0.071,0.162-0.162,0.363
				c-0.006,0.019-0.052,0.072-0.091,0.121c-0.052-0.06-0.109-0.109-0.16-0.138c0.108-0.254,0.108-0.542-0.003-0.792
				c-0.113-0.255-0.333-0.443-0.596-0.537c-0.333-0.104-0.612-0.295-0.883-0.537c0.474-0.305,1.059-0.549,1.666-0.802
				c0.412-0.168,0.824-0.338,1.212-0.532c0.123-0.062,0.231-0.146,0.318-0.254c0.077-0.09,0.133-0.139,0.258-0.182
				c0.011,0,0.025-0.003,0.042,0c0.045-0.006,0.095-0.003,0.144-0.006c0.059,0.003,0.114,0.006,0.178,0.009
				c-0.053,0.115-0.083,0.245-0.091,0.378c-0.021,0.08-0.195,0.259-0.301,0.37c-0.299,0.308-0.715,0.733-0.686,1.381
				C26.866,23.666,26.874,23.733,26.893,23.806z M26.859,16.832c-0.039,0.034-0.075,0.07-0.08,0.076
				c-0.087,0.086-0.175,0.175-0.273,0.258c-0.048,0.045-0.074,0.166-0.107,0.218c-0.103,0.014-0.2,0.042-0.293,0.077l0.349,0.926
				l-0.538-0.858c-0.241,0.035-0.458,0.157-0.607,0.342c-0.063,0.069-0.113,0.143-0.157,0.216c-0.444,0.06-0.833,0.282-1.181,0.476
				c-0.158,0.088-0.436,0.241-0.405,0.286c-0.087-0.114-0.154-0.136-0.285-0.202c-0.107-0.249-0.143-0.384-0.129-0.519
				c0.025-0.13-0.004-0.258-0.033-0.385C24.328,17.354,25.577,17.054,26.859,16.832z M8.698,30.849l0.247-0.363
				c0.507-0.737,1.083-1.559,1.087-2.596c1.978-2.516,4.325-4.645,6.996-6.336c0.15,0.041,0.321,0.071,0.51,0.071
				c0.233,0,0.813-0.045,1.187-0.465c0.166-0.181,0.281-0.487,0.285-0.746c0.123-0.062,0.241-0.127,0.362-0.188
				c0.05,0.01,0.099,0.018,0.146,0.03c0.133,0.024,0.266,0.021,0.402-0.004c0.244-0.06,0.486-0.192,0.653-0.402
				c0.175-0.059,0.336-0.165,0.454-0.314c0.024-0.03,0.045-0.062,0.069-0.095c0.113-0.049,0.226-0.091,0.332-0.139
				c0.019,0.038,0.035,0.078,0.05,0.119c0.143,0.321,0.374,0.595,0.682,0.792c0.434,0.459,0.922,0.561,1.271,0.561
				c0.457,0,0.869-0.179,1.223-0.36c0.122,0.098,0.262,0.173,0.42,0.207c-0.014,0.007-0.025,0.011-0.039,0.021
				c-1.125,0.465-2.292,0.947-3.109,1.942c-0.314,0.388-0.287,0.955,0.067,1.311l0.214,0.214c0.394,0.407,0.831,0.85,1.418,1.191
				c0.025,0.562,0.284,1.093,0.712,1.465c0.036,0.174,0.127,0.34,0.251,0.474c0.206,0.206,0.483,0.313,0.783,0.289
				c0.416-0.035,0.784-0.169,1.083-0.402c0.607-0.234,1.068-0.73,1.209-1.254c0.049-0.098,0.108-0.21,0.158-0.347
				c0.509-0.293,0.876-0.659,1.124-1.111c0.133-0.244,0.123-0.559,0.015-0.836c0.188-0.189,0.426-0.439,0.601-0.761
				c0.115,0.011,0.213,0.04,0.321,0.082c-0.024,0.21,0.004,0.395,0.042,0.536c0.045,0.188,0.132,0.337,0.205,0.442
				c0.054,0.165,0.15,0.311,0.283,0.426c0.207,0.185,0.487,0.274,0.766,0.237c0.287-0.03,0.539-0.107,0.762-0.202
				c0.054,0.329,0.145,0.728,0.36,1.088c-0.139,0.167-0.266,0.349-0.382,0.537c-0.133,0.06-0.255,0.113-0.374,0.173
				c-0.301,0.136-0.539,0.249-0.712,0.249c-0.038,0-0.169,0-0.426-0.144c-0.074-0.038-0.154-0.071-0.233-0.087
				c-0.074-0.018-0.297-0.046-0.374-0.046c-0.465,0-0.762,0.212-0.943,0.409c-0.232,0.038-0.44,0.156-0.595,0.341
				c-0.225,0.269-0.284,0.633-0.165,0.958c-0.127,0.062-0.255,0.128-0.378,0.188c-0.843,0.442-1.492,1.181-1.855,2.107
				c-0.525,0.3-0.933,0.674-1.3,1.012c-0.297,0.276-0.58,0.543-0.891,0.725c-0.367,0.22-0.538,0.727-0.444,1.139
				c-0.056,0.136-0.555,0.415-0.819,0.563c-0.631,0.345-1.458,0.802-1.837,1.648c-0.513-0.229-1.083-0.268-1.914-0.32
				c-0.123-0.009-0.237,0.002-0.35,0.04c-0.266,0.076-0.524,0.24-0.712,0.456c-0.018-0.006-0.042-0.01-0.059-0.018
				c-0.218-0.061-0.48-0.129-0.804-0.129c-0.057,0-0.302,0.02-0.353,0.026c-1.318,0.228-2.417,1.374-2.813,2.921
				c-0.286,1.146-0.14,2.245,0.381,3.077c-0.476-0.15-0.938-0.478-1.422-0.825l-0.026-0.015c-0.058-0.155-0.12-0.313-0.195-0.476
				l-0.077-0.16c-0.052-1.036-0.584-1.771-1.02-2.378c-0.469-0.646-0.835-1.16-0.758-2.016c0.029-0.318-0.096-0.634-0.343-0.838
				c-0.24-0.207-0.565-0.276-0.872-0.203c-0.01,0-0.012,0.003-0.016,0.003c-0.194-0.255-0.397-0.505-0.61-0.748
				c-0.005-0.728-0.02-1.453-0.035-2.181L8.572,31.3L8.698,30.849z M3.176,45.06c0-4.923,1.247-9.561,3.442-13.614v0.022
				c0.014,0.81,0.035,1.625,0.038,2.514c0,0.245,0.092,0.479,0.259,0.664c0.311,0.337,0.6,0.685,0.881,1.073
				c0.123,0.16,0.239,0.326,0.353,0.495c0.109,0.16,0.267,0.289,0.444,0.36c0.201,0.832,0.646,1.448,1.029,1.982
				c0.423,0.588,0.663,0.946,0.653,1.427c-0.003,0.155,0.083,0.433,0.149,0.567l0.113,0.239c0.083,0.173,0.143,0.336,0.191,0.505
				c0.063,0.219,0.194,0.407,0.381,0.536l0.284,0.199c0.855,0.608,1.992,1.387,3.368,1.244c0.458,0.507,1.094,0.739,1.604,0.929
				c0.896,0.328,0.896,0.405,0.881,0.73c-0.018,0.384,0.192,0.747,0.539,0.92c0.492,0.245,0.954,0.526,1.413,0.806
				c0.25,0.155,0.509,0.315,0.767,0.461c0.116,0.07,0.242,0.109,0.367,0.124c0.062,0.007,0.13,0.01,0.191,0.01
				c-0.101,0.249-0.272,0.519-0.489,0.854c-0.416,0.653-1.013,1.563-0.752,2.59c-0.079,0.15-0.132,0.293-0.172,0.4
				c-0.248,0.335-0.254,0.788-0.021,1.136c0.908,1.317,1.764,2.625,2.296,4.219c0.095,0.294,0.325,0.524,0.622,0.619
				c1.769,0.587,2.349,1.827,2.121,4.574c-0.053,0.66,0.027,1.208,0.104,1.747c0.031,0.211,0.061,0.43,0.083,0.662
				c0.06,0.611,0.05,1.196,0.046,1.74c-0.015,1.237-0.035,2.517,0.75,3.596c-0.027,0.185-0.008,0.364,0.007,0.48
				c0.005,0.068,0.02,0.187,0.02,0.204c-0.115,0.26-0.115,0.558,0.008,0.817c0.052,0.1,0.111,0.183,0.184,0.263
				c0.05,0.48,0.315,0.839,0.473,1.053c0.135,0.187,0.181,0.257,0.181,0.32c0.004,0.262,0.115,0.497,0.293,0.67
				C13.123,70.587,3.176,58.967,3.176,45.06z M28.216,67.105c-0.269,0.216-0.416,0.569-0.354,0.934
				c-0.317,1.092-0.359,2.264-0.132,3.352c-0.038-0.008-0.079-0.01-0.122-0.015c-0.079-0.134-0.158-0.24-0.229-0.328
				c-0.015-0.026-0.031-0.046-0.045-0.062c0.042-0.124,0.06-0.24,0.052-0.371c-0.004-0.078-0.021-0.304-0.16-0.539
				c0.077-0.116,0.133-0.25,0.15-0.389c0.087-0.561-0.083-0.949-0.2-1.229c0.077-0.332-0.023-0.67-0.258-0.906
				c-0.157-0.153-0.353-0.25-0.559-0.28c-0.052-0.393-0.048-0.865-0.04-1.451c0.009-0.611,0.013-1.269-0.054-1.947
				c-0.026-0.268-0.059-0.515-0.095-0.759c-0.069-0.468-0.127-0.868-0.087-1.304c0.191-2.357,0.008-5.176-3.002-6.424
				c-0.523-1.397-1.232-2.568-1.997-3.701c0.109-0.092,0.202-0.211,0.262-0.352c0.141-0.305,0.109-0.666-0.083-0.949
				c-0.149-0.222-0.129-0.366,0.412-1.207c0.451-0.695,1.128-1.744,0.835-3.017c0.29-0.336,0.64-0.632,1.049-0.892
				c0.308,0.163,0.677,0.15,0.929,0.081c0.075,0.103,0.162,0.189,0.266,0.258c0.303,0.198,0.687,0.222,1.001,0.046
				c0.034-0.021,0.556-0.021,0.94,0.037c0.21,0.032,0.411,0.06,0.591,0.072c0.21,0.296,0.471,0.527,0.695,0.718
				c0.284,0.255,0.556,0.491,0.733,0.825c0.203,0.371,0.623,0.565,1.034,0.491c0.976-0.172,1.248-0.092,1.667,1.683
				c0.049,0.209,0.169,0.397,0.337,0.538c0.93,0.751,2.104,1.15,3.245,1.527c0.948,0.32,1.854,0.621,2.504,1.097
				c0.021,0.193-0.116,0.429-0.605,1.014c-0.384,0.466-0.812,0.989-1.003,1.657c-0.198,0.7-0.195,1.397-0.191,2.014
				c0.006,0.135,0.006,0.265,0.006,0.395c-0.255,0.282-0.515,0.558-0.776,0.836l-0.454,0.487c-1.32,0.491-1.671,1.856-1.938,3.023
				c-0.011,0.027-0.027,0.049-0.038,0.078c-0.749,0.371-1.383,0.937-1.874,1.677l-0.489,0.558c-0.492,0.561-1.062,1.242-1.544,2.012
				C28.446,66.625,28.328,66.86,28.216,67.105z M31.867,73.754c-0.301,0-0.597-0.036-0.898-0.044c0.007-0.134,0.01-0.27-0.026-0.386
				c-0.048-0.182-0.145-0.337-0.286-0.459c-0.358-0.32-0.646-0.754-0.831-1.254c-0.373-1.007-0.377-2.196-0.011-3.252
				c0.011-0.026,0.015-0.039,0.022-0.061c0.01-0.026,0.023-0.056,0.038-0.082c0.104-0.272,0.225-0.539,0.378-0.784
				c0.403-0.65,0.911-1.25,1.355-1.762l0.52-0.596c0.022-0.025,0.127-0.181,0.145-0.214c0.317-0.471,0.761-0.839,1.288-1.054
				c0.196-0.079,0.364-0.224,0.474-0.404c0.113-0.184,0.212-0.382,0.311-0.576c0.03-0.07,0.09-0.284,0.112-0.36
				c0.228-1.021,0.383-1.516,0.783-1.615c0.188-0.043,0.361-0.144,0.49-0.29l0.614-0.651c0.358-0.385,0.721-0.762,1.06-1.163
				c0.012-0.008,0.021-0.019,0.027-0.025c0.13-0.158,0.204-0.357,0.211-0.563c0.019-0.274,0.019-0.554,0.016-0.842
				c-0.004-0.535-0.007-1.033,0.115-1.464c0.076-0.278,0.36-0.617,0.63-0.948c0.604-0.732,1.521-1.837,0.798-3.294
				c-0.066-0.12-0.141-0.225-0.243-0.308c-0.942-0.803-2.161-1.218-3.339-1.614c-0.896-0.304-1.747-0.589-2.383-1.008
				c-0.314-1.248-0.94-3-3.184-2.877c-0.269-0.336-0.551-0.591-0.778-0.787c-0.148-0.127-0.364-0.323-0.396-0.386
				c0.012-0.457-0.293-0.864-0.736-0.979c-0.29-0.074-0.584-0.007-0.812,0.153c-0.101-0.019-0.216-0.032-0.337-0.049
				c-0.374-0.059-0.785-0.122-1.165-0.095c-0.161-0.162-0.333-0.267-0.461-0.341c-0.199-0.294-0.56-0.437-0.902-0.398
				c-0.22-0.066-0.454-0.057-0.664,0.031c-0.881,0.36-1.618,0.812-2.226,1.37c-0.423-0.127-0.887-0.087-1.327,0.045
				c-0.021-0.195,0.027-0.503,0.133-1.062l0.112-0.593c0.041-0.252-0.014-0.514-0.165-0.723c-0.411-0.593-1.113-0.614-1.379-0.614
				c0.21-0.397,0.42-0.82,0.58-1.319c0.097-0.296,0.041-0.621-0.145-0.876c-0.184-0.252-0.481-0.399-0.79-0.399h-1.3
				c-0.343,0-0.656,0.18-0.834,0.466c-0.105,0.17-0.192,0.358-0.281,0.55c-0.034,0.085-0.083,0.191-0.115,0.263
				c-0.188,0.01-0.346,0.058-0.479,0.111c-0.251-0.441-0.233-1.048-0.115-1.514c0.169-0.652,0.618-1.364,1.266-1.472
				c0.063,0,0.175,0.026,0.29,0.059c0.458,0.122,1.228,0.191,1.872-0.178c0.096-0.056,0.176-0.119,0.236-0.196
				c0.242,0.022,0.399,0.041,0.51,0.07c0.054,1.432,0.843,2,1.35,2.226c0.483,0.208,1.044,0,1.275-0.48
				c0.404-0.851,0.307-1.889,0.136-2.759c0.154-0.23,0.556-0.453,0.951-0.675c0.67-0.368,1.723-0.954,1.827-2.08
				c0.262-0.203,0.496-0.415,0.709-0.615c0.395-0.363,0.734-0.677,1.156-0.856c0.27-0.119,0.473-0.348,0.553-0.632
				c0.176-0.605,0.542-1.076,1.03-1.338c0.504-0.263,1.055-0.495,1.688-0.709c0.237-0.084,0.396-0.172,0.509-0.391
				c0.084-0.062,0.214-0.164,0.34-0.318c0.45-0.062,0.831-0.237,1.193-0.404c0.147-0.071,0.301-0.141,0.469-0.206
				c0.102-0.039,0.284-0.176,0.363-0.249c0.021-0.018,0.165-0.147,0.188-0.172c0.057-0.059,0.113-0.129,0.146-0.198
				c0.214-0.378,0.487-0.685,0.813-0.924c0.301-0.216,0.417-0.599,0.353-0.974c-0.064-0.366-0.37-0.679-0.727-0.786
				c-0.054-0.07-0.098-0.378-0.127-0.557c-0.049-0.33-0.112-0.732-0.284-1.136c0.144-0.068,0.294-0.169,0.439-0.323
				c0.094-0.104,0.171-0.224,0.222-0.352c0.026-0.096,0.056-0.186,0.069-0.274c0.027-0.01,0.057-0.021,0.079-0.026
				c0.488-0.192,1.3-0.511,1.548-1.455c0.067-0.275,0.017-0.567-0.144-0.802c-0.16-0.233-0.415-0.386-0.695-0.419
				c-0.03-0.004-0.06-0.008-0.083-0.011c0.015-0.112,0.022-0.229,0.019-0.346c-0.009-0.35-0.205-0.667-0.514-0.831
				c-0.262-0.148-0.539-0.228-0.778-0.305c-0.154-0.042-0.382-0.111-0.386-0.062c-0.06-0.514-0.503-0.894-1.026-0.865
				c-0.139,0.011-0.287,0.015-0.438,0.015l-0.709-0.019c-0.573-0.014-1.139-0.045-1.81,0.045c-0.116-0.082-0.255-0.136-0.403-0.174
				c0.961-0.099,1.934-0.148,2.916-0.148c1.319,0,2.61,0.12,3.882,0.297c0,0.014-0.004,0.026-0.004,0.04
				c0,0.468,0.337,0.881,0.809,0.96c0.169,0.031,0.334,0.066,0.495,0.099c0.026,0.42-0.027,0.499-0.196,0.688
				c-0.199,0.212-0.281,0.495-0.253,0.769c-0.25,0.241-0.425,0.572-0.382,1.027c0.047,2.293,1.103,3.229,2.095,3.609
				c-0.095,0.715-0.162,1.438-0.162,2.177c0,5.401,2.588,10.202,6.582,13.256c-0.063,0.125-0.129,0.25-0.194,0.372
				c-0.233,0.402-0.144,0.906,0.196,1.216c0.196,0.176,0.224,0.286,0.015,1.118c-0.167,0.644-0.376,1.445-0.114,2.328
				c0.047,0.165,0.137,0.309,0.255,0.427c0.403,0.394,0.75,0.838,1.095,1.286c0.677,0.869,1.378,1.765,2.446,2.391
				c0.203,0.119,0.441,0.167,0.677,0.119c0.698-0.132,1.306-0.24,1.897-0.34l0.476-0.078c0.13-0.025,0.255-0.076,0.371-0.15
				c0.488-0.322,1.18-0.409,1.791-0.317c0.02,0,0.029,0.002,0.056,0.002c0.021,0.008,0.046,0.016,0.068,0.021
				c0.368,0.084,0.688,0.246,0.943,0.481c0.029,0.024,0.063,0.054,0.088,0.075c0.02,0.021,0.031,0.044,0.051,0.067l0.131,0.16
				c0.026,0.036,0.059,0.066,0.088,0.097c0.014,0.044,0.036,0.081,0.058,0.12c0.23,0.413,0.343,0.924,0.325,1.456
				c0,0.051,0.013,0.129,0.031,0.211h-0.014c0.097,0.595,0.286,1.113,0.468,1.614c0.09,0.25,0.182,0.505,0.262,0.76
				c0.098,0.341,0.16,0.682,0.209,1.07c0.051,0.258,0.078,0.528,0.095,0.818c-0.036,0.094-0.059,0.195-0.068,0.29
				c-0.017,0.311-0.048,0.623-0.111,0.943c-0.065,0.327-0.226,0.633-0.476,0.899c-0.129,0.132-0.216,0.301-0.25,0.484
				c-0.012,0.058-0.024,0.16-0.024,0.223c0,0.245,0.09,0.479,0.258,0.66c0.18,0.19,0.337,0.474,0.507,0.879
				c0.073,0.176,0.189,0.312,0.337,0.419C51.708,67.967,42.461,73.754,31.867,73.754z M58.342,53.502c0-0.005,0-0.007,0-0.012
				c-0.051-0.44-0.131-0.876-0.269-1.328c-0.088-0.296-0.188-0.582-0.296-0.873c-0.132-0.374-0.263-0.728-0.367-1.18
				c0.018-0.75-0.133-1.48-0.437-2.121c0.003-0.082,0.003-0.174,0-0.267c-0.017-0.306-0.172-0.59-0.43-0.765
				c-0.077-0.053-0.16-0.09-0.252-0.123c-0.116-0.122-0.265-0.216-0.444-0.284c-0.425-0.34-0.922-0.595-1.473-0.742
				c-0.165-0.07-0.354-0.107-0.534-0.107c-0.966-0.133-2.053,0.027-2.893,0.52l-0.281,0.049c-0.492,0.082-0.992,0.177-1.541,0.278
				c-0.6-0.441-1.092-1.062-1.597-1.718c-0.327-0.422-0.67-0.854-1.056-1.267c-0.029-0.32,0.063-0.684,0.17-1.089
				c0.129-0.504,0.286-1.163,0.136-1.827c2.397,1.324,5.149,2.087,8.073,2.087c1.602,0,3.146-0.239,4.615-0.662
				c0.112,0.988,0.185,1.984,0.185,2.983C59.66,47.923,59.211,50.782,58.342,53.502z M79.375,50.374
				c-0.963,0.961-2.647,0.961-3.613,0L65.163,39.77l3.61-3.613l10.602,10.604c0.483,0.48,0.75,1.126,0.75,1.806
				C80.123,49.248,79.858,49.889,79.375,50.374z"/>
			<path fill="#1F2D54" d="M56.472,17.818c4.525,0,8.206,3.686,8.206,8.214c0,0.538,0.439,0.979,0.979,0.979
				c0.543,0,0.982-0.441,0.982-0.979c0-5.609-4.562-10.174-10.172-10.174c-0.544,0-0.98,0.44-0.98,0.981
				C55.486,17.382,55.926,17.818,56.472,17.818z"/>
		</g>
	</g>
</g>
<path fill="#1F2D54" d="M24.877,44.41c-0.561,0.178-1.438-0.127-1.912,0.191c-0.342,0.229-0.508,1.249-0.635,1.643
	c-0.441,1.376-1.163,2.671-1.597,4.096c-1.141,3.741,2.387,5.14,4.043,7.794c0.697,1.117,0.506,2.376,0.506,3.692
	c0,1.656,0.054,3.207,0.262,4.792c0.183,1.391-0.083,3.631,0.829,4.822c0.71,0.929,1.976,0.906,3.061,0.786
	c0.093-1.786-0.191-3.527,0.521-5.156c0.636-1.457,2.096-2.507,2.916-3.948c0.714-1.257,1.6-2.835,2.682-4.062
	c0.547-0.621,1.179-1.1,1.4-1.948c0.184-0.707-0.026-1.473,0.245-2.187c0.418-1.103,2.08-2.319,0.689-3.407
	c-0.677-0.529-1.858-0.196-2.659-0.473c-0.736-0.254-1.649-0.857-2.141-1.422c-1.145-1.313-0.928-2.419-3.034-2.785
	c-0.792-0.138-1.203-0.016-1.845-0.619c-0.256-0.24-0.432-0.735-0.683-0.906c-0.164-0.111-0.62-0.002-0.801-0.079
	C26.17,45,25.712,44.575,25.081,44.41"/>
<path fill="#1F2D54" d="M21.727,17.784c-0.611,0.243-1.378-0.085-2,0.145c-0.498,0.184-1.178,1-1.71,1.311
	c-0.634,0.371-1.342,0.525-1.999,0.898c-1.053,0.598-1.78,1.544-2.726,2.268c-1.527,1.168-2.797,2.364-3.617,4.194
	c-0.559,1.248-1.228,2.896-1.446,4.223c-0.177,1.075-0.428,2.949-0.101,4.01c0.297,0.962,1.341,1.247,1.809,2.179
	c1.005,2.006,1.329,3.551,3.636,4.296c0.45,0.145,0.616,0.671,1.097,0.058c0.296-0.377-0.011-1.442-0.036-1.905
	c-0.059-1.094,0.432-2.544,1.521-3.078c1.112-0.545,2.735-0.135,3.941-0.305c1.06-0.15,2.144-0.915,2.902-1.706
	c0.629-0.656,1.341-1.353,1.795-2.154c0.515-0.908,1.031-1.185,1.733-1.905c0.628-0.644,0.995-1.549,1.647-2.111
	c0.792-0.683,2.075-0.75,2.987-1.353c0.898-0.594,1.2-0.689,1.234-1.824c0.035-1.155,0.023-2.219-0.941-2.921
	c-0.609-0.443-1.847-0.798-2.592-0.333c-0.653,0.408-0.666,1.367-0.96,2.004c-0.447,0.967-0.901,1.853-2.035,1.935
	c-1.102,0.081-1.435-0.823-2.131-1.51c-0.735-0.724-1.284-1.034-0.267-1.914c0.742-0.642,1.688-1.134,2.589-1.369
	c0.274-0.989-0.729-1.612-1.563-1.71c-0.696-0.082-1.935,0.554-2.475,0.316c-0.599-0.264-0.442-1.208-0.599-1.637"/>
<path fill="#1F2D54" d="M45.812,40.548c0,1.521-0.521,3.918,0.783,4.878c1.642,1.206,2.965,1.423,5.022,1.423
	c1.965,0,4.687,0.109,5.172,2.516c0.102,0.505-0.087,1.068-0.002,1.577c0.093,0.552,0.356,0.865,0.565,1.397
	c0.35,0.894,0.113,1.832,0.365,2.732c1.102-0.129,1.604-2.62,1.912-3.54c0.634-1.89,0.695-3.618,0.715-5.602
	c0.012-1.183,0.157-2.34,0.102-3.531c-0.052-1.124-0.109-1.276-1.303-1.342c-1.613-0.09-3.211,0.274-4.819,0.208
	c-1.577-0.064-3.176-0.835-4.636-1.411c-0.657-0.259-2.29-0.881-2.944-0.428c-0.07,0.049-0.594,1.302-0.627,1.428"/>
<path fill="#1F2D54" d="M38.496,16.666c0.17,0.419,0.264,1.615-0.015,2.037c-0.38,0.573-0.688,0.31-0.899,1.012
	c-0.181,0.6-0.204,2.956,0.317,3.313c1.452,0.996,2.651-2.701,2.932-3.546c0.677-2.034-0.1-2.188-1.826-2.826
	c-0.145,0.04-0.12,0.132-0.204,0.213"/>
</svg>
