<?xml version="1.0" encoding="utf-8"?>
<!-- Generator: Adobe Illustrator 16.0.4, SVG Export Plug-In . SVG Version: 6.00 Build 0)  -->
<!DOCTYPE svg PUBLIC "-//W3C//DTD SVG 1.1//EN" "http://www.w3.org/Graphics/SVG/1.1/DTD/svg11.dtd">
<svg version="1.1" id="Layer_1" xmlns="http://www.w3.org/2000/svg" xmlns:xlink="http://www.w3.org/1999/xlink" x="0px" y="0px"
	 width="85.039px" height="85.039px" viewBox="0 0 85.039 85.039" enable-background="new 0 0 85.039 85.039" xml:space="preserve">
<g>
	<path fill="#FFFFFF" d="M64.467,30.676c0.021-0.523-2.621-10.954-6.334-11.734c-4.879-1.025-14.33-1.661-15.613,3.946
		c-0.544,2.373-7.972-2.743-9.828-1.828c-10.384-1.08-18.857,10.176-20.015,12.526c-1.63,3.309-2.919,6.649-3.073,10.373
		c-0.183,4.428,4.492,14.932,7.719,17.559c4.465,3.635,12.876,9.035,21.495,6.23c5.29-1.544,13.254-4.889,15.577-10.801
		c2.321-5.91,2.965-12.875,2.182-16.303c-1.129-4.931,9.656,13.5,16.822,9.659c3.555-1.906-1.812-7.338-2.39-7.784
		C59.275,33.479,64.467,30.676,64.467,30.676z"/>
	<g>
		<g>
			<path fill="#1F2D54" d="M74.324,43.707l-9.477-9.483c0.614-1.541,0.965-3.217,0.965-4.975c0-7.417-6.033-13.446-13.445-13.446
				c-4.391,0-8.277,2.118-10.73,5.38c-2.454-0.821-5.058-1.291-7.777-1.291c-13.604,0-24.674,11.066-24.674,24.672
				c0,13.604,11.07,24.672,24.673,24.672c13.605,0,24.672-11.067,24.672-24.672c0-0.686-0.047-1.356-0.102-2.029l8.528,8.533
				c0.985,0.984,2.295,1.527,3.687,1.527c1.393,0,2.698-0.541,3.682-1.527c0.986-0.983,1.525-2.289,1.525-3.682
				S75.312,44.688,74.324,43.707z M52.365,18.955c5.674,0,10.295,4.614,10.295,10.293c0,5.676-4.621,10.294-10.295,10.294
				s-10.294-4.619-10.294-10.294C42.071,23.569,46.691,18.955,52.365,18.955z M39.001,24.802c0.299-0.109,0.792-0.29,0.927-0.821
				c0.059-0.235,0.055-0.596-0.293-0.979c-0.01-0.014-0.021-0.023-0.029-0.034c0-0.008,0-0.016,0.004-0.025
				c0.26,0.07,0.51,0.172,0.766,0.25c-0.428,0.85-0.77,1.744-1.009,2.684c-0.181-0.157-0.354-0.45-0.412-1.058
				C38.971,24.81,38.989,24.807,39.001,24.802z M29.894,23.8c0.39-0.124,0.624-0.391,0.762-0.565
				c0.012-0.014,0.025-0.027,0.042-0.042c0.062,0.007,0.13,0.007,0.191,0c0.076,0.046,0.155,0.079,0.245,0.097l0.293,0.063
				c0.039,0.006,0.084,0.013,0.124,0.015c-0.228,0.27-0.574,0.66-0.905,0.622c-0.245-0.097-0.519-0.061-0.726,0.084
				c-0.02,0.008-0.037,0.014-0.054,0.017C29.885,23.995,29.894,23.896,29.894,23.8z M29.854,27.457
				c-0.064,0.04-0.142,0.079-0.233,0.121c-0.239,0.104-0.422,0.401-0.473,0.651c-0.009,0.036-0.057,0.13-0.13,0.292
				c-0.005,0.015-0.042,0.058-0.073,0.097c-0.042-0.047-0.088-0.087-0.129-0.11c0.087-0.205,0.087-0.436-0.003-0.638
				c-0.091-0.205-0.268-0.357-0.479-0.432c-0.268-0.084-0.493-0.238-0.711-0.432c0.382-0.246,0.852-0.442,1.341-0.646
				c0.332-0.135,0.664-0.272,0.976-0.428c0.099-0.05,0.186-0.118,0.256-0.205c0.062-0.072,0.107-0.111,0.208-0.146
				c0.008,0,0.02-0.002,0.033,0c0.036-0.005,0.076-0.002,0.116-0.005c0.047,0.003,0.092,0.005,0.143,0.008
				c-0.042,0.092-0.067,0.197-0.073,0.304c-0.017,0.064-0.157,0.208-0.242,0.298c-0.241,0.247-0.576,0.59-0.552,1.111
				C29.833,27.344,29.839,27.399,29.854,27.457z M29.827,21.843c-0.031,0.028-0.06,0.057-0.064,0.062
				c-0.07,0.069-0.141,0.141-0.22,0.208c-0.039,0.036-0.06,0.133-0.087,0.175c-0.082,0.011-0.161,0.034-0.236,0.062l0.281,0.745
				l-0.433-0.691c-0.194,0.028-0.369,0.127-0.489,0.275c-0.051,0.056-0.091,0.115-0.127,0.174c-0.357,0.048-0.67,0.227-0.95,0.383
				c-0.127,0.07-0.35,0.194-0.326,0.23c-0.07-0.092-0.124-0.109-0.229-0.163c-0.087-0.2-0.115-0.309-0.104-0.417
				c0.02-0.104-0.003-0.208-0.027-0.31C27.79,22.263,28.795,22.022,29.827,21.843z M15.209,33.126l0.199-0.293
				c0.408-0.593,0.872-1.254,0.875-2.089c1.592-2.025,3.481-3.738,5.631-5.1c0.121,0.033,0.259,0.057,0.41,0.057
				c0.188,0,0.655-0.036,0.956-0.374c0.133-0.145,0.226-0.392,0.229-0.6c0.099-0.05,0.194-0.102,0.292-0.151
				c0.04,0.008,0.079,0.014,0.118,0.024c0.107,0.02,0.214,0.017,0.323-0.003c0.197-0.048,0.392-0.155,0.526-0.324
				c0.141-0.047,0.271-0.133,0.366-0.253c0.02-0.024,0.036-0.05,0.056-0.076c0.091-0.039,0.181-0.073,0.267-0.112
				c0.015,0.031,0.028,0.063,0.04,0.096c0.115,0.259,0.301,0.479,0.549,0.638c0.349,0.369,0.742,0.451,1.023,0.451
				c0.368,0,0.7-0.144,0.984-0.29c0.099,0.078,0.211,0.139,0.338,0.166c-0.011,0.006-0.02,0.009-0.031,0.018
				c-0.906,0.374-1.845,0.762-2.503,1.563c-0.253,0.312-0.231,0.769,0.054,1.055l0.172,0.172c0.317,0.328,0.669,0.684,1.142,0.959
				c0.02,0.452,0.228,0.88,0.573,1.179c0.029,0.14,0.102,0.274,0.202,0.381c0.166,0.166,0.389,0.253,0.63,0.233
				c0.335-0.028,0.631-0.136,0.872-0.324c0.489-0.188,0.86-0.588,0.973-1.009c0.039-0.079,0.087-0.169,0.127-0.279
				c0.41-0.236,0.705-0.531,0.905-0.894c0.107-0.197,0.099-0.45,0.012-0.673c0.151-0.153,0.343-0.354,0.483-0.613
				c0.093,0.009,0.172,0.033,0.259,0.066c-0.02,0.169,0.003,0.318,0.034,0.432c0.036,0.151,0.106,0.271,0.165,0.356
				c0.043,0.133,0.121,0.25,0.228,0.343c0.166,0.148,0.392,0.22,0.616,0.191c0.231-0.025,0.434-0.087,0.613-0.163
				c0.043,0.265,0.116,0.585,0.29,0.875c-0.112,0.135-0.214,0.281-0.307,0.433c-0.107,0.048-0.205,0.091-0.301,0.139
				c-0.242,0.109-0.434,0.2-0.573,0.2c-0.031,0-0.136,0-0.343-0.115c-0.06-0.031-0.124-0.057-0.188-0.07
				c-0.06-0.014-0.239-0.037-0.301-0.037c-0.374,0-0.613,0.171-0.759,0.329c-0.187,0.031-0.355,0.126-0.479,0.275
				c-0.181,0.216-0.229,0.509-0.133,0.771c-0.102,0.05-0.205,0.103-0.304,0.152c-0.678,0.356-1.201,0.95-1.493,1.696
				c-0.423,0.241-0.751,0.542-1.047,0.814c-0.239,0.223-0.467,0.437-0.717,0.583c-0.295,0.177-0.433,0.585-0.357,0.917
				c-0.045,0.109-0.447,0.334-0.66,0.453c-0.507,0.278-1.173,0.646-1.478,1.327c-0.413-0.184-0.872-0.215-1.541-0.258
				c-0.099-0.006-0.191,0.002-0.281,0.033c-0.214,0.061-0.422,0.193-0.573,0.367c-0.014-0.005-0.034-0.008-0.048-0.014
				c-0.175-0.049-0.386-0.104-0.647-0.104c-0.045,0-0.242,0.016-0.283,0.021c-1.061,0.183-1.946,1.106-2.265,2.351
				c-0.23,0.922-0.112,1.807,0.307,2.477c-0.383-0.121-0.756-0.385-1.145-0.664l-0.021-0.012c-0.046-0.125-0.096-0.252-0.157-0.383
				l-0.062-0.129c-0.042-0.834-0.47-1.426-0.821-1.914c-0.377-0.52-0.672-0.933-0.61-1.622c0.024-0.256-0.077-0.51-0.276-0.675
				c-0.193-0.166-0.455-0.222-0.702-0.163c-0.007,0-0.009,0.002-0.012,0.002c-0.157-0.205-0.32-0.406-0.492-0.602
				c-0.003-0.585-0.015-1.169-0.028-1.755l-0.002-0.095L15.209,33.126z M10.764,44.564c0-3.962,1.004-7.695,2.771-10.958v0.018
				c0.011,0.652,0.028,1.308,0.031,2.023c0,0.197,0.073,0.386,0.208,0.535c0.25,0.271,0.483,0.551,0.709,0.864
				c0.099,0.129,0.193,0.262,0.284,0.398c0.088,0.129,0.214,0.233,0.357,0.29c0.162,0.67,0.521,1.166,0.829,1.596
				c0.34,0.473,0.534,0.762,0.526,1.148c-0.003,0.125,0.067,0.348,0.12,0.457l0.091,0.193c0.067,0.139,0.115,0.27,0.154,0.406
				c0.051,0.176,0.157,0.328,0.307,0.432l0.229,0.16c0.688,0.49,1.603,1.116,2.711,1.001c0.368,0.408,0.88,0.596,1.291,0.748
				c0.721,0.264,0.721,0.326,0.709,0.588c-0.014,0.309,0.155,0.602,0.434,0.74c0.396,0.197,0.768,0.424,1.137,0.648
				c0.202,0.125,0.41,0.254,0.618,0.371c0.093,0.057,0.194,0.088,0.295,0.1c0.05,0.006,0.104,0.008,0.154,0.008
				c-0.081,0.201-0.219,0.418-0.394,0.688C24,47.543,23.52,48.275,23.73,49.102c-0.064,0.121-0.106,0.236-0.138,0.322
				c-0.2,0.27-0.205,0.635-0.017,0.914c0.731,1.061,1.42,2.113,1.848,3.396c0.076,0.236,0.262,0.422,0.501,0.498
				c1.423,0.473,1.89,1.471,1.707,3.682c-0.042,0.531,0.022,0.973,0.084,1.406c0.025,0.17,0.049,0.346,0.067,0.533
				c0.048,0.492,0.04,0.963,0.037,1.401c-0.012,0.996-0.028,2.026,0.604,2.894c-0.022,0.149-0.007,0.293,0.005,0.387
				c0.004,0.055,0.016,0.15,0.016,0.164c-0.093,0.209-0.093,0.449,0.006,0.658c0.042,0.08,0.09,0.147,0.148,0.211
				c0.04,0.387,0.254,0.676,0.38,0.848c0.109,0.15,0.146,0.207,0.146,0.258c0.003,0.211,0.093,0.4,0.236,0.539
				C18.771,65.111,10.764,55.758,10.764,44.564z M30.919,62.309c-0.216,0.174-0.335,0.459-0.284,0.752
				c-0.256,0.879-0.29,1.822-0.106,2.697c-0.031-0.006-0.064-0.008-0.099-0.012c-0.064-0.107-0.127-0.193-0.184-0.264
				c-0.011-0.021-0.025-0.037-0.036-0.051c0.034-0.099,0.048-0.193,0.042-0.298c-0.003-0.062-0.017-0.245-0.129-0.434
				c0.062-0.093,0.107-0.201,0.121-0.312c0.07-0.451-0.067-0.765-0.161-0.99c0.062-0.267-0.019-0.539-0.208-0.73
				c-0.126-0.123-0.283-0.201-0.449-0.225c-0.042-0.316-0.039-0.697-0.033-1.168c0.008-0.492,0.011-1.021-0.043-1.568
				c-0.021-0.215-0.047-0.414-0.076-0.611c-0.056-0.377-0.102-0.699-0.07-1.049c0.154-1.898,0.006-4.166-2.416-5.17
				c-0.422-1.125-0.992-2.068-1.608-2.98c0.088-0.074,0.163-0.17,0.211-0.283c0.113-0.245,0.088-0.536-0.067-0.764
				c-0.12-0.178-0.104-0.295,0.332-0.971c0.363-0.559,0.908-1.404,0.672-2.428c0.233-0.27,0.515-0.508,0.844-0.717
				c0.248,0.131,0.545,0.121,0.748,0.065c0.06,0.082,0.13,0.152,0.214,0.207c0.243,0.16,0.552,0.179,0.805,0.037
				c0.028-0.017,0.447-0.017,0.757,0.031c0.169,0.024,0.331,0.047,0.476,0.057c0.169,0.238,0.379,0.425,0.559,0.578
				c0.229,0.205,0.447,0.396,0.591,0.664c0.163,0.299,0.501,0.455,0.832,0.396c0.785-0.139,1.004-0.074,1.342,1.354
				c0.039,0.168,0.136,0.319,0.271,0.433c0.748,0.604,1.693,0.926,2.612,1.229c0.763,0.258,1.492,0.5,2.015,0.883
				c0.017,0.156-0.093,0.345-0.487,0.815c-0.309,0.375-0.654,0.797-0.807,1.334c-0.16,0.564-0.157,1.125-0.154,1.621
				c0.004,0.109,0.004,0.213,0.004,0.318c-0.205,0.227-0.414,0.449-0.625,0.672L35.96,55.82c-1.063,0.396-1.345,1.494-1.56,2.434
				c-0.009,0.021-0.022,0.039-0.031,0.062c-0.603,0.299-1.113,0.754-1.508,1.35l-0.394,0.449c-0.396,0.451-0.855,1-1.243,1.619
				C31.105,61.922,31.01,62.111,30.919,62.309z M33.858,67.66c-0.242,0-0.48-0.029-0.723-0.035c0.005-0.107,0.008-0.217-0.021-0.311
				c-0.039-0.146-0.117-0.271-0.23-0.369c-0.289-0.258-0.521-0.607-0.669-1.01c-0.301-0.81-0.304-1.767-0.009-2.617
				c0.009-0.021,0.012-0.031,0.018-0.049c0.008-0.021,0.019-0.045,0.031-0.066c0.084-0.219,0.18-0.434,0.304-0.631
				c0.325-0.523,0.733-1.006,1.091-1.418l0.418-0.479c0.018-0.021,0.102-0.146,0.116-0.172c0.256-0.379,0.613-0.676,1.037-0.849
				c0.158-0.063,0.293-0.18,0.381-0.325c0.092-0.147,0.171-0.308,0.25-0.464c0.025-0.057,0.073-0.229,0.091-0.29
				c0.183-0.822,0.308-1.22,0.63-1.3c0.152-0.035,0.291-0.116,0.395-0.233l0.494-0.524c0.289-0.31,0.58-0.613,0.853-0.937
				c0.009-0.006,0.017-0.015,0.022-0.021c0.105-0.127,0.164-0.287,0.17-0.453c0.015-0.221,0.015-0.446,0.012-0.678
				c-0.003-0.43-0.005-0.832,0.093-1.178c0.062-0.223,0.29-0.496,0.507-0.762c0.486-0.59,1.224-1.479,0.642-2.652
				c-0.053-0.096-0.113-0.18-0.195-0.248c-0.759-0.646-1.74-0.979-2.688-1.299c-0.721-0.244-1.406-0.473-1.918-0.811
				c-0.253-1.004-0.757-2.414-2.562-2.316c-0.217-0.271-0.444-0.475-0.627-0.633c-0.119-0.102-0.293-0.26-0.318-0.311
				c0.009-0.367-0.236-0.695-0.593-0.787c-0.233-0.06-0.47-0.006-0.653,0.123c-0.081-0.015-0.174-0.025-0.271-0.039
				c-0.301-0.047-0.632-0.099-0.938-0.076c-0.13-0.131-0.268-0.215-0.371-0.275c-0.16-0.237-0.45-0.351-0.726-0.321
				c-0.177-0.053-0.366-0.045-0.535,0.025c-0.709,0.29-1.302,0.655-1.791,1.103c-0.34-0.102-0.714-0.07-1.068,0.037
				c-0.017-0.158,0.022-0.406,0.107-0.855l0.09-0.477c0.033-0.203-0.011-0.414-0.133-0.582c-0.331-0.477-0.896-0.494-1.11-0.494
				c0.169-0.32,0.338-0.66,0.467-1.062c0.078-0.238,0.033-0.5-0.116-0.705c-0.148-0.203-0.388-0.322-0.636-0.322H22.13
				c-0.276,0-0.529,0.145-0.672,0.375c-0.085,0.137-0.155,0.289-0.226,0.443c-0.028,0.068-0.067,0.154-0.093,0.211
				c-0.151,0.008-0.278,0.047-0.385,0.09c-0.202-0.355-0.188-0.844-0.093-1.219c0.136-0.525,0.498-1.098,1.019-1.184
				c0.051,0,0.141,0.021,0.233,0.047c0.369,0.098,0.989,0.154,1.507-0.143c0.077-0.045,0.142-0.096,0.191-0.158
				c0.194,0.018,0.321,0.033,0.41,0.057c0.043,1.152,0.678,1.609,1.086,1.791c0.389,0.168,0.841,0,1.027-0.387
				c0.325-0.684,0.247-1.52,0.109-2.22c0.124-0.186,0.447-0.365,0.766-0.543c0.539-0.297,1.386-0.768,1.47-1.675
				c0.211-0.163,0.4-0.334,0.571-0.495c0.317-0.292,0.591-0.545,0.931-0.689c0.217-0.096,0.38-0.28,0.445-0.509
				c0.141-0.487,0.436-0.866,0.829-1.077c0.405-0.211,0.849-0.398,1.358-0.57c0.191-0.068,0.318-0.139,0.41-0.315
				c0.067-0.05,0.172-0.132,0.273-0.256c0.362-0.05,0.669-0.191,0.961-0.326c0.118-0.057,0.242-0.113,0.377-0.166
				c0.082-0.031,0.229-0.141,0.293-0.2c0.017-0.014,0.132-0.118,0.151-0.138c0.046-0.047,0.091-0.104,0.118-0.16
				c0.172-0.304,0.392-0.551,0.655-0.743c0.242-0.174,0.335-0.482,0.284-0.784c-0.052-0.295-0.298-0.546-0.585-0.633
				c-0.043-0.056-0.079-0.304-0.102-0.448c-0.04-0.266-0.091-0.589-0.229-0.914c0.115-0.055,0.236-0.136,0.354-0.26
				c0.075-0.084,0.137-0.18,0.178-0.283c0.021-0.077,0.045-0.149,0.056-0.221c0.022-0.008,0.045-0.017,0.063-0.021
				c0.393-0.155,1.047-0.411,1.246-1.172c0.055-0.221,0.014-0.456-0.115-0.645c-0.129-0.188-0.334-0.31-0.56-0.337
				c-0.024-0.003-0.048-0.006-0.067-0.009c0.012-0.09,0.018-0.184,0.015-0.278c-0.007-0.281-0.165-0.537-0.413-0.669
				c-0.211-0.119-0.434-0.183-0.627-0.245c-0.124-0.034-0.307-0.09-0.31-0.05c-0.048-0.414-0.405-0.72-0.826-0.697
				c-0.112,0.009-0.231,0.012-0.352,0.012l-0.571-0.015c-0.462-0.011-0.917-0.036-1.457,0.036c-0.093-0.066-0.205-0.109-0.324-0.14
				c0.773-0.079,1.556-0.119,2.347-0.119c1.062,0,2.101,0.096,3.124,0.239c0,0.011-0.003,0.021-0.003,0.032
				c0,0.377,0.271,0.709,0.651,0.773c0.136,0.025,0.269,0.053,0.399,0.079c0.021,0.338-0.022,0.402-0.159,0.554
				c-0.16,0.171-0.226,0.399-0.203,0.619c-0.201,0.194-0.342,0.461-0.307,0.827c0.037,1.845,0.887,2.599,1.686,2.905
				c-0.076,0.575-0.131,1.158-0.131,1.752c0,4.348,2.083,8.212,5.298,10.67c-0.051,0.1-0.104,0.201-0.156,0.299
				c-0.188,0.324-0.115,0.73,0.158,0.979c0.158,0.141,0.18,0.23,0.012,0.9c-0.135,0.518-0.303,1.163-0.092,1.874
				c0.037,0.133,0.109,0.248,0.205,0.344c0.324,0.316,0.604,0.674,0.881,1.035c0.545,0.699,1.109,1.42,1.969,1.924
				c0.164,0.096,0.355,0.135,0.545,0.096c0.562-0.106,1.05-0.194,1.527-0.274l0.383-0.062c0.104-0.021,0.205-0.062,0.299-0.121
				c0.392-0.26,0.949-0.33,1.441-0.256c0.016,0,0.023,0.002,0.045,0.002c0.018,0.006,0.037,0.012,0.055,0.016
				c0.297,0.068,0.554,0.199,0.759,0.387c0.024,0.02,0.051,0.043,0.071,0.062c0.015,0.016,0.025,0.035,0.041,0.053l0.105,0.129
				c0.021,0.029,0.047,0.053,0.07,0.078c0.012,0.035,0.029,0.066,0.047,0.096c0.186,0.332,0.275,0.744,0.262,1.172
				c0,0.041,0.01,0.104,0.025,0.17h-0.012c0.078,0.479,0.231,0.896,0.377,1.299c0.073,0.201,0.147,0.406,0.211,0.611
				c0.078,0.275,0.129,0.549,0.168,0.863c0.041,0.207,0.063,0.424,0.076,0.658c-0.029,0.076-0.047,0.158-0.054,0.234
				c-0.014,0.25-0.039,0.502-0.09,0.76c-0.052,0.262-0.181,0.508-0.383,0.723c-0.103,0.107-0.173,0.242-0.201,0.389
				c-0.009,0.047-0.019,0.129-0.019,0.18c0,0.197,0.072,0.386,0.207,0.531c0.144,0.154,0.271,0.381,0.408,0.707
				c0.059,0.142,0.152,0.252,0.271,0.338C49.828,63.002,42.385,67.66,33.858,67.66z M55.168,51.359c0-0.004,0-0.006,0-0.01
				c-0.041-0.354-0.105-0.705-0.217-1.068c-0.07-0.238-0.15-0.469-0.238-0.703c-0.105-0.301-0.211-0.586-0.295-0.949
				c0.014-0.604-0.107-1.191-0.352-1.707c0.002-0.066,0.002-0.141,0-0.215c-0.014-0.246-0.139-0.475-0.346-0.615
				c-0.062-0.043-0.128-0.072-0.203-0.1c-0.093-0.098-0.213-0.174-0.357-0.229c-0.342-0.273-0.742-0.478-1.186-0.597
				c-0.132-0.056-0.285-0.086-0.429-0.086c-0.778-0.108-1.653,0.021-2.328,0.418l-0.227,0.039c-0.396,0.067-0.798,0.142-1.24,0.224
				c-0.483-0.355-0.879-0.855-1.285-1.382c-0.264-0.34-0.539-0.688-0.85-1.019c-0.023-0.258,0.051-0.551,0.137-0.877
				c0.103-0.406,0.231-0.936,0.11-1.471c1.929,1.066,4.144,1.68,6.498,1.68c1.289,0,2.531-0.193,3.714-0.533
				c0.09,0.795,0.149,1.597,0.149,2.402C56.229,46.869,55.867,49.17,55.168,51.359z M72.098,48.842
				c-0.775,0.773-2.131,0.773-2.908,0l-8.532-8.536l2.907-2.908l8.533,8.536c0.389,0.387,0.603,0.906,0.603,1.453
				C72.699,47.936,72.486,48.451,72.098,48.842z"/>
			<path fill="#1F2D54" d="M53.662,22.637c3.643,0,6.605,2.967,6.605,6.612c0,0.433,0.354,0.788,0.787,0.788
				c0.438,0,0.791-0.355,0.791-0.788c0-4.515-3.671-8.189-8.187-8.189c-0.438,0-0.789,0.354-0.789,0.79S53.223,22.637,53.662,22.637
				z"/>
		</g>
	</g>
</g>
</svg>
